<ttFont>
<head>
    <!-- Most of this table will be recalculated by the compiler -->
    <tableVersion value="1.0"/>
    <fontRevision value="1.0"/>
    <checkSumAdjustment value="0x3ecc705"/>
    <magicNumber value="0x5f0f3cf5"/>
    <flags value="00000000 00011011"/>
    <unitsPerEm value="1000"/>
    <created value="Sat Dec  6 13:43:38 2025"/>
    <modified value="Sat Dec  6 13:48:32 2025"/>
    <xMin value="-71"/>
    <yMin value="-250"/>
    <xMax value="1099"/>
    <yMax value="780"/>
    <macStyle value="00000000 00000001"/>
    <lowestRecPPEM value="6"/>
    <fontDirectionHint value="2"/>
    <indexToLocFormat value="0"/>
    <glyphDataFormat value="0"/>
  </head>
    <TTGlyph name="A" xMin="42" yMin="0" xMax="690" yMax="694">
      <contour>
        <pt x="685" y="47" on="1"/>
        <pt x="689" y="37" on="0"/>
        <pt x="690" y="31" on="0"/>
        <pt x="690" y="27" on="1"/>
        <pt x="690" y="7" on="0"/>
        <pt x="662" y="0" on="0"/>
        <pt x="651" y="0" on="1"/>
        <pt x="597" y="0" on="1"/>
        <pt x="579" y="0" on="0"/>
        <pt x="557" y="7" on="0"/>
        <pt x="543" y="21" on="0"/>
        <pt x="535" y="42" on="0"/>
        <pt x="530" y="55" on="1"/>
        <pt x="496" y="151" on="1"/>
        <pt x="219" y="151" on="1"/>
        <pt x="180" y="40" on="1"/>
        <pt x="175" y="25" on="0"/>
        <pt x="159" y="9" on="0"/>
        <pt x="141" y="1" on="0"/>
        <pt x="124" y="0" on="0"/>
        <pt x="117" y="0" on="1"/>
        <pt x="81" y="0" on="1"/>
        <pt x="70" y="0" on="0"/>
        <pt x="42" y="7" on="0"/>
        <pt x="42" y="27" on="1"/>
        <pt x="42" y="31" on="0"/>
        <pt x="43" y="37" on="0"/>
        <pt x="47" y="47" on="1"/>
        <pt x="258" y="651" on="1"/>
        <pt x="264" y="667" on="0"/>
        <pt x="279" y="685" on="0"/>
        <pt x="297" y="693" on="0"/>
        <pt x="315" y="694" on="0"/>
        <pt x="322" y="694" on="1"/>
        <pt x="410" y="694" on="1"/>
        <pt x="418" y="694" on="0"/>
        <pt x="435" y="693" on="0"/>
        <pt x="453" y="685" on="0"/>
        <pt x="468" y="667" on="0"/>
        <pt x="474" y="651" on="1"/>
      </contour>
      <contour>
        <pt x="249" y="237" on="1"/>
        <pt x="466" y="237" on="1"/>
        <pt x="371" y="518" on="1"/>
        <pt x="368" y="527" on="0"/>
        <pt x="365" y="537" on="0"/>
        <pt x="362" y="547" on="0"/>
        <pt x="360" y="558" on="0"/>
        <pt x="358" y="567" on="1"/>
        <pt x="357" y="567" on="1"/>
        <pt x="351" y="540" on="0"/>
        <pt x="332" y="482" on="0"/>
        <pt x="321" y="449" on="1"/>
      </contour>
    </TTGlyph>
    <TTGlyph name="AE" xMin="44" yMin="0" xMax="900" yMax="694">
      <contour>
        <pt x="186" y="43" on="1"/>
        <pt x="174" y="13" on="0"/>
        <pt x="141" y="0" on="0"/>
        <pt x="119" y="0" on="1"/>
        <pt x="82" y="0" on="1"/>
        <pt x="72" y="0" on="0"/>
        <pt x="44" y="7" on="0"/>
        <pt x="44" y="26" on="1"/>
        <pt x="44" y="30" on="0"/>
        <pt x="46" y="36" on="0"/>
        <pt x="49" y="44" on="1"/>
        <pt x="300" y="652" on="1"/>
        <pt x="311" y="678" on="0"/>
        <pt x="341" y="694" on="0"/>
        <pt x="366" y="694" on="1"/>
        <pt x="837" y="694" on="1"/>
        <pt x="868" y="694" on="0"/>
        <pt x="885" y="670" on="0"/>
        <pt x="885" y="646" on="1"/>
        <pt x="885" y="638" on="1"/>
        <pt x="885" y="620" on="0"/>
        <pt x="877" y="601" on="0"/>
        <pt x="862" y="592" on="0"/>
        <pt x="842" y="590" on="0"/>
        <pt x="831" y="590" on="1"/>
        <pt x="781" y="590" on="0"/>
        <pt x="682" y="593" on="0"/>
        <pt x="632" y="593" on="1"/>
        <pt x="607" y="593" on="1"/>
        <pt x="607" y="406" on="1"/>
        <pt x="806" y="406" on="1"/>
        <pt x="832" y="406" on="0"/>
        <pt x="854" y="387" on="0"/>
        <pt x="854" y="359" on="1"/>
        <pt x="854" y="329" on="0"/>
        <pt x="829" y="312" on="0"/>
        <pt x="806" y="312" on="1"/>
        <pt x="607" y="312" on="1"/>
        <pt x="607" y="107" on="1"/>
        <pt x="658" y="107" on="1"/>
        <pt x="706" y="107" on="0"/>
        <pt x="799" y="110" on="0"/>
        <pt x="847" y="110" on="1"/>
        <pt x="858" y="110" on="0"/>
        <pt x="877" y="109" on="0"/>
        <pt x="892" y="100" on="0"/>
        <pt x="900" y="80" on="0"/>
        <pt x="900" y="62" on="1"/>
        <pt x="900" y="48" on="1"/>
        <pt x="900" y="22" on="0"/>
        <pt x="881" y="0" on="0"/>
        <pt x="852" y="0" on="1"/>
        <pt x="509" y="0" on="1"/>
        <pt x="481" y="0" on="0"/>
        <pt x="461" y="21" on="0"/>
        <pt x="461" y="48" on="1"/>
        <pt x="461" y="192" on="1"/>
        <pt x="248" y="192" on="1"/>
      </contour>
      <contour>
        <pt x="283" y="278" on="1"/>
        <pt x="461" y="278" on="1"/>
        <pt x="461" y="594" on="1"/>
        <pt x="414" y="594" on="1"/>
      </contour>
    </TTGlyph>
    <TTGlyph name="B" xMin="91" yMin="0" xMax="671" yMax="694">
      <contour>
        <pt x="385" y="694" on="1"/>
        <pt x="396" y="694" on="0"/>
        <pt x="441" y="692" on="0"/>
        <pt x="498" y="682" on="0"/>
        <pt x="558" y="661" on="0"/>
        <pt x="608" y="621" on="0"/>
        <pt x="640" y="559" on="0"/>
        <pt x="640" y="514" on="1"/>
        <pt x="640" y="455" on="0"/>
        <pt x="564" y="379" on="0"/>
        <pt x="495" y="363" on="1"/>
        <pt x="509" y="361" on="0"/>
        <pt x="567" y="347" on="0"/>
        <pt x="626" y="311" on="0"/>
        <pt x="671" y="247" on="0"/>
        <pt x="671" y="194" on="1"/>
        <pt x="671" y="149" on="0"/>
        <pt x="643" y="85" on="0"/>
        <pt x="598" y="42" on="0"/>
        <pt x="541" y="17" on="0"/>
        <pt x="484" y="4" on="0"/>
        <pt x="432" y="0" on="0"/>
        <pt x="413" y="0" on="1"/>
        <pt x="139" y="0" on="1"/>
        <pt x="111" y="0" on="0"/>
        <pt x="91" y="21" on="0"/>
        <pt x="91" y="48" on="1"/>
        <pt x="91" y="646" on="1"/>
        <pt x="91" y="674" on="0"/>
        <pt x="112" y="694" on="0"/>
        <pt x="139" y="694" on="1"/>
      </contour>
      <contour>
        <pt x="348" y="397" on="1"/>
        <pt x="354" y="397" on="0"/>
        <pt x="382" y="398" on="0"/>
        <pt x="417" y="404" on="0"/>
        <pt x="454" y="418" on="0"/>
        <pt x="484" y="443" on="0"/>
        <pt x="504" y="483" on="0"/>
        <pt x="504" y="511" on="1"/>
        <pt x="504" y="546" on="0"/>
        <pt x="467" y="585" on="0"/>
        <pt x="416" y="604" on="0"/>
        <pt x="364" y="608" on="0"/>
        <pt x="349" y="608" on="1"/>
        <pt x="232" y="608" on="1"/>
        <pt x="232" y="397" on="1"/>
      </contour>
      <contour>
        <pt x="377" y="86" on="1"/>
        <pt x="395" y="86" on="0"/>
        <pt x="448" y="91" on="0"/>
        <pt x="497" y="113" on="0"/>
        <pt x="532" y="157" on="0"/>
        <pt x="532" y="196" on="1"/>
        <pt x="532" y="244" on="0"/>
        <pt x="487" y="297" on="0"/>
        <pt x="429" y="321" on="0"/>
        <pt x="371" y="325" on="0"/>
        <pt x="358" y="325" on="1"/>
        <pt x="232" y="325" on="1"/>
        <pt x="232" y="86" on="1"/>
      </contour>
    </TTGlyph>
    <TTGlyph name="C" xMin="61" yMin="-10" xMax="648" yMax="706">
      <contour>
        <pt x="648" y="59" on="1"/>
        <pt x="648" y="57" on="0"/>
        <pt x="648" y="55" on="1"/>
        <pt x="648" y="52" on="0"/>
        <pt x="642" y="47" on="1"/>
        <pt x="615" y="30" on="0"/>
        <pt x="566" y="8" on="0"/>
        <pt x="516" y="-5" on="0"/>
        <pt x="463" y="-10" on="0"/>
        <pt x="431" y="-10" on="1"/>
        <pt x="249" y="-10" on="0"/>
        <pt x="61" y="165" on="0"/>
        <pt x="61" y="349" on="1"/>
        <pt x="61" y="529" on="0"/>
        <pt x="246" y="706" on="0"/>
        <pt x="430" y="706" on="1"/>
        <pt x="489" y="706" on="0"/>
        <pt x="583" y="687" on="0"/>
        <pt x="628" y="670" on="1"/>
        <pt x="638" y="666" on="0"/>
        <pt x="636" y="659" on="1"/>
        <pt x="616" y="548" on="1"/>
        <pt x="615" y="545" on="0"/>
        <pt x="609" y="539" on="0"/>
        <pt x="606" y="539" on="1"/>
        <pt x="601" y="539" on="0"/>
        <pt x="595" y="544" on="0"/>
        <pt x="590" y="548" on="1"/>
        <pt x="580" y="556" on="0"/>
        <pt x="551" y="576" on="0"/>
        <pt x="512" y="593" on="0"/>
        <pt x="460" y="605" on="0"/>
        <pt x="427" y="605" on="1"/>
        <pt x="366" y="605" on="0"/>
        <pt x="282" y="567" on="0"/>
        <pt x="231" y="498" on="0"/>
        <pt x="209" y="404" on="0"/>
        <pt x="209" y="348" on="1"/>
        <pt x="209" y="292" on="0"/>
        <pt x="230" y="197" on="0"/>
        <pt x="282" y="128" on="0"/>
        <pt x="369" y="90" on="0"/>
        <pt x="435" y="90" on="1"/>
        <pt x="488" y="90" on="0"/>
        <pt x="555" y="110" on="0"/>
        <pt x="597" y="135" on="0"/>
        <pt x="620" y="155" on="0"/>
        <pt x="629" y="155" on="1"/>
        <pt x="632" y="155" on="0"/>
        <pt x="640" y="149" on="0"/>
        <pt x="640" y="143" on="1"/>
      </contour>
    </TTGlyph>
    <TTGlyph name="D" xMin="91" yMin="0" xMax="732" yMax="694">
      <contour>
        <pt x="403" y="694" on="1"/>
        <pt x="489" y="694" on="0"/>
        <pt x="613" y="645" on="0"/>
        <pt x="694" y="554" on="0"/>
        <pt x="732" y="423" on="0"/>
        <pt x="732" y="342" on="1"/>
        <pt x="732" y="269" on="0"/>
        <pt x="698" y="143" on="0"/>
        <pt x="620" y="52" on="0"/>
        <pt x="495" y="0" on="0"/>
        <pt x="403" y="0" on="1"/>
        <pt x="139" y="0" on="1"/>
        <pt x="111" y="0" on="0"/>
        <pt x="91" y="21" on="0"/>
        <pt x="91" y="48" on="1"/>
        <pt x="91" y="646" on="1"/>
        <pt x="91" y="674" on="0"/>
        <pt x="112" y="694" on="0"/>
        <pt x="139" y="694" on="1"/>
      </contour>
      <contour>
        <pt x="364" y="86" on="1"/>
        <pt x="444" y="86" on="0"/>
        <pt x="534" y="134" on="0"/>
        <pt x="578" y="209" on="0"/>
        <pt x="588" y="300" on="0"/>
        <pt x="588" y="342" on="1"/>
        <pt x="588" y="384" on="0"/>
        <pt x="578" y="478" on="0"/>
        <pt x="535" y="556" on="0"/>
        <pt x="444" y="608" on="0"/>
        <pt x="363" y="608" on="1"/>
        <pt x="235" y="608" on="1"/>
        <pt x="235" y="86" on="1"/>
      </contour>
    </TTGlyph>
    <TTGlyph name="E" xMin="91" yMin="0" xMax="595" yMax="691">
      <contour>
        <pt x="238" y="106" on="1"/>
        <pt x="245" y="106" on="0"/>
        <pt x="285" y="107" on="0"/>
        <pt x="332" y="108" on="0"/>
        <pt x="375" y="108" on="0"/>
        <pt x="384" y="108" on="1"/>
        <pt x="423" y="108" on="0"/>
        <pt x="500" y="110" on="0"/>
        <pt x="539" y="110" on="1"/>
        <pt x="551" y="110" on="0"/>
        <pt x="572" y="109" on="0"/>
        <pt x="587" y="100" on="0"/>
        <pt x="595" y="80" on="0"/>
        <pt x="595" y="62" on="1"/>
        <pt x="595" y="48" on="1"/>
        <pt x="595" y="22" on="0"/>
        <pt x="576" y="0" on="0"/>
        <pt x="547" y="0" on="1"/>
        <pt x="139" y="0" on="1"/>
        <pt x="111" y="0" on="0"/>
        <pt x="91" y="21" on="0"/>
        <pt x="91" y="48" on="1"/>
        <pt x="91" y="643" on="1"/>
        <pt x="91" y="671" on="0"/>
        <pt x="112" y="691" on="0"/>
        <pt x="139" y="691" on="1"/>
        <pt x="532" y="691" on="1"/>
        <pt x="563" y="691" on="0"/>
        <pt x="580" y="667" on="0"/>
        <pt x="580" y="643" on="1"/>
        <pt x="580" y="635" on="1"/>
        <pt x="580" y="617" on="0"/>
        <pt x="572" y="598" on="0"/>
        <pt x="557" y="589" on="0"/>
        <pt x="535" y="587" on="0"/>
        <pt x="522" y="587" on="1"/>
        <pt x="463" y="587" on="0"/>
        <pt x="346" y="590" on="0"/>
        <pt x="287" y="590" on="1"/>
        <pt x="238" y="590" on="1"/>
        <pt x="238" y="405" on="1"/>
        <pt x="501" y="405" on="1"/>
        <pt x="527" y="405" on="0"/>
        <pt x="549" y="386" on="0"/>
        <pt x="549" y="358" on="1"/>
        <pt x="549" y="328" on="0"/>
        <pt x="524" y="311" on="0"/>
        <pt x="501" y="311" on="1"/>
        <pt x="238" y="311" on="1"/>
      </contour>
    </TTGlyph>
    <TTGlyph name="F" xMin="91" yMin="0" xMax="564" yMax="691">
      <contour>
        <pt x="238" y="48" on="1"/>
        <pt x="238" y="22" on="0"/>
        <pt x="219" y="0" on="0"/>
        <pt x="190" y="0" on="1"/>
        <pt x="139" y="0" on="1"/>
        <pt x="111" y="0" on="0"/>
        <pt x="91" y="21" on="0"/>
        <pt x="91" y="48" on="1"/>
        <pt x="91" y="643" on="1"/>
        <pt x="91" y="671" on="0"/>
        <pt x="112" y="691" on="0"/>
        <pt x="139" y="691" on="1"/>
        <pt x="516" y="691" on="1"/>
        <pt x="547" y="691" on="0"/>
        <pt x="564" y="667" on="0"/>
        <pt x="564" y="643" on="1"/>
        <pt x="564" y="635" on="1"/>
        <pt x="564" y="617" on="0"/>
        <pt x="556" y="598" on="0"/>
        <pt x="541" y="589" on="0"/>
        <pt x="520" y="587" on="0"/>
        <pt x="507" y="587" on="1"/>
        <pt x="450" y="587" on="0"/>
        <pt x="338" y="590" on="0"/>
        <pt x="281" y="590" on="1"/>
        <pt x="238" y="590" on="1"/>
        <pt x="238" y="393" on="1"/>
        <pt x="470" y="393" on="1"/>
        <pt x="496" y="393" on="0"/>
        <pt x="518" y="374" on="0"/>
        <pt x="518" y="346" on="1"/>
        <pt x="518" y="316" on="0"/>
        <pt x="493" y="299" on="0"/>
        <pt x="470" y="299" on="1"/>
        <pt x="238" y="299" on="1"/>
      </contour>
    </TTGlyph>
    <TTGlyph name="G" xMin="62" yMin="-10" xMax="660" yMax="705">
      <contour>
        <pt x="660" y="46" on="1"/>
        <pt x="650" y="37" on="0"/>
        <pt x="604" y="18" on="0"/>
        <pt x="541" y="1" on="0"/>
        <pt x="466" y="-10" on="0"/>
        <pt x="426" y="-10" on="1"/>
        <pt x="251" y="-10" on="0"/>
        <pt x="62" y="163" on="0"/>
        <pt x="62" y="348" on="1"/>
        <pt x="62" y="431" on="0"/>
        <pt x="103" y="564" on="0"/>
        <pt x="192" y="656" on="0"/>
        <pt x="333" y="705" on="0"/>
        <pt x="432" y="705" on="1"/>
        <pt x="472" y="705" on="0"/>
        <pt x="540" y="694" on="0"/>
        <pt x="593" y="679" on="0"/>
        <pt x="632" y="662" on="0"/>
        <pt x="643" y="656" on="1"/>
        <pt x="650" y="652" on="0"/>
        <pt x="651" y="644" on="0"/>
        <pt x="650" y="640" on="1"/>
        <pt x="632" y="538" on="1"/>
        <pt x="629" y="525" on="0"/>
        <pt x="620" y="525" on="1"/>
        <pt x="615" y="525" on="0"/>
        <pt x="611" y="529" on="1"/>
        <pt x="589" y="550" on="0"/>
        <pt x="549" y="579" on="0"/>
        <pt x="507" y="597" on="0"/>
        <pt x="458" y="605" on="0"/>
        <pt x="426" y="605" on="1"/>
        <pt x="365" y="605" on="0"/>
        <pt x="282" y="567" on="0"/>
        <pt x="231" y="498" on="0"/>
        <pt x="209" y="404" on="0"/>
        <pt x="209" y="348" on="1"/>
        <pt x="209" y="290" on="0"/>
        <pt x="231" y="195" on="0"/>
        <pt x="284" y="127" on="0"/>
        <pt x="369" y="89" on="0"/>
        <pt x="432" y="89" on="1"/>
        <pt x="438" y="89" on="0"/>
        <pt x="465" y="91" on="0"/>
        <pt x="495" y="94" on="0"/>
        <pt x="520" y="99" on="0"/>
        <pt x="523" y="101" on="1"/>
        <pt x="523" y="229" on="1"/>
        <pt x="439" y="229" on="1"/>
        <pt x="428" y="229" on="0"/>
        <pt x="428" y="239" on="1"/>
        <pt x="428" y="310" on="1"/>
        <pt x="428" y="319" on="0"/>
        <pt x="437" y="324" on="0"/>
        <pt x="443" y="324" on="1"/>
        <pt x="648" y="324" on="1"/>
        <pt x="655" y="324" on="0"/>
        <pt x="660" y="314" on="0"/>
        <pt x="660" y="311" on="1"/>
      </contour>
    </TTGlyph>
    <TTGlyph name="Gamma" xMin="91" yMin="0" xMax="534" yMax="691">
      <contour>
        <pt x="238" y="48" on="1"/>
        <pt x="238" y="22" on="0"/>
        <pt x="219" y="0" on="0"/>
        <pt x="190" y="0" on="1"/>
        <pt x="139" y="0" on="1"/>
        <pt x="111" y="0" on="0"/>
        <pt x="91" y="21" on="0"/>
        <pt x="91" y="48" on="1"/>
        <pt x="91" y="643" on="1"/>
        <pt x="91" y="671" on="0"/>
        <pt x="112" y="691" on="0"/>
        <pt x="139" y="691" on="1"/>
        <pt x="486" y="691" on="1"/>
        <pt x="517" y="691" on="0"/>
        <pt x="534" y="667" on="0"/>
        <pt x="534" y="643" on="1"/>
        <pt x="534" y="635" on="1"/>
        <pt x="534" y="617" on="0"/>
        <pt x="526" y="598" on="0"/>
        <pt x="511" y="589" on="0"/>
        <pt x="491" y="587" on="0"/>
        <pt x="479" y="587" on="1"/>
        <pt x="462" y="587" on="0"/>
        <pt x="405" y="588" on="0"/>
        <pt x="344" y="589" on="0"/>
        <pt x="287" y="590" on="0"/>
        <pt x="270" y="590" on="1"/>
        <pt x="238" y="590" on="1"/>
      </contour>
    </TTGlyph>
    <TTGlyph name="H" xMin="91" yMin="0" xMax="702" yMax="694">
      <contour>
        <pt x="702" y="48" on="1"/>
        <pt x="702" y="22" on="0"/>
        <pt x="683" y="0" on="0"/>
        <pt x="654" y="0" on="1"/>
        <pt x="603" y="0" on="1"/>
        <pt x="572" y="0" on="0"/>
        <pt x="555" y="24" on="0"/>
        <pt x="555" y="48" on="1"/>
        <pt x="555" y="314" on="1"/>
        <pt x="238" y="314" on="1"/>
        <pt x="238" y="48" on="1"/>
        <pt x="238" y="22" on="0"/>
        <pt x="219" y="0" on="0"/>
        <pt x="190" y="0" on="1"/>
        <pt x="139" y="0" on="1"/>
        <pt x="111" y="0" on="0"/>
        <pt x="91" y="21" on="0"/>
        <pt x="91" y="48" on="1"/>
        <pt x="91" y="646" on="1"/>
        <pt x="91" y="674" on="0"/>
        <pt x="112" y="694" on="0"/>
        <pt x="139" y="694" on="1"/>
        <pt x="190" y="694" on="1"/>
        <pt x="221" y="694" on="0"/>
        <pt x="238" y="670" on="0"/>
        <pt x="238" y="646" on="1"/>
        <pt x="238" y="408" on="1"/>
        <pt x="555" y="408" on="1"/>
        <pt x="555" y="646" on="1"/>
        <pt x="555" y="672" on="0"/>
        <pt x="574" y="694" on="0"/>
        <pt x="603" y="694" on="1"/>
        <pt x="654" y="694" on="1"/>
        <pt x="685" y="694" on="0"/>
        <pt x="702" y="670" on="0"/>
        <pt x="702" y="646" on="1"/>
      </contour>
    </TTGlyph>
    <TTGlyph name="I" xMin="92" yMin="0" xMax="239" yMax="694">
      <contour>
        <pt x="239" y="48" on="1"/>
        <pt x="239" y="22" on="0"/>
        <pt x="220" y="0" on="0"/>
        <pt x="191" y="0" on="1"/>
        <pt x="140" y="0" on="1"/>
        <pt x="112" y="0" on="0"/>
        <pt x="92" y="21" on="0"/>
        <pt x="92" y="48" on="1"/>
        <pt x="92" y="646" on="1"/>
        <pt x="92" y="674" on="0"/>
        <pt x="113" y="694" on="0"/>
        <pt x="140" y="694" on="1"/>
        <pt x="191" y="694" on="1"/>
        <pt x="222" y="694" on="0"/>
        <pt x="239" y="670" on="0"/>
        <pt x="239" y="646" on="1"/>
      </contour>
    </TTGlyph>
    <TTGlyph name="J" xMin="46" yMin="-22" xMax="427" yMax="694">
      <contour>
        <pt x="427" y="149" on="1"/>
        <pt x="427" y="105" on="0"/>
        <pt x="397" y="41" on="0"/>
        <pt x="345" y="-1" on="0"/>
        <pt x="275" y="-22" on="0"/>
        <pt x="235" y="-22" on="1"/>
        <pt x="201" y="-22" on="0"/>
        <pt x="116" y="-7" on="0"/>
        <pt x="71" y="13" on="1"/>
        <pt x="57" y="19" on="0"/>
        <pt x="46" y="26" on="0"/>
        <pt x="46" y="33" on="1"/>
        <pt x="46" y="35" on="0"/>
        <pt x="49" y="54" on="0"/>
        <pt x="54" y="80" on="0"/>
        <pt x="59" y="109" on="0"/>
        <pt x="61" y="121" on="1"/>
        <pt x="63" y="129" on="0"/>
        <pt x="67" y="140" on="0"/>
        <pt x="75" y="140" on="1"/>
        <pt x="80" y="140" on="0"/>
        <pt x="85" y="136" on="0"/>
        <pt x="91" y="128" on="1"/>
        <pt x="96" y="121" on="0"/>
        <pt x="114" y="104" on="0"/>
        <pt x="139" y="89" on="0"/>
        <pt x="173" y="78" on="0"/>
        <pt x="195" y="78" on="1"/>
        <pt x="228" y="78" on="0"/>
        <pt x="264" y="96" on="0"/>
        <pt x="280" y="121" on="0"/>
        <pt x="283" y="147" on="0"/>
        <pt x="283" y="155" on="1"/>
        <pt x="283" y="646" on="1"/>
        <pt x="283" y="672" on="0"/>
        <pt x="302" y="694" on="0"/>
        <pt x="331" y="694" on="1"/>
        <pt x="379" y="694" on="1"/>
        <pt x="410" y="694" on="0"/>
        <pt x="427" y="670" on="0"/>
        <pt x="427" y="646" on="1"/>
      </contour>
    </TTGlyph>
    <TTGlyph name="K" xMin="91" yMin="0" xMax="701" yMax="694">
      <contour>
        <pt x="701" y="29" on="1"/>
        <pt x="701" y="7" on="0"/>
        <pt x="682" y="0" on="0"/>
        <pt x="666" y="0" on="1"/>
        <pt x="606" y="0" on="1"/>
        <pt x="592" y="0" on="0"/>
        <pt x="568" y="5" on="0"/>
        <pt x="556" y="21" on="1"/>
        <pt x="332" y="321" on="1"/>
        <pt x="221" y="216" on="1"/>
        <pt x="221" y="48" on="1"/>
        <pt x="221" y="22" on="0"/>
        <pt x="202" y="0" on="0"/>
        <pt x="173" y="0" on="1"/>
        <pt x="139" y="0" on="1"/>
        <pt x="111" y="0" on="0"/>
        <pt x="91" y="21" on="0"/>
        <pt x="91" y="48" on="1"/>
        <pt x="91" y="646" on="1"/>
        <pt x="91" y="674" on="0"/>
        <pt x="112" y="694" on="0"/>
        <pt x="139" y="694" on="1"/>
        <pt x="173" y="694" on="1"/>
        <pt x="204" y="694" on="0"/>
        <pt x="221" y="670" on="0"/>
        <pt x="221" y="646" on="1"/>
        <pt x="221" y="370" on="1"/>
        <pt x="543" y="674" on="1"/>
        <pt x="559" y="689" on="0"/>
        <pt x="588" y="694" on="0"/>
        <pt x="601" y="694" on="1"/>
        <pt x="662" y="694" on="1"/>
        <pt x="673" y="694" on="0"/>
        <pt x="696" y="689" on="0"/>
        <pt x="696" y="673" on="1"/>
        <pt x="696" y="670" on="0"/>
        <pt x="693" y="660" on="0"/>
        <pt x="684" y="652" on="1"/>
        <pt x="421" y="405" on="1"/>
      </contour>
    </TTGlyph>
    <TTGlyph name="L" xMin="91" yMin="0" xMax="534" yMax="694">
      <contour>
        <pt x="487" y="105" on="1"/>
        <pt x="504" y="105" on="0"/>
        <pt x="523" y="96" on="0"/>
        <pt x="532" y="83" on="0"/>
        <pt x="534" y="66" on="0"/>
        <pt x="534" y="57" on="1"/>
        <pt x="534" y="48" on="1"/>
        <pt x="534" y="22" on="0"/>
        <pt x="515" y="0" on="0"/>
        <pt x="486" y="0" on="1"/>
        <pt x="139" y="0" on="1"/>
        <pt x="111" y="0" on="0"/>
        <pt x="91" y="21" on="0"/>
        <pt x="91" y="48" on="1"/>
        <pt x="91" y="646" on="1"/>
        <pt x="91" y="674" on="0"/>
        <pt x="112" y="694" on="0"/>
        <pt x="139" y="694" on="1"/>
        <pt x="190" y="694" on="1"/>
        <pt x="221" y="694" on="0"/>
        <pt x="238" y="670" on="0"/>
        <pt x="238" y="646" on="1"/>
        <pt x="238" y="101" on="1"/>
      </contour>
    </TTGlyph>
    <TTGlyph name="Lambda" xMin="40" yMin="0" xMax="631" yMax="694">
      <contour>
        <pt x="626" y="46" on="1"/>
        <pt x="629" y="36" on="0"/>
        <pt x="631" y="30" on="0"/>
        <pt x="631" y="28" on="1"/>
        <pt x="631" y="18" on="0"/>
        <pt x="622" y="6" on="0"/>
        <pt x="609" y="1" on="0"/>
        <pt x="595" y="0" on="0"/>
        <pt x="590" y="0" on="1"/>
        <pt x="535" y="0" on="1"/>
        <pt x="515" y="0" on="0"/>
        <pt x="483" y="13" on="0"/>
        <pt x="474" y="43" on="1"/>
        <pt x="362" y="416" on="1"/>
        <pt x="356" y="437" on="0"/>
        <pt x="347" y="468" on="0"/>
        <pt x="342" y="491" on="1"/>
        <pt x="341" y="496" on="0"/>
        <pt x="335" y="516" on="0"/>
        <pt x="330" y="538" on="0"/>
        <pt x="326" y="558" on="0"/>
        <pt x="325" y="564" on="1"/>
        <pt x="324" y="564" on="1"/>
        <pt x="324" y="559" on="0"/>
        <pt x="322" y="546" on="0"/>
        <pt x="317" y="524" on="0"/>
        <pt x="308" y="488" on="0"/>
        <pt x="300" y="459" on="1"/>
        <pt x="262" y="324" on="1"/>
        <pt x="177" y="43" on="1"/>
        <pt x="168" y="13" on="0"/>
        <pt x="136" y="0" on="0"/>
        <pt x="116" y="0" on="1"/>
        <pt x="81" y="0" on="1"/>
        <pt x="76" y="0" on="0"/>
        <pt x="62" y="1" on="0"/>
        <pt x="49" y="6" on="0"/>
        <pt x="40" y="18" on="0"/>
        <pt x="40" y="28" on="1"/>
        <pt x="40" y="30" on="0"/>
        <pt x="42" y="36" on="0"/>
        <pt x="45" y="46" on="1"/>
        <pt x="231" y="651" on="1"/>
        <pt x="240" y="681" on="0"/>
        <pt x="272" y="694" on="0"/>
        <pt x="292" y="694" on="1"/>
        <pt x="379" y="694" on="1"/>
        <pt x="400" y="694" on="0"/>
        <pt x="431" y="680" on="0"/>
        <pt x="440" y="651" on="1"/>
      </contour>
    </TTGlyph>
    <TTGlyph name="M" xMin="91" yMin="0" xMax="886" yMax="694">
      <contour>
        <pt x="687" y="651" on="1"/>
        <pt x="700" y="682" on="0"/>
        <pt x="735" y="694" on="0"/>
        <pt x="754" y="694" on="1"/>
        <pt x="838" y="694" on="1"/>
        <pt x="869" y="694" on="0"/>
        <pt x="886" y="670" on="0"/>
        <pt x="886" y="646" on="1"/>
        <pt x="886" y="48" on="1"/>
        <pt x="886" y="22" on="0"/>
        <pt x="867" y="0" on="0"/>
        <pt x="838" y="0" on="1"/>
        <pt x="811" y="0" on="1"/>
        <pt x="780" y="0" on="0"/>
        <pt x="763" y="24" on="0"/>
        <pt x="763" y="48" on="1"/>
        <pt x="763" y="565" on="1"/>
        <pt x="762" y="565" on="1"/>
        <pt x="760" y="559" on="0"/>
        <pt x="750" y="529" on="0"/>
        <pt x="736" y="492" on="0"/>
        <pt x="720" y="451" on="0"/>
        <pt x="705" y="414" on="0"/>
        <pt x="693" y="385" on="0"/>
        <pt x="691" y="379" on="1"/>
        <pt x="563" y="65" on="1"/>
        <pt x="556" y="49" on="0"/>
        <pt x="540" y="31" on="0"/>
        <pt x="522" y="23" on="0"/>
        <pt x="500" y="22" on="0"/>
        <pt x="487" y="22" on="1"/>
        <pt x="474" y="22" on="0"/>
        <pt x="452" y="23" on="0"/>
        <pt x="434" y="31" on="0"/>
        <pt x="418" y="49" on="0"/>
        <pt x="411" y="65" on="1"/>
        <pt x="295" y="350" on="1"/>
        <pt x="286" y="372" on="0"/>
        <pt x="262" y="432" on="0"/>
        <pt x="238" y="493" on="0"/>
        <pt x="219" y="548" on="0"/>
        <pt x="215" y="565" on="1"/>
        <pt x="214" y="565" on="1"/>
        <pt x="214" y="48" on="1"/>
        <pt x="214" y="22" on="0"/>
        <pt x="195" y="0" on="0"/>
        <pt x="166" y="0" on="1"/>
        <pt x="139" y="0" on="1"/>
        <pt x="111" y="0" on="0"/>
        <pt x="91" y="21" on="0"/>
        <pt x="91" y="48" on="1"/>
        <pt x="91" y="646" on="1"/>
        <pt x="91" y="674" on="0"/>
        <pt x="112" y="694" on="0"/>
        <pt x="139" y="694" on="1"/>
        <pt x="222" y="694" on="1"/>
        <pt x="229" y="694" on="0"/>
        <pt x="247" y="693" on="0"/>
        <pt x="265" y="685" on="0"/>
        <pt x="283" y="668" on="0"/>
        <pt x="289" y="653" on="1"/>
        <pt x="417" y="337" on="1"/>
        <pt x="425" y="317" on="0"/>
        <pt x="447" y="264" on="0"/>
        <pt x="468" y="210" on="0"/>
        <pt x="485" y="163" on="0"/>
        <pt x="488" y="149" on="1"/>
        <pt x="489" y="149" on="1"/>
        <pt x="492" y="162" on="0"/>
        <pt x="507" y="207" on="0"/>
        <pt x="527" y="257" on="0"/>
        <pt x="547" y="308" on="0"/>
        <pt x="555" y="327" on="1"/>
      </contour>
    </TTGlyph>
    <TTGlyph name="N" xMin="91" yMin="0" xMax="702" yMax="694">
      <contour>
        <pt x="578" y="121" on="1"/>
        <pt x="579" y="121" on="1"/>
        <pt x="579" y="646" on="1"/>
        <pt x="579" y="672" on="0"/>
        <pt x="598" y="694" on="0"/>
        <pt x="627" y="694" on="1"/>
        <pt x="654" y="694" on="1"/>
        <pt x="685" y="694" on="0"/>
        <pt x="702" y="670" on="0"/>
        <pt x="702" y="646" on="1"/>
        <pt x="702" y="48" on="1"/>
        <pt x="702" y="22" on="0"/>
        <pt x="683" y="0" on="0"/>
        <pt x="654" y="0" on="1"/>
        <pt x="561" y="0" on="1"/>
        <pt x="546" y="0" on="0"/>
        <pt x="506" y="10" on="0"/>
        <pt x="490" y="40" on="1"/>
        <pt x="215" y="573" on="1"/>
        <pt x="214" y="573" on="1"/>
        <pt x="214" y="48" on="1"/>
        <pt x="214" y="22" on="0"/>
        <pt x="195" y="0" on="0"/>
        <pt x="166" y="0" on="1"/>
        <pt x="139" y="0" on="1"/>
        <pt x="111" y="0" on="0"/>
        <pt x="91" y="21" on="0"/>
        <pt x="91" y="48" on="1"/>
        <pt x="91" y="646" on="1"/>
        <pt x="91" y="674" on="0"/>
        <pt x="112" y="694" on="0"/>
        <pt x="139" y="694" on="1"/>
        <pt x="232" y="694" on="1"/>
        <pt x="247" y="694" on="0"/>
        <pt x="287" y="684" on="0"/>
        <pt x="303" y="654" on="1"/>
      </contour>
    </TTGlyph>
    <TTGlyph name="O" xMin="61" yMin="-22" xMax="732" yMax="716">
      <contour>
        <pt x="732" y="342" on="1"/>
        <pt x="732" y="265" on="0"/>
        <pt x="700" y="132" on="0"/>
        <pt x="622" y="34" on="0"/>
        <pt x="493" y="-22" on="0"/>
        <pt x="396" y="-22" on="1"/>
        <pt x="295" y="-22" on="0"/>
        <pt x="165" y="39" on="0"/>
        <pt x="90" y="141" on="0"/>
        <pt x="61" y="272" on="0"/>
        <pt x="61" y="342" on="1"/>
        <pt x="61" y="411" on="0"/>
        <pt x="88" y="545" on="0"/>
        <pt x="162" y="651" on="0"/>
        <pt x="293" y="716" on="0"/>
        <pt x="397" y="716" on="1"/>
        <pt x="495" y="716" on="0"/>
        <pt x="625" y="656" on="0"/>
        <pt x="701" y="553" on="0"/>
        <pt x="732" y="417" on="0"/>
      </contour>
      <contour>
        <pt x="397" y="58" on="1"/>
        <pt x="444" y="58" on="0"/>
        <pt x="508" y="90" on="0"/>
        <pt x="550" y="142" on="0"/>
        <pt x="573" y="207" on="0"/>
        <pt x="583" y="274" on="0"/>
        <pt x="585" y="336" on="0"/>
        <pt x="585" y="358" on="1"/>
        <pt x="585" y="381" on="0"/>
        <pt x="583" y="439" on="0"/>
        <pt x="573" y="502" on="0"/>
        <pt x="550" y="562" on="0"/>
        <pt x="508" y="609" on="0"/>
        <pt x="443" y="638" on="0"/>
        <pt x="396" y="638" on="1"/>
        <pt x="349" y="638" on="0"/>
        <pt x="285" y="609" on="0"/>
        <pt x="243" y="561" on="0"/>
        <pt x="220" y="501" on="0"/>
        <pt x="210" y="439" on="0"/>
        <pt x="208" y="380" on="0"/>
        <pt x="208" y="358" on="1"/>
        <pt x="208" y="335" on="0"/>
        <pt x="210" y="273" on="0"/>
        <pt x="220" y="206" on="0"/>
        <pt x="243" y="141" on="0"/>
        <pt x="285" y="90" on="0"/>
        <pt x="350" y="58" on="0"/>
      </contour>
    </TTGlyph>
    <TTGlyph name="OE" xMin="30" yMin="-22" xMax="1022" yMax="716">
      <contour>
        <pt x="664" y="106" on="1"/>
        <pt x="670" y="106" on="0"/>
        <pt x="711" y="107" on="0"/>
        <pt x="758" y="108" on="0"/>
        <pt x="802" y="108" on="0"/>
        <pt x="811" y="108" on="1"/>
        <pt x="850" y="108" on="0"/>
        <pt x="927" y="110" on="0"/>
        <pt x="966" y="110" on="1"/>
        <pt x="978" y="110" on="0"/>
        <pt x="999" y="109" on="0"/>
        <pt x="1014" y="100" on="0"/>
        <pt x="1022" y="80" on="0"/>
        <pt x="1022" y="62" on="1"/>
        <pt x="1022" y="48" on="1"/>
        <pt x="1022" y="22" on="0"/>
        <pt x="1003" y="0" on="0"/>
        <pt x="974" y="0" on="1"/>
        <pt x="592" y="0" on="1"/>
        <pt x="569" y="0" on="0"/>
        <pt x="526" y="-6" on="0"/>
        <pt x="497" y="-11" on="1"/>
        <pt x="472" y="-15" on="0"/>
        <pt x="438" y="-20" on="0"/>
        <pt x="415" y="-22" on="0"/>
        <pt x="399" y="-22" on="0"/>
        <pt x="391" y="-22" on="1"/>
        <pt x="298" y="-22" on="0"/>
        <pt x="161" y="27" on="0"/>
        <pt x="73" y="120" on="0"/>
        <pt x="30" y="256" on="0"/>
        <pt x="30" y="342" on="1"/>
        <pt x="30" y="430" on="0"/>
        <pt x="72" y="569" on="0"/>
        <pt x="160" y="665" on="0"/>
        <pt x="297" y="716" on="0"/>
        <pt x="392" y="716" on="1"/>
        <pt x="399" y="716" on="0"/>
        <pt x="414" y="716" on="0"/>
        <pt x="435" y="714" on="0"/>
        <pt x="464" y="710" on="0"/>
        <pt x="485" y="706" on="1"/>
        <pt x="511" y="702" on="0"/>
        <pt x="545" y="697" on="0"/>
        <pt x="569" y="695" on="0"/>
        <pt x="585" y="694" on="0"/>
        <pt x="592" y="694" on="1"/>
        <pt x="959" y="694" on="1"/>
        <pt x="990" y="694" on="0"/>
        <pt x="1007" y="670" on="0"/>
        <pt x="1007" y="646" on="1"/>
        <pt x="1007" y="638" on="1"/>
        <pt x="1007" y="620" on="0"/>
        <pt x="999" y="601" on="0"/>
        <pt x="984" y="592" on="0"/>
        <pt x="962" y="590" on="0"/>
        <pt x="949" y="590" on="1"/>
        <pt x="890" y="590" on="0"/>
        <pt x="773" y="593" on="0"/>
        <pt x="714" y="593" on="1"/>
        <pt x="664" y="593" on="1"/>
        <pt x="664" y="406" on="1"/>
        <pt x="928" y="406" on="1"/>
        <pt x="954" y="406" on="0"/>
        <pt x="976" y="387" on="0"/>
        <pt x="976" y="359" on="1"/>
        <pt x="976" y="329" on="0"/>
        <pt x="951" y="312" on="0"/>
        <pt x="928" y="312" on="1"/>
        <pt x="664" y="312" on="1"/>
      </contour>
      <contour>
        <pt x="519" y="347" on="1"/>
        <pt x="519" y="418" on="0"/>
        <pt x="518" y="529" on="0"/>
        <pt x="515" y="552" on="1"/>
        <pt x="511" y="579" on="0"/>
        <pt x="497" y="615" on="0"/>
        <pt x="471" y="636" on="0"/>
        <pt x="430" y="644" on="0"/>
        <pt x="400" y="644" on="1"/>
        <pt x="345" y="644" on="0"/>
        <pt x="269" y="614" on="0"/>
        <pt x="219" y="564" on="0"/>
        <pt x="190" y="502" on="0"/>
        <pt x="177" y="439" on="0"/>
        <pt x="174" y="380" on="0"/>
        <pt x="174" y="359" on="1"/>
        <pt x="174" y="337" on="0"/>
        <pt x="177" y="274" on="0"/>
        <pt x="191" y="205" on="0"/>
        <pt x="219" y="137" on="0"/>
        <pt x="269" y="83" on="0"/>
        <pt x="346" y="50" on="0"/>
        <pt x="401" y="50" on="1"/>
        <pt x="440" y="50" on="0"/>
        <pt x="486" y="66" on="0"/>
        <pt x="511" y="107" on="0"/>
        <pt x="519" y="179" on="0"/>
        <pt x="519" y="235" on="1"/>
      </contour>
    </TTGlyph>
    <TTGlyph name="Oslash" xMin="61" yMin="-86" xMax="794" yMax="780">
      <contour>
        <pt x="242" y="-50" on="1"/>
        <pt x="232" y="-68" on="0"/>
        <pt x="216" y="-86" on="0"/>
        <pt x="201" y="-86" on="1"/>
        <pt x="196" y="-86" on="0"/>
        <pt x="181" y="-82" on="0"/>
        <pt x="168" y="-72" on="0"/>
        <pt x="159" y="-58" on="0"/>
        <pt x="159" y="-47" on="1"/>
        <pt x="159" y="-39" on="0"/>
        <pt x="166" y="-25" on="0"/>
        <pt x="177" y="-6" on="1"/>
        <pt x="180" y="-1" on="0"/>
        <pt x="184" y="6" on="0"/>
        <pt x="189" y="14" on="0"/>
        <pt x="194" y="24" on="0"/>
        <pt x="199" y="32" on="1"/>
        <pt x="171" y="50" on="0"/>
        <pt x="121" y="102" on="0"/>
        <pt x="83" y="175" on="0"/>
        <pt x="61" y="275" on="0"/>
        <pt x="61" y="342" on="1"/>
        <pt x="61" y="716" on="0"/>
        <pt x="428" y="716" on="1"/>
        <pt x="451" y="716" on="0"/>
        <pt x="533" y="710" on="0"/>
        <pt x="583" y="694" on="1"/>
        <pt x="613" y="744" on="1"/>
        <pt x="624" y="762" on="0"/>
        <pt x="639" y="780" on="0"/>
        <pt x="654" y="780" on="1"/>
        <pt x="659" y="780" on="0"/>
        <pt x="674" y="776" on="0"/>
        <pt x="687" y="766" on="0"/>
        <pt x="696" y="752" on="0"/>
        <pt x="696" y="741" on="1"/>
        <pt x="696" y="733" on="0"/>
        <pt x="688" y="717" on="0"/>
        <pt x="677" y="699" on="1"/>
        <pt x="671" y="690" on="0"/>
        <pt x="660" y="671" on="0"/>
        <pt x="655" y="661" on="1"/>
        <pt x="705" y="630" on="0"/>
        <pt x="761" y="541" on="0"/>
        <pt x="788" y="449" on="0"/>
        <pt x="794" y="366" on="0"/>
        <pt x="794" y="342" on="1"/>
        <pt x="794" y="155" on="0"/>
        <pt x="606" y="-22" on="0"/>
        <pt x="427" y="-22" on="1"/>
        <pt x="409" y="-22" on="0"/>
        <pt x="326" y="-17" on="0"/>
        <pt x="271" y="-1" on="1"/>
      </contour>
      <contour>
        <pt x="542" y="623" on="1"/>
        <pt x="515" y="634" on="0"/>
        <pt x="456" y="644" on="0"/>
        <pt x="427" y="644" on="1"/>
        <pt x="369" y="644" on="0"/>
        <pt x="288" y="614" on="0"/>
        <pt x="236" y="566" on="0"/>
        <pt x="207" y="502" on="0"/>
        <pt x="194" y="436" on="0"/>
        <pt x="191" y="370" on="0"/>
        <pt x="191" y="343" on="1"/>
        <pt x="191" y="277" on="0"/>
        <pt x="210" y="161" on="0"/>
        <pt x="248" y="116" on="1"/>
      </contour>
      <contour>
        <pt x="312" y="70" on="1"/>
        <pt x="331" y="63" on="0"/>
        <pt x="367" y="54" on="0"/>
        <pt x="399" y="51" on="0"/>
        <pt x="422" y="50" on="0"/>
        <pt x="428" y="50" on="1"/>
        <pt x="486" y="50" on="0"/>
        <pt x="566" y="78" on="0"/>
        <pt x="619" y="125" on="0"/>
        <pt x="647" y="185" on="0"/>
        <pt x="661" y="250" on="0"/>
        <pt x="664" y="315" on="0"/>
        <pt x="664" y="343" on="1"/>
        <pt x="664" y="372" on="0"/>
        <pt x="661" y="434" on="0"/>
        <pt x="649" y="495" on="0"/>
        <pt x="626" y="552" on="0"/>
        <pt x="606" y="576" on="1"/>
      </contour>
    </TTGlyph>
    <TTGlyph name="P" xMin="91" yMin="0" xMax="641" yMax="694">
      <contour>
        <pt x="238" y="48" on="1"/>
        <pt x="238" y="22" on="0"/>
        <pt x="219" y="0" on="0"/>
        <pt x="190" y="0" on="1"/>
        <pt x="139" y="0" on="1"/>
        <pt x="111" y="0" on="0"/>
        <pt x="91" y="21" on="0"/>
        <pt x="91" y="48" on="1"/>
        <pt x="91" y="646" on="1"/>
        <pt x="91" y="674" on="0"/>
        <pt x="112" y="694" on="0"/>
        <pt x="139" y="694" on="1"/>
        <pt x="389" y="694" on="1"/>
        <pt x="447" y="694" on="0"/>
        <pt x="540" y="669" on="0"/>
        <pt x="606" y="616" on="0"/>
        <pt x="641" y="535" on="0"/>
        <pt x="641" y="478" on="1"/>
        <pt x="641" y="370" on="0"/>
        <pt x="508" y="268" on="0"/>
        <pt x="390" y="268" on="1"/>
        <pt x="238" y="268" on="1"/>
      </contour>
      <contour>
        <pt x="235" y="608" on="1"/>
        <pt x="235" y="347" on="1"/>
        <pt x="357" y="347" on="1"/>
        <pt x="407" y="347" on="0"/>
        <pt x="465" y="369" on="0"/>
        <pt x="494" y="406" on="0"/>
        <pt x="502" y="453" on="0"/>
        <pt x="502" y="478" on="1"/>
        <pt x="502" y="504" on="0"/>
        <pt x="494" y="551" on="0"/>
        <pt x="464" y="587" on="0"/>
        <pt x="407" y="608" on="0"/>
        <pt x="358" y="608" on="1"/>
      </contour>
    </TTGlyph>
    <TTGlyph name="Phi" xMin="61" yMin="0" xMax="732" yMax="694">
      <contour>
        <pt x="464" y="588" on="1"/>
        <pt x="514" y="584" on="0"/>
        <pt x="611" y="557" on="0"/>
        <pt x="686" y="501" on="0"/>
        <pt x="732" y="412" on="0"/>
        <pt x="732" y="347" on="1"/>
        <pt x="732" y="281" on="0"/>
        <pt x="685" y="192" on="0"/>
        <pt x="610" y="137" on="0"/>
        <pt x="514" y="110" on="0"/>
        <pt x="464" y="106" on="1"/>
        <pt x="464" y="48" on="1"/>
        <pt x="464" y="22" on="0"/>
        <pt x="445" y="0" on="0"/>
        <pt x="416" y="0" on="1"/>
        <pt x="371" y="0" on="1"/>
        <pt x="343" y="0" on="0"/>
        <pt x="323" y="21" on="0"/>
        <pt x="323" y="48" on="1"/>
        <pt x="323" y="107" on="1"/>
        <pt x="274" y="111" on="0"/>
        <pt x="180" y="139" on="0"/>
        <pt x="106" y="194" on="0"/>
        <pt x="61" y="282" on="0"/>
        <pt x="61" y="347" on="1"/>
        <pt x="61" y="412" on="0"/>
        <pt x="107" y="500" on="0"/>
        <pt x="181" y="556" on="0"/>
        <pt x="275" y="583" on="0"/>
        <pt x="323" y="587" on="1"/>
        <pt x="323" y="646" on="1"/>
        <pt x="323" y="674" on="0"/>
        <pt x="344" y="694" on="0"/>
        <pt x="371" y="694" on="1"/>
        <pt x="416" y="694" on="1"/>
        <pt x="447" y="694" on="0"/>
        <pt x="464" y="670" on="0"/>
        <pt x="464" y="646" on="1"/>
      </contour>
      <contour>
        <pt x="323" y="513" on="1"/>
        <pt x="282" y="506" on="0"/>
        <pt x="235" y="469" on="0"/>
        <pt x="211" y="422" on="0"/>
        <pt x="205" y="370" on="0"/>
        <pt x="205" y="347" on="1"/>
        <pt x="205" y="324" on="0"/>
        <pt x="211" y="272" on="0"/>
        <pt x="234" y="225" on="0"/>
        <pt x="281" y="189" on="0"/>
        <pt x="323" y="181" on="1"/>
      </contour>
      <contour>
        <pt x="464" y="180" on="1"/>
        <pt x="508" y="187" on="0"/>
        <pt x="558" y="224" on="0"/>
        <pt x="582" y="273" on="0"/>
        <pt x="588" y="325" on="0"/>
        <pt x="588" y="347" on="1"/>
        <pt x="588" y="369" on="0"/>
        <pt x="583" y="421" on="0"/>
        <pt x="559" y="470" on="0"/>
        <pt x="509" y="507" on="0"/>
        <pt x="464" y="514" on="1"/>
      </contour>
    </TTGlyph>
    <TTGlyph name="Pi" xMin="91" yMin="0" xMax="702" yMax="691">
      <contour>
        <pt x="702" y="48" on="1"/>
        <pt x="702" y="22" on="0"/>
        <pt x="683" y="0" on="0"/>
        <pt x="654" y="0" on="1"/>
        <pt x="603" y="0" on="1"/>
        <pt x="572" y="0" on="0"/>
        <pt x="555" y="24" on="0"/>
        <pt x="555" y="48" on="1"/>
        <pt x="555" y="597" on="1"/>
        <pt x="238" y="597" on="1"/>
        <pt x="238" y="48" on="1"/>
        <pt x="238" y="22" on="0"/>
        <pt x="219" y="0" on="0"/>
        <pt x="190" y="0" on="1"/>
        <pt x="139" y="0" on="1"/>
        <pt x="111" y="0" on="0"/>
        <pt x="91" y="21" on="0"/>
        <pt x="91" y="48" on="1"/>
        <pt x="91" y="643" on="1"/>
        <pt x="91" y="671" on="0"/>
        <pt x="112" y="691" on="0"/>
        <pt x="139" y="691" on="1"/>
        <pt x="654" y="691" on="1"/>
        <pt x="685" y="691" on="0"/>
        <pt x="702" y="667" on="0"/>
        <pt x="702" y="643" on="1"/>
      </contour>
    </TTGlyph>
    <TTGlyph name="Psi" xMin="61" yMin="0" xMax="794" yMax="694">
      <contour>
        <pt x="495" y="187" on="1"/>
        <pt x="531" y="198" on="0"/>
        <pt x="574" y="247" on="0"/>
        <pt x="595" y="311" on="0"/>
        <pt x="601" y="382" on="0"/>
        <pt x="601" y="414" on="1"/>
        <pt x="601" y="453" on="0"/>
        <pt x="604" y="527" on="0"/>
        <pt x="622" y="584" on="0"/>
        <pt x="662" y="619" on="0"/>
        <pt x="698" y="619" on="1"/>
        <pt x="746" y="619" on="1"/>
        <pt x="751" y="619" on="0"/>
        <pt x="767" y="618" on="0"/>
        <pt x="782" y="611" on="0"/>
        <pt x="794" y="597" on="0"/>
        <pt x="794" y="583" on="1"/>
        <pt x="794" y="581" on="0"/>
        <pt x="792" y="570" on="0"/>
        <pt x="785" y="558" on="0"/>
        <pt x="770" y="548" on="0"/>
        <pt x="757" y="547" on="1"/>
        <pt x="746" y="527" on="0"/>
        <pt x="742" y="460" on="0"/>
        <pt x="742" y="422" on="1"/>
        <pt x="742" y="404" on="0"/>
        <pt x="740" y="347" on="0"/>
        <pt x="726" y="282" on="0"/>
        <pt x="696" y="214" on="0"/>
        <pt x="641" y="157" on="0"/>
        <pt x="557" y="115" on="0"/>
        <pt x="495" y="108" on="1"/>
        <pt x="495" y="48" on="1"/>
        <pt x="495" y="22" on="0"/>
        <pt x="476" y="0" on="0"/>
        <pt x="447" y="0" on="1"/>
        <pt x="402" y="0" on="1"/>
        <pt x="374" y="0" on="0"/>
        <pt x="354" y="21" on="0"/>
        <pt x="354" y="48" on="1"/>
        <pt x="354" y="108" on="1"/>
        <pt x="294" y="116" on="0"/>
        <pt x="212" y="157" on="0"/>
        <pt x="158" y="215" on="0"/>
        <pt x="129" y="282" on="0"/>
        <pt x="115" y="349" on="0"/>
        <pt x="113" y="411" on="0"/>
        <pt x="113" y="433" on="1"/>
        <pt x="113" y="485" on="0"/>
        <pt x="106" y="533" on="0"/>
        <pt x="98" y="547" on="1"/>
        <pt x="85" y="548" on="0"/>
        <pt x="70" y="558" on="0"/>
        <pt x="63" y="570" on="0"/>
        <pt x="61" y="581" on="0"/>
        <pt x="61" y="583" on="1"/>
        <pt x="61" y="597" on="0"/>
        <pt x="73" y="611" on="0"/>
        <pt x="89" y="618" on="0"/>
        <pt x="105" y="619" on="0"/>
        <pt x="109" y="619" on="1"/>
        <pt x="157" y="619" on="1"/>
        <pt x="215" y="619" on="0"/>
        <pt x="254" y="530" on="0"/>
        <pt x="254" y="438" on="1"/>
        <pt x="254" y="403" on="0"/>
        <pt x="257" y="326" on="0"/>
        <pt x="276" y="256" on="0"/>
        <pt x="317" y="200" on="0"/>
        <pt x="354" y="187" on="1"/>
        <pt x="354" y="646" on="1"/>
        <pt x="354" y="674" on="0"/>
        <pt x="375" y="694" on="0"/>
        <pt x="402" y="694" on="1"/>
        <pt x="447" y="694" on="1"/>
        <pt x="478" y="694" on="0"/>
        <pt x="495" y="670" on="0"/>
        <pt x="495" y="646" on="1"/>
      </contour>
    </TTGlyph>
    <TTGlyph name="Q" xMin="61" yMin="-106" xMax="732" yMax="716">
      <contour>
        <pt x="562" y="-106" on="1"/>
        <pt x="550" y="-106" on="0"/>
        <pt x="535" y="-104" on="0"/>
        <pt x="523" y="-97" on="0"/>
        <pt x="513" y="-83" on="0"/>
        <pt x="505" y="-71" on="1"/>
        <pt x="495" y="-57" on="0"/>
        <pt x="477" y="-31" on="0"/>
        <pt x="468" y="-17" on="1"/>
        <pt x="444" y="-21" on="0"/>
        <pt x="409" y="-22" on="0"/>
        <pt x="396" y="-22" on="1"/>
        <pt x="295" y="-22" on="0"/>
        <pt x="165" y="39" on="0"/>
        <pt x="90" y="141" on="0"/>
        <pt x="61" y="272" on="0"/>
        <pt x="61" y="342" on="1"/>
        <pt x="61" y="411" on="0"/>
        <pt x="88" y="545" on="0"/>
        <pt x="162" y="651" on="0"/>
        <pt x="293" y="716" on="0"/>
        <pt x="397" y="716" on="1"/>
        <pt x="495" y="716" on="0"/>
        <pt x="625" y="656" on="0"/>
        <pt x="701" y="553" on="0"/>
        <pt x="732" y="417" on="0"/>
        <pt x="732" y="342" on="1"/>
        <pt x="732" y="315" on="0"/>
        <pt x="726" y="232" on="0"/>
        <pt x="699" y="142" on="0"/>
        <pt x="646" y="57" on="0"/>
        <pt x="598" y="28" on="1"/>
        <pt x="663" y="-56" on="1"/>
        <pt x="673" y="-70" on="0"/>
        <pt x="678" y="-78" on="0"/>
        <pt x="678" y="-84" on="1"/>
        <pt x="678" y="-92" on="0"/>
        <pt x="670" y="-101" on="0"/>
        <pt x="659" y="-105" on="0"/>
        <pt x="647" y="-106" on="0"/>
        <pt x="642" y="-106" on="1"/>
      </contour>
      <contour>
        <pt x="443" y="194" on="1"/>
        <pt x="458" y="194" on="0"/>
        <pt x="469" y="191" on="0"/>
        <pt x="477" y="183" on="1"/>
        <pt x="532" y="112" on="1"/>
        <pt x="553" y="136" on="0"/>
        <pt x="576" y="196" on="0"/>
        <pt x="586" y="259" on="0"/>
        <pt x="588" y="319" on="0"/>
        <pt x="588" y="343" on="1"/>
        <pt x="588" y="365" on="0"/>
        <pt x="586" y="426" on="0"/>
        <pt x="576" y="492" on="0"/>
        <pt x="552" y="556" on="0"/>
        <pt x="510" y="607" on="0"/>
        <pt x="444" y="638" on="0"/>
        <pt x="396" y="638" on="1"/>
        <pt x="348" y="638" on="0"/>
        <pt x="283" y="607" on="0"/>
        <pt x="240" y="556" on="0"/>
        <pt x="217" y="491" on="0"/>
        <pt x="207" y="426" on="0"/>
        <pt x="205" y="365" on="0"/>
        <pt x="205" y="343" on="1"/>
        <pt x="205" y="321" on="0"/>
        <pt x="207" y="261" on="0"/>
        <pt x="217" y="197" on="0"/>
        <pt x="240" y="135" on="0"/>
        <pt x="283" y="86" on="0"/>
        <pt x="348" y="56" on="0"/>
        <pt x="396" y="56" on="1"/>
        <pt x="399" y="56" on="0"/>
        <pt x="416" y="56" on="0"/>
        <pt x="416" y="58" on="1"/>
        <pt x="416" y="59" on="0"/>
        <pt x="411" y="68" on="0"/>
        <pt x="404" y="79" on="0"/>
        <pt x="397" y="88" on="0"/>
        <pt x="396" y="90" on="1"/>
        <pt x="389" y="99" on="0"/>
        <pt x="372" y="124" on="0"/>
        <pt x="357" y="148" on="0"/>
        <pt x="346" y="167" on="0"/>
        <pt x="346" y="171" on="1"/>
        <pt x="346" y="188" on="0"/>
        <pt x="371" y="194" on="0"/>
        <pt x="382" y="194" on="1"/>
      </contour>
    </TTGlyph>
    <TTGlyph name="R" xMin="91" yMin="0" xMax="653" yMax="694">
      <contour>
        <pt x="653" y="30" on="1"/>
        <pt x="653" y="7" on="0"/>
        <pt x="631" y="0" on="0"/>
        <pt x="616" y="0" on="1"/>
        <pt x="557" y="0" on="1"/>
        <pt x="540" y="0" on="0"/>
        <pt x="521" y="6" on="0"/>
        <pt x="510" y="24" on="1"/>
        <pt x="346" y="311" on="1"/>
        <pt x="235" y="311" on="1"/>
        <pt x="235" y="48" on="1"/>
        <pt x="235" y="22" on="0"/>
        <pt x="216" y="0" on="0"/>
        <pt x="187" y="0" on="1"/>
        <pt x="139" y="0" on="1"/>
        <pt x="111" y="0" on="0"/>
        <pt x="91" y="21" on="0"/>
        <pt x="91" y="48" on="1"/>
        <pt x="91" y="646" on="1"/>
        <pt x="91" y="674" on="0"/>
        <pt x="112" y="694" on="0"/>
        <pt x="139" y="694" on="1"/>
        <pt x="379" y="694" on="1"/>
        <pt x="390" y="694" on="0"/>
        <pt x="438" y="692" on="0"/>
        <pt x="496" y="681" on="0"/>
        <pt x="558" y="658" on="0"/>
        <pt x="608" y="614" on="0"/>
        <pt x="641" y="546" on="0"/>
        <pt x="641" y="497" on="1"/>
        <pt x="641" y="451" on="0"/>
        <pt x="609" y="388" on="0"/>
        <pt x="562" y="347" on="0"/>
        <pt x="507" y="326" on="0"/>
        <pt x="483" y="320" on="1"/>
      </contour>
      <contour>
        <pt x="365" y="383" on="1"/>
        <pt x="411" y="383" on="0"/>
        <pt x="465" y="402" on="0"/>
        <pt x="494" y="433" on="0"/>
        <pt x="502" y="474" on="0"/>
        <pt x="502" y="496" on="1"/>
        <pt x="502" y="521" on="0"/>
        <pt x="492" y="562" on="0"/>
        <pt x="462" y="592" on="0"/>
        <pt x="409" y="608" on="0"/>
        <pt x="365" y="608" on="1"/>
        <pt x="235" y="608" on="1"/>
        <pt x="235" y="383" on="1"/>
      </contour>
    </TTGlyph>
    <TTGlyph name="S" xMin="49" yMin="-22" xMax="549" yMax="716">
      <contour>
        <pt x="366" y="419" on="1"/>
        <pt x="404" y="410" on="0"/>
        <pt x="470" y="371" on="0"/>
        <pt x="520" y="314" on="0"/>
        <pt x="549" y="242" on="0"/>
        <pt x="549" y="200" on="1"/>
        <pt x="549" y="84" on="0"/>
        <pt x="418" y="-22" on="0"/>
        <pt x="305" y="-22" on="1"/>
        <pt x="285" y="-22" on="0"/>
        <pt x="209" y="-15" on="0"/>
        <pt x="158" y="1" on="1"/>
        <pt x="156" y="2" on="0"/>
        <pt x="122" y="14" on="0"/>
        <pt x="82" y="32" on="0"/>
        <pt x="49" y="52" on="0"/>
        <pt x="49" y="60" on="1"/>
        <pt x="49" y="62" on="0"/>
        <pt x="49" y="67" on="0"/>
        <pt x="51" y="73" on="1"/>
        <pt x="66" y="160" on="1"/>
        <pt x="68" y="171" on="0"/>
        <pt x="75" y="178" on="0"/>
        <pt x="80" y="178" on="1"/>
        <pt x="83" y="178" on="0"/>
        <pt x="89" y="175" on="0"/>
        <pt x="98" y="166" on="1"/>
        <pt x="136" y="132" on="0"/>
        <pt x="242" y="87" on="0"/>
        <pt x="305" y="87" on="1"/>
        <pt x="317" y="87" on="0"/>
        <pt x="358" y="91" on="0"/>
        <pt x="396" y="110" on="0"/>
        <pt x="424" y="149" on="0"/>
        <pt x="424" y="184" on="1"/>
        <pt x="424" y="213" on="0"/>
        <pt x="401" y="245" on="0"/>
        <pt x="393" y="253" on="1"/>
        <pt x="385" y="261" on="0"/>
        <pt x="367" y="271" on="0"/>
        <pt x="344" y="279" on="0"/>
        <pt x="314" y="286" on="0"/>
        <pt x="293" y="291" on="1"/>
        <pt x="264" y="298" on="0"/>
        <pt x="216" y="310" on="0"/>
        <pt x="174" y="327" on="0"/>
        <pt x="136" y="352" on="0"/>
        <pt x="117" y="371" on="1"/>
        <pt x="110" y="379" on="0"/>
        <pt x="91" y="403" on="0"/>
        <pt x="73" y="438" on="0"/>
        <pt x="61" y="481" on="0"/>
        <pt x="61" y="508" on="1"/>
        <pt x="61" y="578" on="0"/>
        <pt x="112" y="661" on="0"/>
        <pt x="187" y="704" on="0"/>
        <pt x="272" y="716" on="0"/>
        <pt x="305" y="716" on="1"/>
        <pt x="343" y="716" on="0"/>
        <pt x="432" y="702" on="0"/>
        <pt x="486" y="676" on="1"/>
        <pt x="505" y="666" on="0"/>
        <pt x="512" y="660" on="0"/>
        <pt x="512" y="654" on="1"/>
        <pt x="512" y="652" on="0"/>
        <pt x="512" y="647" on="0"/>
        <pt x="510" y="641" on="1"/>
        <pt x="495" y="554" on="1"/>
        <pt x="493" y="543" on="0"/>
        <pt x="486" y="536" on="0"/>
        <pt x="481" y="536" on="1"/>
        <pt x="478" y="536" on="0"/>
        <pt x="472" y="541" on="0"/>
        <pt x="460" y="552" on="1"/>
        <pt x="423" y="588" on="0"/>
        <pt x="347" y="613" on="0"/>
        <pt x="305" y="613" on="1"/>
        <pt x="292" y="613" on="0"/>
        <pt x="252" y="610" on="0"/>
        <pt x="214" y="593" on="0"/>
        <pt x="186" y="558" on="0"/>
        <pt x="186" y="526" on="1"/>
        <pt x="186" y="505" on="0"/>
        <pt x="206" y="474" on="0"/>
        <pt x="233" y="454" on="0"/>
        <pt x="262" y="443" on="0"/>
        <pt x="270" y="441" on="1"/>
      </contour>
    </TTGlyph>
    <TTGlyph name="Sigma" xMin="61" yMin="0" xMax="732" yMax="694">
      <contour>
        <pt x="288" y="109" on="1"/>
        <pt x="346" y="109" on="1"/>
        <pt x="426" y="109" on="0"/>
        <pt x="585" y="112" on="0"/>
        <pt x="665" y="112" on="1"/>
        <pt x="683" y="112" on="0"/>
        <pt x="708" y="111" on="0"/>
        <pt x="724" y="102" on="0"/>
        <pt x="732" y="82" on="0"/>
        <pt x="732" y="64" on="1"/>
        <pt x="732" y="48" on="1"/>
        <pt x="732" y="22" on="0"/>
        <pt x="713" y="0" on="0"/>
        <pt x="684" y="0" on="1"/>
        <pt x="109" y="0" on="1"/>
        <pt x="105" y="0" on="0"/>
        <pt x="89" y="1" on="0"/>
        <pt x="73" y="8" on="0"/>
        <pt x="61" y="23" on="0"/>
        <pt x="61" y="36" on="1"/>
        <pt x="61" y="49" on="0"/>
        <pt x="74" y="65" on="1"/>
        <pt x="302" y="337" on="1"/>
        <pt x="73" y="603" on="1"/>
        <pt x="69" y="608" on="0"/>
        <pt x="64" y="616" on="0"/>
        <pt x="61" y="624" on="0"/>
        <pt x="61" y="635" on="0"/>
        <pt x="61" y="644" on="1"/>
        <pt x="61" y="655" on="0"/>
        <pt x="63" y="673" on="0"/>
        <pt x="72" y="686" on="0"/>
        <pt x="92" y="694" on="0"/>
        <pt x="109" y="694" on="1"/>
        <pt x="684" y="694" on="1"/>
        <pt x="715" y="694" on="0"/>
        <pt x="732" y="670" on="0"/>
        <pt x="732" y="646" on="1"/>
        <pt x="732" y="638" on="1"/>
        <pt x="732" y="620" on="0"/>
        <pt x="725" y="601" on="0"/>
        <pt x="708" y="592" on="0"/>
        <pt x="682" y="590" on="0"/>
        <pt x="663" y="590" on="1"/>
        <pt x="580" y="590" on="0"/>
        <pt x="415" y="593" on="0"/>
        <pt x="332" y="593" on="1"/>
        <pt x="275" y="593" on="1"/>
        <pt x="463" y="375" on="1"/>
        <pt x="468" y="369" on="0"/>
        <pt x="476" y="357" on="0"/>
        <pt x="476" y="347" on="1"/>
        <pt x="476" y="333" on="0"/>
        <pt x="463" y="318" on="1"/>
      </contour>
    </TTGlyph>
    <TTGlyph name="T" xMin="40" yMin="0" xMax="692" yMax="688">
      <contour>
        <pt x="92" y="584" on="1"/>
        <pt x="82" y="584" on="0"/>
        <pt x="63" y="586" on="0"/>
        <pt x="48" y="595" on="0"/>
        <pt x="40" y="614" on="0"/>
        <pt x="40" y="632" on="1"/>
        <pt x="40" y="640" on="1"/>
        <pt x="40" y="668" on="0"/>
        <pt x="61" y="688" on="0"/>
        <pt x="88" y="688" on="1"/>
        <pt x="644" y="688" on="1"/>
        <pt x="675" y="688" on="0"/>
        <pt x="692" y="664" on="0"/>
        <pt x="692" y="640" on="1"/>
        <pt x="692" y="632" on="1"/>
        <pt x="692" y="614" on="0"/>
        <pt x="684" y="595" on="0"/>
        <pt x="669" y="586" on="0"/>
        <pt x="651" y="584" on="0"/>
        <pt x="640" y="584" on="1"/>
        <pt x="624" y="584" on="0"/>
        <pt x="569" y="585" on="0"/>
        <pt x="511" y="586" on="0"/>
        <pt x="457" y="587" on="0"/>
        <pt x="440" y="587" on="1"/>
        <pt x="440" y="48" on="1"/>
        <pt x="440" y="22" on="0"/>
        <pt x="421" y="0" on="0"/>
        <pt x="392" y="0" on="1"/>
        <pt x="341" y="0" on="1"/>
        <pt x="313" y="0" on="0"/>
        <pt x="293" y="21" on="0"/>
        <pt x="293" y="48" on="1"/>
        <pt x="293" y="587" on="1"/>
      </contour>
    </TTGlyph>
    <TTGlyph name="Theta" xMin="61" yMin="-22" xMax="794" yMax="716">
      <contour>
        <pt x="794" y="342" on="1"/>
        <pt x="794" y="155" on="0"/>
        <pt x="606" y="-22" on="0"/>
        <pt x="427" y="-22" on="1"/>
        <pt x="240" y="-22" on="0"/>
        <pt x="61" y="164" on="0"/>
        <pt x="61" y="342" on="1"/>
        <pt x="61" y="716" on="0"/>
        <pt x="428" y="716" on="1"/>
        <pt x="616" y="716" on="0"/>
        <pt x="794" y="524" on="0"/>
      </contour>
      <contour>
        <pt x="427" y="53" on="1"/>
        <pt x="483" y="53" on="0"/>
        <pt x="560" y="83" on="0"/>
        <pt x="610" y="133" on="0"/>
        <pt x="638" y="195" on="0"/>
        <pt x="651" y="260" on="0"/>
        <pt x="653" y="320" on="0"/>
        <pt x="653" y="343" on="1"/>
        <pt x="653" y="365" on="0"/>
        <pt x="651" y="427" on="0"/>
        <pt x="638" y="494" on="0"/>
        <pt x="611" y="559" on="0"/>
        <pt x="561" y="612" on="0"/>
        <pt x="484" y="644" on="0"/>
        <pt x="427" y="644" on="1"/>
        <pt x="371" y="644" on="0"/>
        <pt x="294" y="611" on="0"/>
        <pt x="244" y="559" on="0"/>
        <pt x="217" y="493" on="0"/>
        <pt x="204" y="426" on="0"/>
        <pt x="202" y="364" on="0"/>
        <pt x="202" y="343" on="1"/>
        <pt x="202" y="321" on="0"/>
        <pt x="204" y="261" on="0"/>
        <pt x="217" y="197" on="0"/>
        <pt x="244" y="134" on="0"/>
        <pt x="294" y="84" on="0"/>
        <pt x="371" y="53" on="0"/>
      </contour>
      <contour>
        <pt x="539" y="415" on="1"/>
        <pt x="568" y="415" on="0"/>
        <pt x="591" y="396" on="0"/>
        <pt x="591" y="367" on="1"/>
        <pt x="591" y="330" on="1"/>
        <pt x="591" y="300" on="0"/>
        <pt x="567" y="282" on="0"/>
        <pt x="539" y="282" on="1"/>
        <pt x="316" y="282" on="1"/>
        <pt x="287" y="282" on="0"/>
        <pt x="264" y="301" on="0"/>
        <pt x="264" y="330" on="1"/>
        <pt x="264" y="367" on="1"/>
        <pt x="264" y="397" on="0"/>
        <pt x="288" y="415" on="0"/>
        <pt x="316" y="415" on="1"/>
      </contour>
    </TTGlyph>
    <TTGlyph name="U" xMin="91" yMin="-22" xMax="672" yMax="694">
      <contour>
        <pt x="672" y="229" on="1"/>
        <pt x="672" y="148" on="0"/>
        <pt x="614" y="49" on="0"/>
        <pt x="527" y="-5" on="0"/>
        <pt x="427" y="-22" on="0"/>
        <pt x="384" y="-22" on="1"/>
        <pt x="336" y="-22" on="0"/>
        <pt x="233" y="-3" on="0"/>
        <pt x="147" y="52" on="0"/>
        <pt x="91" y="151" on="0"/>
        <pt x="91" y="230" on="1"/>
        <pt x="91" y="646" on="1"/>
        <pt x="91" y="674" on="0"/>
        <pt x="112" y="694" on="0"/>
        <pt x="139" y="694" on="1"/>
        <pt x="190" y="694" on="1"/>
        <pt x="221" y="694" on="0"/>
        <pt x="238" y="670" on="0"/>
        <pt x="238" y="646" on="1"/>
        <pt x="238" y="226" on="1"/>
        <pt x="238" y="187" on="0"/>
        <pt x="251" y="127" on="0"/>
        <pt x="285" y="86" on="0"/>
        <pt x="342" y="64" on="0"/>
        <pt x="385" y="64" on="1"/>
        <pt x="431" y="64" on="0"/>
        <pt x="489" y="87" on="0"/>
        <pt x="523" y="130" on="0"/>
        <pt x="536" y="190" on="0"/>
        <pt x="536" y="227" on="1"/>
        <pt x="536" y="646" on="1"/>
        <pt x="536" y="672" on="0"/>
        <pt x="555" y="694" on="0"/>
        <pt x="584" y="694" on="1"/>
        <pt x="624" y="694" on="1"/>
        <pt x="655" y="694" on="0"/>
        <pt x="672" y="670" on="0"/>
        <pt x="672" y="646" on="1"/>
      </contour>
    </TTGlyph>
    <TTGlyph name="Upsilon" xMin="61" yMin="0" xMax="794" yMax="716">
      <contour>
        <pt x="501" y="48" on="1"/>
        <pt x="501" y="22" on="0"/>
        <pt x="482" y="0" on="0"/>
        <pt x="453" y="0" on="1"/>
        <pt x="402" y="0" on="1"/>
        <pt x="374" y="0" on="0"/>
        <pt x="354" y="21" on="0"/>
        <pt x="354" y="48" on="1"/>
        <pt x="354" y="392" on="1"/>
        <pt x="354" y="498" on="0"/>
        <pt x="309" y="606" on="0"/>
        <pt x="258" y="606" on="1"/>
        <pt x="239" y="606" on="0"/>
        <pt x="199" y="583" on="0"/>
        <pt x="197" y="558" on="1"/>
        <pt x="196" y="543" on="0"/>
        <pt x="186" y="528" on="0"/>
        <pt x="172" y="520" on="0"/>
        <pt x="156" y="519" on="0"/>
        <pt x="148" y="519" on="1"/>
        <pt x="110" y="519" on="1"/>
        <pt x="104" y="519" on="0"/>
        <pt x="88" y="520" on="0"/>
        <pt x="72" y="528" on="0"/>
        <pt x="61" y="543" on="0"/>
        <pt x="61" y="558" on="1"/>
        <pt x="61" y="591" on="0"/>
        <pt x="93" y="649" on="0"/>
        <pt x="146" y="692" on="0"/>
        <pt x="216" y="716" on="0"/>
        <pt x="255" y="716" on="1"/>
        <pt x="327" y="716" on="0"/>
        <pt x="409" y="617" on="0"/>
        <pt x="427" y="526" on="1"/>
        <pt x="428" y="526" on="1"/>
        <pt x="436" y="565" on="0"/>
        <pt x="462" y="634" on="0"/>
        <pt x="503" y="686" on="0"/>
        <pt x="561" y="716" on="0"/>
        <pt x="600" y="716" on="1"/>
        <pt x="639" y="716" on="0"/>
        <pt x="709" y="692" on="0"/>
        <pt x="762" y="649" on="0"/>
        <pt x="794" y="591" on="0"/>
        <pt x="794" y="558" on="1"/>
        <pt x="794" y="543" on="0"/>
        <pt x="783" y="528" on="0"/>
        <pt x="767" y="520" on="0"/>
        <pt x="751" y="519" on="0"/>
        <pt x="745" y="519" on="1"/>
        <pt x="707" y="519" on="1"/>
        <pt x="700" y="519" on="0"/>
        <pt x="684" y="520" on="0"/>
        <pt x="669" y="528" on="0"/>
        <pt x="659" y="543" on="0"/>
        <pt x="658" y="558" on="1"/>
        <pt x="656" y="581" on="0"/>
        <pt x="618" y="606" on="0"/>
        <pt x="597" y="606" on="1"/>
        <pt x="545" y="606" on="0"/>
        <pt x="501" y="498" on="0"/>
        <pt x="501" y="392" on="1"/>
      </contour>
    </TTGlyph>
    <TTGlyph name="V" xMin="27" yMin="0" xMax="705" yMax="694">
      <contour>
        <pt x="477" y="44" on="1"/>
        <pt x="471" y="28" on="0"/>
        <pt x="455" y="10" on="0"/>
        <pt x="438" y="1" on="0"/>
        <pt x="420" y="0" on="0"/>
        <pt x="412" y="0" on="1"/>
        <pt x="320" y="0" on="1"/>
        <pt x="313" y="0" on="0"/>
        <pt x="295" y="1" on="0"/>
        <pt x="277" y="9" on="0"/>
        <pt x="262" y="26" on="0"/>
        <pt x="256" y="42" on="1"/>
        <pt x="32" y="649" on="1"/>
        <pt x="29" y="658" on="0"/>
        <pt x="27" y="663" on="0"/>
        <pt x="27" y="667" on="1"/>
        <pt x="27" y="687" on="0"/>
        <pt x="55" y="694" on="0"/>
        <pt x="66" y="694" on="1"/>
        <pt x="120" y="694" on="1"/>
        <pt x="128" y="694" on="0"/>
        <pt x="146" y="693" on="0"/>
        <pt x="163" y="685" on="0"/>
        <pt x="179" y="667" on="0"/>
        <pt x="185" y="651" on="1"/>
        <pt x="347" y="204" on="1"/>
        <pt x="358" y="173" on="0"/>
        <pt x="373" y="127" on="0"/>
        <pt x="374" y="125" on="1"/>
        <pt x="426" y="279" on="1"/>
        <pt x="561" y="650" on="1"/>
        <pt x="567" y="667" on="0"/>
        <pt x="583" y="684" on="0"/>
        <pt x="601" y="693" on="0"/>
        <pt x="619" y="694" on="0"/>
        <pt x="627" y="694" on="1"/>
        <pt x="666" y="694" on="1"/>
        <pt x="677" y="694" on="0"/>
        <pt x="705" y="687" on="0"/>
        <pt x="705" y="667" on="1"/>
        <pt x="705" y="663" on="0"/>
        <pt x="703" y="658" on="0"/>
        <pt x="700" y="649" on="1"/>
      </contour>
    </TTGlyph>
    <TTGlyph name="W" xMin="24" yMin="0" xMax="1014" yMax="694">
      <contour>
        <pt x="846" y="42" on="1"/>
        <pt x="842" y="26" on="0"/>
        <pt x="828" y="9" on="0"/>
        <pt x="812" y="1" on="0"/>
        <pt x="794" y="0" on="0"/>
        <pt x="786" y="0" on="1"/>
        <pt x="714" y="0" on="1"/>
        <pt x="707" y="0" on="0"/>
        <pt x="689" y="1" on="0"/>
        <pt x="673" y="9" on="0"/>
        <pt x="659" y="26" on="0"/>
        <pt x="655" y="42" on="1"/>
        <pt x="553" y="419" on="1"/>
        <pt x="546" y="443" on="0"/>
        <pt x="537" y="479" on="0"/>
        <pt x="529" y="512" on="0"/>
        <pt x="522" y="545" on="0"/>
        <pt x="517" y="567" on="1"/>
        <pt x="516" y="567" on="1"/>
        <pt x="512" y="549" on="0"/>
        <pt x="506" y="519" on="0"/>
        <pt x="498" y="489" on="0"/>
        <pt x="490" y="457" on="0"/>
        <pt x="484" y="437" on="1"/>
        <pt x="379" y="46" on="1"/>
        <pt x="375" y="29" on="0"/>
        <pt x="360" y="10" on="0"/>
        <pt x="344" y="1" on="0"/>
        <pt x="326" y="0" on="0"/>
        <pt x="318" y="0" on="1"/>
        <pt x="252" y="0" on="1"/>
        <pt x="244" y="0" on="0"/>
        <pt x="227" y="1" on="0"/>
        <pt x="210" y="9" on="0"/>
        <pt x="196" y="26" on="0"/>
        <pt x="192" y="42" on="1"/>
        <pt x="28" y="646" on="1"/>
        <pt x="25" y="657" on="0"/>
        <pt x="24" y="664" on="0"/>
        <pt x="24" y="665" on="1"/>
        <pt x="24" y="676" on="0"/>
        <pt x="33" y="688" on="0"/>
        <pt x="46" y="693" on="0"/>
        <pt x="60" y="694" on="0"/>
        <pt x="65" y="694" on="1"/>
        <pt x="99" y="694" on="1"/>
        <pt x="106" y="694" on="0"/>
        <pt x="123" y="693" on="0"/>
        <pt x="140" y="685" on="0"/>
        <pt x="155" y="667" on="0"/>
        <pt x="159" y="651" on="1"/>
        <pt x="245" y="331" on="1"/>
        <pt x="251" y="307" on="0"/>
        <pt x="266" y="253" on="0"/>
        <pt x="280" y="198" on="0"/>
        <pt x="291" y="148" on="0"/>
        <pt x="294" y="128" on="1"/>
        <pt x="295" y="128" on="1"/>
        <pt x="297" y="140" on="0"/>
        <pt x="308" y="188" on="0"/>
        <pt x="316" y="223" on="1"/>
        <pt x="341" y="322" on="1"/>
        <pt x="429" y="650" on="1"/>
        <pt x="434" y="667" on="0"/>
        <pt x="448" y="684" on="0"/>
        <pt x="464" y="693" on="0"/>
        <pt x="482" y="694" on="0"/>
        <pt x="490" y="694" on="1"/>
        <pt x="556" y="694" on="1"/>
        <pt x="578" y="694" on="0"/>
        <pt x="608" y="679" on="0"/>
        <pt x="616" y="650" on="1"/>
        <pt x="724" y="245" on="1"/>
        <pt x="733" y="212" on="0"/>
        <pt x="743" y="175" on="0"/>
        <pt x="748" y="152" on="0"/>
        <pt x="751" y="138" on="0"/>
        <pt x="753" y="128" on="1"/>
        <pt x="754" y="128" on="1"/>
        <pt x="761" y="161" on="0"/>
        <pt x="775" y="218" on="0"/>
        <pt x="786" y="256" on="1"/>
        <pt x="892" y="650" on="1"/>
        <pt x="897" y="667" on="0"/>
        <pt x="911" y="684" on="0"/>
        <pt x="927" y="693" on="0"/>
        <pt x="945" y="694" on="0"/>
        <pt x="952" y="694" on="1"/>
        <pt x="973" y="694" on="1"/>
        <pt x="978" y="694" on="0"/>
        <pt x="992" y="693" on="0"/>
        <pt x="1005" y="688" on="0"/>
        <pt x="1014" y="676" on="0"/>
        <pt x="1014" y="665" on="1"/>
        <pt x="1014" y="664" on="0"/>
        <pt x="1013" y="657" on="0"/>
        <pt x="1010" y="646" on="1"/>
      </contour>
    </TTGlyph>
    <TTGlyph name="X" xMin="37" yMin="0" xMax="694" yMax="694">
      <contour>
        <pt x="685" y="42" on="1"/>
        <pt x="688" y="38" on="0"/>
        <pt x="694" y="27" on="0"/>
        <pt x="694" y="22" on="1"/>
        <pt x="694" y="6" on="0"/>
        <pt x="668" y="0" on="0"/>
        <pt x="658" y="0" on="1"/>
        <pt x="575" y="0" on="1"/>
        <pt x="561" y="0" on="0"/>
        <pt x="536" y="5" on="0"/>
        <pt x="525" y="22" on="1"/>
        <pt x="358" y="262" on="1"/>
        <pt x="197" y="24" on="1"/>
        <pt x="188" y="10" on="0"/>
        <pt x="173" y="0" on="0"/>
        <pt x="148" y="0" on="1"/>
        <pt x="73" y="0" on="1"/>
        <pt x="62" y="0" on="0"/>
        <pt x="37" y="6" on="0"/>
        <pt x="37" y="23" on="1"/>
        <pt x="37" y="28" on="0"/>
        <pt x="40" y="34" on="0"/>
        <pt x="47" y="43" on="1"/>
        <pt x="283" y="368" on="1"/>
        <pt x="64" y="652" on="1"/>
        <pt x="56" y="661" on="0"/>
        <pt x="54" y="667" on="0"/>
        <pt x="54" y="672" on="1"/>
        <pt x="54" y="689" on="0"/>
        <pt x="79" y="694" on="0"/>
        <pt x="89" y="694" on="1"/>
        <pt x="172" y="694" on="1"/>
        <pt x="188" y="694" on="0"/>
        <pt x="210" y="688" on="0"/>
        <pt x="223" y="671" on="1"/>
        <pt x="358" y="486" on="1"/>
        <pt x="489" y="673" on="1"/>
        <pt x="500" y="689" on="0"/>
        <pt x="525" y="694" on="0"/>
        <pt x="538" y="694" on="1"/>
        <pt x="613" y="694" on="1"/>
        <pt x="624" y="694" on="0"/>
        <pt x="649" y="688" on="0"/>
        <pt x="649" y="671" on="1"/>
        <pt x="649" y="666" on="0"/>
        <pt x="646" y="660" on="0"/>
        <pt x="639" y="651" on="1"/>
        <pt x="433" y="368" on="1"/>
      </contour>
    </TTGlyph>
    <TTGlyph name="Xi" xMin="46" yMin="0" xMax="686" yMax="688">
      <contour>
        <pt x="680" y="614" on="1"/>
        <pt x="680" y="596" on="0"/>
        <pt x="673" y="577" on="0"/>
        <pt x="656" y="568" on="0"/>
        <pt x="630" y="566" on="0"/>
        <pt x="611" y="566" on="1"/>
        <pt x="609" y="566" on="0"/>
        <pt x="576" y="566" on="0"/>
        <pt x="528" y="567" on="0"/>
        <pt x="471" y="567" on="0"/>
        <pt x="418" y="568" on="0"/>
        <pt x="376" y="568" on="0"/>
        <pt x="366" y="568" on="1"/>
        <pt x="357" y="568" on="0"/>
        <pt x="317" y="568" on="0"/>
        <pt x="265" y="567" on="0"/>
        <pt x="209" y="567" on="0"/>
        <pt x="160" y="566" on="0"/>
        <pt x="125" y="566" on="0"/>
        <pt x="121" y="566" on="1"/>
        <pt x="103" y="566" on="0"/>
        <pt x="76" y="568" on="0"/>
        <pt x="60" y="577" on="0"/>
        <pt x="52" y="596" on="0"/>
        <pt x="52" y="614" on="1"/>
        <pt x="52" y="640" on="1"/>
        <pt x="52" y="668" on="0"/>
        <pt x="73" y="688" on="0"/>
        <pt x="100" y="688" on="1"/>
        <pt x="632" y="688" on="1"/>
        <pt x="663" y="688" on="0"/>
        <pt x="680" y="664" on="0"/>
        <pt x="680" y="640" on="1"/>
      </contour>
      <contour>
        <pt x="46" y="74" on="1"/>
        <pt x="46" y="92" on="0"/>
        <pt x="54" y="112" on="0"/>
        <pt x="70" y="121" on="0"/>
        <pt x="97" y="122" on="0"/>
        <pt x="116" y="122" on="1"/>
        <pt x="121" y="122" on="0"/>
        <pt x="186" y="121" on="0"/>
        <pt x="269" y="121" on="0"/>
        <pt x="348" y="120" on="0"/>
        <pt x="366" y="120" on="1"/>
        <pt x="375" y="120" on="0"/>
        <pt x="416" y="120" on="0"/>
        <pt x="468" y="121" on="0"/>
        <pt x="525" y="121" on="0"/>
        <pt x="574" y="122" on="0"/>
        <pt x="610" y="122" on="0"/>
        <pt x="616" y="122" on="1"/>
        <pt x="635" y="122" on="0"/>
        <pt x="662" y="121" on="0"/>
        <pt x="678" y="112" on="0"/>
        <pt x="686" y="92" on="0"/>
        <pt x="686" y="74" on="1"/>
        <pt x="686" y="48" on="1"/>
        <pt x="686" y="22" on="0"/>
        <pt x="667" y="0" on="0"/>
        <pt x="638" y="0" on="1"/>
        <pt x="94" y="0" on="1"/>
        <pt x="66" y="0" on="0"/>
        <pt x="46" y="21" on="0"/>
        <pt x="46" y="48" on="1"/>
      </contour>
      <contour>
        <pt x="562" y="418" on="1"/>
        <pt x="593" y="418" on="0"/>
        <pt x="610" y="394" on="0"/>
        <pt x="610" y="370" on="1"/>
        <pt x="610" y="346" on="1"/>
        <pt x="610" y="320" on="0"/>
        <pt x="591" y="298" on="0"/>
        <pt x="562" y="298" on="1"/>
        <pt x="170" y="298" on="1"/>
        <pt x="139" y="298" on="0"/>
        <pt x="122" y="322" on="0"/>
        <pt x="122" y="346" on="1"/>
        <pt x="122" y="370" on="1"/>
        <pt x="122" y="398" on="0"/>
        <pt x="143" y="418" on="0"/>
        <pt x="170" y="418" on="1"/>
      </contour>
    </TTGlyph>
    <TTGlyph name="Y" xMin="24" yMin="0" xMax="708" yMax="694">
      <contour>
        <pt x="438" y="277" on="1"/>
        <pt x="438" y="47" on="1"/>
        <pt x="438" y="19" on="0"/>
        <pt x="416" y="0" on="0"/>
        <pt x="390" y="0" on="1"/>
        <pt x="342" y="0" on="1"/>
        <pt x="314" y="0" on="0"/>
        <pt x="294" y="21" on="0"/>
        <pt x="294" y="48" on="1"/>
        <pt x="294" y="278" on="1"/>
        <pt x="33" y="651" on="1"/>
        <pt x="24" y="663" on="0"/>
        <pt x="24" y="671" on="1"/>
        <pt x="24" y="688" on="0"/>
        <pt x="49" y="694" on="0"/>
        <pt x="60" y="694" on="1"/>
        <pt x="126" y="694" on="1"/>
        <pt x="153" y="694" on="0"/>
        <pt x="190" y="678" on="0"/>
        <pt x="207" y="653" on="1"/>
        <pt x="320" y="491" on="1"/>
        <pt x="335" y="470" on="0"/>
        <pt x="364" y="426" on="0"/>
        <pt x="375" y="403" on="1"/>
        <pt x="388" y="430" on="0"/>
        <pt x="420" y="478" on="0"/>
        <pt x="446" y="516" on="1"/>
        <pt x="544" y="656" on="1"/>
        <pt x="554" y="670" on="0"/>
        <pt x="575" y="686" on="0"/>
        <pt x="596" y="693" on="0"/>
        <pt x="615" y="694" on="0"/>
        <pt x="623" y="694" on="1"/>
        <pt x="672" y="694" on="1"/>
        <pt x="683" y="694" on="0"/>
        <pt x="708" y="688" on="0"/>
        <pt x="708" y="671" on="1"/>
        <pt x="708" y="666" on="0"/>
        <pt x="702" y="654" on="0"/>
        <pt x="699" y="650" on="1"/>
      </contour>
    </TTGlyph>
    <TTGlyph name="Z" xMin="61" yMin="0" xMax="616" yMax="694">
      <contour>
        <pt x="240" y="101" on="1"/>
        <pt x="275" y="102" on="0"/>
        <pt x="358" y="103" on="0"/>
        <pt x="444" y="104" on="0"/>
        <pt x="526" y="105" on="0"/>
        <pt x="559" y="105" on="1"/>
        <pt x="572" y="105" on="0"/>
        <pt x="593" y="104" on="0"/>
        <pt x="608" y="95" on="0"/>
        <pt x="616" y="75" on="0"/>
        <pt x="616" y="57" on="1"/>
        <pt x="616" y="48" on="1"/>
        <pt x="616" y="22" on="0"/>
        <pt x="597" y="0" on="0"/>
        <pt x="568" y="0" on="1"/>
        <pt x="109" y="0" on="1"/>
        <pt x="81" y="0" on="0"/>
        <pt x="61" y="21" on="0"/>
        <pt x="61" y="48" on="1"/>
        <pt x="61" y="56" on="1"/>
        <pt x="61" y="71" on="0"/>
        <pt x="63" y="81" on="0"/>
        <pt x="71" y="91" on="1"/>
        <pt x="433" y="599" on="1"/>
        <pt x="398" y="599" on="1"/>
        <pt x="332" y="599" on="0"/>
        <pt x="203" y="596" on="0"/>
        <pt x="137" y="596" on="1"/>
        <pt x="122" y="596" on="0"/>
        <pt x="99" y="598" on="0"/>
        <pt x="84" y="607" on="0"/>
        <pt x="76" y="627" on="0"/>
        <pt x="76" y="645" on="1"/>
        <pt x="76" y="669" on="0"/>
        <pt x="92" y="694" on="0"/>
        <pt x="124" y="694" on="1"/>
        <pt x="562" y="694" on="1"/>
        <pt x="580" y="694" on="0"/>
        <pt x="599" y="686" on="0"/>
        <pt x="608" y="672" on="0"/>
        <pt x="610" y="654" on="0"/>
        <pt x="610" y="644" on="1"/>
        <pt x="610" y="627" on="0"/>
        <pt x="608" y="617" on="0"/>
        <pt x="600" y="607" on="1"/>
      </contour>
    </TTGlyph>
    <TTGlyph name="a" xMin="31" yMin="-11" xMax="464" yMax="475">
      <contour>
        <pt x="464" y="48" on="1"/>
        <pt x="464" y="22" on="0"/>
        <pt x="445" y="0" on="0"/>
        <pt x="416" y="0" on="1"/>
        <pt x="379" y="0" on="1"/>
        <pt x="348" y="0" on="0"/>
        <pt x="331" y="24" on="0"/>
        <pt x="331" y="48" on="1"/>
        <pt x="331" y="68" on="1"/>
        <pt x="313" y="42" on="0"/>
        <pt x="270" y="11" on="0"/>
        <pt x="226" y="-6" on="0"/>
        <pt x="188" y="-11" on="0"/>
        <pt x="175" y="-11" on="1"/>
        <pt x="142" y="-11" on="0"/>
        <pt x="89" y="14" on="0"/>
        <pt x="51" y="55" on="0"/>
        <pt x="31" y="107" on="0"/>
        <pt x="31" y="133" on="1"/>
        <pt x="31" y="170" on="0"/>
        <pt x="70" y="220" on="0"/>
        <pt x="130" y="254" on="0"/>
        <pt x="202" y="272" on="0"/>
        <pt x="268" y="280" on="0"/>
        <pt x="319" y="282" on="0"/>
        <pt x="328" y="282" on="1"/>
        <pt x="328" y="317" on="1"/>
        <pt x="328" y="362" on="0"/>
        <pt x="299" y="409" on="0"/>
        <pt x="258" y="409" on="1"/>
        <pt x="167" y="409" on="0"/>
        <pt x="103" y="342" on="1"/>
        <pt x="97" y="336" on="0"/>
        <pt x="92" y="336" on="1"/>
        <pt x="81" y="336" on="0"/>
        <pt x="79" y="347" on="1"/>
        <pt x="79" y="350" on="0"/>
        <pt x="76" y="372" on="0"/>
        <pt x="74" y="396" on="0"/>
        <pt x="72" y="417" on="0"/>
        <pt x="72" y="420" on="1"/>
        <pt x="72" y="428" on="0"/>
        <pt x="82" y="436" on="0"/>
        <pt x="98" y="443" on="1"/>
        <pt x="149" y="464" on="0"/>
        <pt x="227" y="475" on="0"/>
        <pt x="262" y="475" on="1"/>
        <pt x="275" y="475" on="0"/>
        <pt x="314" y="473" on="0"/>
        <pt x="359" y="464" on="0"/>
        <pt x="404" y="445" on="0"/>
        <pt x="441" y="410" on="0"/>
        <pt x="464" y="356" on="0"/>
        <pt x="464" y="316" on="1"/>
      </contour>
      <contour>
        <pt x="328" y="241" on="1"/>
        <pt x="321" y="241" on="0"/>
        <pt x="291" y="238" on="0"/>
        <pt x="254" y="231" on="0"/>
        <pt x="214" y="218" on="0"/>
        <pt x="182" y="194" on="0"/>
        <pt x="161" y="159" on="0"/>
        <pt x="161" y="135" on="1"/>
        <pt x="161" y="106" on="0"/>
        <pt x="198" y="61" on="0"/>
        <pt x="230" y="61" on="1"/>
        <pt x="231" y="61" on="0"/>
        <pt x="262" y="64" on="0"/>
        <pt x="298" y="81" on="0"/>
        <pt x="328" y="119" on="0"/>
        <pt x="328" y="154" on="1"/>
      </contour>
    </TTGlyph>
    <TTGlyph name="acute" xMin="223" yMin="537" xMax="457" yMax="694">
      <contour>
        <pt x="287" y="537" on="1"/>
        <pt x="250" y="537" on="1"/>
        <pt x="238" y="537" on="0"/>
        <pt x="223" y="540" on="0"/>
        <pt x="223" y="550" on="1"/>
        <pt x="223" y="552" on="0"/>
        <pt x="225" y="557" on="0"/>
        <pt x="232" y="565" on="1"/>
        <pt x="318" y="682" on="1"/>
        <pt x="325" y="690" on="0"/>
        <pt x="333" y="694" on="0"/>
        <pt x="348" y="694" on="1"/>
        <pt x="430" y="694" on="1"/>
        <pt x="442" y="694" on="0"/>
        <pt x="457" y="691" on="0"/>
        <pt x="457" y="681" on="1"/>
        <pt x="457" y="676" on="0"/>
        <pt x="450" y="669" on="0"/>
        <pt x="446" y="666" on="1"/>
      </contour>
    </TTGlyph>
    <TTGlyph name="ae" xMin="31" yMin="-11" xMax="762" yMax="475">
      <contour>
        <pt x="465" y="214" on="1"/>
        <pt x="466" y="182" on="0"/>
        <pt x="478" y="126" on="0"/>
        <pt x="504" y="85" on="0"/>
        <pt x="549" y="61" on="0"/>
        <pt x="583" y="61" on="1"/>
        <pt x="610" y="61" on="0"/>
        <pt x="687" y="84" on="0"/>
        <pt x="722" y="119" on="1"/>
        <pt x="728" y="125" on="0"/>
        <pt x="733" y="129" on="0"/>
        <pt x="738" y="129" on="1"/>
        <pt x="745" y="129" on="0"/>
        <pt x="749" y="120" on="0"/>
        <pt x="752" y="97" on="1"/>
        <pt x="752" y="94" on="0"/>
        <pt x="754" y="81" on="0"/>
        <pt x="755" y="68" on="0"/>
        <pt x="756" y="56" on="0"/>
        <pt x="756" y="53" on="1"/>
        <pt x="756" y="45" on="0"/>
        <pt x="748" y="38" on="0"/>
        <pt x="727" y="26" on="1"/>
        <pt x="697" y="9" on="0"/>
        <pt x="624" y="-11" on="0"/>
        <pt x="579" y="-11" on="1"/>
        <pt x="571" y="-11" on="0"/>
        <pt x="532" y="-9" on="0"/>
        <pt x="481" y="1" on="0"/>
        <pt x="425" y="23" on="0"/>
        <pt x="400" y="44" on="1"/>
        <pt x="374" y="23" on="0"/>
        <pt x="304" y="1" on="0"/>
        <pt x="238" y="-9" on="0"/>
        <pt x="187" y="-11" on="0"/>
        <pt x="178" y="-11" on="1"/>
        <pt x="135" y="-11" on="0"/>
        <pt x="78" y="19" on="0"/>
        <pt x="45" y="61" on="0"/>
        <pt x="31" y="107" on="0"/>
        <pt x="31" y="123" on="1"/>
        <pt x="31" y="153" on="0"/>
        <pt x="63" y="195" on="0"/>
        <pt x="114" y="223" on="0"/>
        <pt x="180" y="240" on="0"/>
        <pt x="246" y="249" on="0"/>
        <pt x="307" y="252" on="0"/>
        <pt x="329" y="253" on="1"/>
        <pt x="329" y="317" on="1"/>
        <pt x="329" y="359" on="0"/>
        <pt x="302" y="409" on="0"/>
        <pt x="259" y="409" on="1"/>
        <pt x="167" y="409" on="0"/>
        <pt x="103" y="342" on="1"/>
        <pt x="97" y="336" on="0"/>
        <pt x="92" y="336" on="1"/>
        <pt x="81" y="336" on="0"/>
        <pt x="79" y="347" on="1"/>
        <pt x="79" y="350" on="0"/>
        <pt x="76" y="372" on="0"/>
        <pt x="74" y="396" on="0"/>
        <pt x="72" y="417" on="0"/>
        <pt x="72" y="420" on="1"/>
        <pt x="72" y="428" on="0"/>
        <pt x="82" y="436" on="0"/>
        <pt x="97" y="442" on="1"/>
        <pt x="145" y="462" on="0"/>
        <pt x="221" y="475" on="0"/>
        <pt x="262" y="475" on="1"/>
        <pt x="307" y="475" on="0"/>
        <pt x="384" y="460" on="0"/>
        <pt x="416" y="434" on="1"/>
        <pt x="436" y="448" on="0"/>
        <pt x="479" y="465" on="0"/>
        <pt x="519" y="473" on="0"/>
        <pt x="554" y="475" on="0"/>
        <pt x="565" y="475" on="1"/>
        <pt x="617" y="475" on="0"/>
        <pt x="691" y="445" on="0"/>
        <pt x="739" y="389" on="0"/>
        <pt x="762" y="310" on="0"/>
        <pt x="762" y="261" on="1"/>
        <pt x="762" y="231" on="0"/>
        <pt x="737" y="214" on="0"/>
        <pt x="714" y="214" on="1"/>
      </contour>
      <contour>
        <pt x="648" y="267" on="1"/>
        <pt x="647" y="288" on="0"/>
        <pt x="643" y="336" on="0"/>
        <pt x="627" y="376" on="0"/>
        <pt x="595" y="403" on="0"/>
        <pt x="566" y="403" on="1"/>
        <pt x="535" y="403" on="0"/>
        <pt x="496" y="374" on="0"/>
        <pt x="475" y="332" on="0"/>
        <pt x="467" y="285" on="0"/>
        <pt x="466" y="267" on="1"/>
      </contour>
      <contour>
        <pt x="330" y="199" on="1"/>
        <pt x="317" y="198" on="0"/>
        <pt x="260" y="193" on="0"/>
        <pt x="204" y="178" on="0"/>
        <pt x="161" y="149" on="0"/>
        <pt x="161" y="124" on="1"/>
        <pt x="161" y="114" on="0"/>
        <pt x="169" y="92" on="0"/>
        <pt x="186" y="73" on="0"/>
        <pt x="213" y="61" on="0"/>
        <pt x="232" y="61" on="1"/>
        <pt x="260" y="61" on="0"/>
        <pt x="302" y="74" on="0"/>
        <pt x="331" y="94" on="0"/>
        <pt x="346" y="115" on="0"/>
        <pt x="346" y="122" on="1"/>
        <pt x="346" y="127" on="0"/>
        <pt x="343" y="134" on="1"/>
        <pt x="340" y="145" on="0"/>
        <pt x="336" y="160" on="0"/>
        <pt x="333" y="174" on="0"/>
        <pt x="331" y="189" on="0"/>
      </contour>
    </TTGlyph>
    <TTGlyph name="ampersand" xMin="46" yMin="-22" xMax="769" yMax="716">
      <contour>
        <pt x="769" y="25" on="1"/>
        <pt x="769" y="10" on="0"/>
        <pt x="767" y="-1" on="0"/>
        <pt x="760" y="-3" on="1"/>
        <pt x="758" y="-5" on="0"/>
        <pt x="691" y="-22" on="0"/>
        <pt x="642" y="-22" on="1"/>
        <pt x="582" y="-22" on="0"/>
        <pt x="493" y="13" on="0"/>
        <pt x="457" y="33" on="1"/>
        <pt x="456" y="32" on="0"/>
        <pt x="422" y="15" on="0"/>
        <pt x="366" y="-5" on="0"/>
        <pt x="291" y="-22" on="0"/>
        <pt x="247" y="-22" on="1"/>
        <pt x="204" y="-22" on="0"/>
        <pt x="130" y="4" on="0"/>
        <pt x="76" y="50" on="0"/>
        <pt x="46" y="112" on="0"/>
        <pt x="46" y="147" on="1"/>
        <pt x="46" y="169" on="0"/>
        <pt x="57" y="206" on="0"/>
        <pt x="73" y="235" on="0"/>
        <pt x="90" y="255" on="0"/>
        <pt x="96" y="261" on="1"/>
        <pt x="102" y="266" on="0"/>
        <pt x="128" y="285" on="0"/>
        <pt x="158" y="307" on="0"/>
        <pt x="189" y="328" on="0"/>
        <pt x="199" y="335" on="1"/>
        <pt x="193" y="350" on="0"/>
        <pt x="178" y="391" on="0"/>
        <pt x="165" y="440" on="0"/>
        <pt x="157" y="495" on="0"/>
        <pt x="157" y="523" on="1"/>
        <pt x="157" y="568" on="0"/>
        <pt x="189" y="639" on="0"/>
        <pt x="241" y="689" on="0"/>
        <pt x="308" y="716" on="0"/>
        <pt x="343" y="716" on="1"/>
        <pt x="380" y="716" on="0"/>
        <pt x="442" y="688" on="0"/>
        <pt x="486" y="643" on="0"/>
        <pt x="511" y="584" on="0"/>
        <pt x="511" y="553" on="1"/>
        <pt x="511" y="503" on="0"/>
        <pt x="420" y="404" on="0"/>
        <pt x="331" y="340" on="1"/>
        <pt x="347" y="312" on="0"/>
        <pt x="392" y="253" on="0"/>
        <pt x="434" y="203" on="0"/>
        <pt x="467" y="168" on="0"/>
        <pt x="471" y="165" on="1"/>
        <pt x="489" y="179" on="0"/>
        <pt x="532" y="224" on="0"/>
        <pt x="574" y="286" on="0"/>
        <pt x="614" y="365" on="0"/>
        <pt x="629" y="413" on="1"/>
        <pt x="634" y="429" on="0"/>
        <pt x="638" y="439" on="0"/>
        <pt x="646" y="439" on="1"/>
        <pt x="649" y="439" on="0"/>
        <pt x="669" y="434" on="0"/>
        <pt x="693" y="427" on="0"/>
        <pt x="715" y="421" on="0"/>
        <pt x="719" y="420" on="1"/>
        <pt x="724" y="418" on="0"/>
        <pt x="733" y="414" on="0"/>
        <pt x="733" y="406" on="1"/>
        <pt x="733" y="403" on="0"/>
        <pt x="714" y="341" on="0"/>
        <pt x="670" y="251" on="0"/>
        <pt x="602" y="147" on="0"/>
        <pt x="552" y="102" on="1"/>
        <pt x="581" y="86" on="0"/>
        <pt x="626" y="78" on="0"/>
        <pt x="643" y="78" on="1"/>
        <pt x="653" y="78" on="0"/>
        <pt x="710" y="84" on="0"/>
        <pt x="746" y="98" on="1"/>
        <pt x="754" y="102" on="0"/>
        <pt x="756" y="102" on="1"/>
        <pt x="766" y="102" on="0"/>
        <pt x="769" y="87" on="0"/>
        <pt x="769" y="73" on="1"/>
      </contour>
      <contour>
        <pt x="298" y="407" on="1"/>
        <pt x="315" y="419" on="0"/>
        <pt x="350" y="449" on="0"/>
        <pt x="379" y="486" on="0"/>
        <pt x="397" y="528" on="0"/>
        <pt x="397" y="552" on="1"/>
        <pt x="397" y="567" on="0"/>
        <pt x="391" y="599" on="0"/>
        <pt x="378" y="626" on="0"/>
        <pt x="357" y="644" on="0"/>
        <pt x="343" y="644" on="1"/>
        <pt x="333" y="644" on="0"/>
        <pt x="308" y="634" on="0"/>
        <pt x="286" y="611" on="0"/>
        <pt x="271" y="574" on="0"/>
        <pt x="271" y="546" on="1"/>
        <pt x="271" y="526" on="0"/>
        <pt x="279" y="459" on="0"/>
      </contour>
      <contour>
        <pt x="233" y="270" on="1"/>
        <pt x="228" y="267" on="0"/>
        <pt x="211" y="256" on="0"/>
        <pt x="194" y="234" on="0"/>
        <pt x="182" y="200" on="0"/>
        <pt x="182" y="174" on="1"/>
        <pt x="182" y="169" on="0"/>
        <pt x="185" y="137" on="0"/>
        <pt x="199" y="104" on="0"/>
        <pt x="226" y="78" on="0"/>
        <pt x="250" y="78" on="1"/>
        <pt x="253" y="78" on="0"/>
        <pt x="275" y="79" on="0"/>
        <pt x="307" y="84" on="0"/>
        <pt x="347" y="93" on="0"/>
        <pt x="368" y="102" on="1"/>
        <pt x="340" y="131" on="0"/>
        <pt x="264" y="216" on="0"/>
      </contour>
    </TTGlyph>
    <TTGlyph name="asterisk" xMin="68" yMin="292" xMax="481" yMax="750">
      <contour>
        <pt x="323" y="355" on="1"/>
        <pt x="324" y="353" on="0"/>
        <pt x="327" y="337" on="0"/>
        <pt x="327" y="336" on="1"/>
        <pt x="327" y="319" on="0"/>
        <pt x="297" y="292" on="0"/>
        <pt x="274" y="292" on="1"/>
        <pt x="254" y="292" on="0"/>
        <pt x="222" y="317" on="0"/>
        <pt x="222" y="336" on="1"/>
        <pt x="222" y="337" on="0"/>
        <pt x="225" y="353" on="0"/>
        <pt x="226" y="355" on="1"/>
        <pt x="254" y="486" on="1"/>
        <pt x="153" y="394" on="1"/>
        <pt x="145" y="386" on="0"/>
        <pt x="132" y="378" on="0"/>
        <pt x="121" y="378" on="1"/>
        <pt x="101" y="378" on="0"/>
        <pt x="68" y="412" on="0"/>
        <pt x="68" y="436" on="1"/>
        <pt x="68" y="448" on="0"/>
        <pt x="76" y="464" on="0"/>
        <pt x="86" y="473" on="0"/>
        <pt x="98" y="478" on="0"/>
        <pt x="101" y="479" on="1"/>
        <pt x="234" y="521" on="1"/>
        <pt x="100" y="563" on="1"/>
        <pt x="80" y="569" on="0"/>
        <pt x="68" y="594" on="0"/>
        <pt x="68" y="606" on="1"/>
        <pt x="68" y="630" on="0"/>
        <pt x="101" y="664" on="0"/>
        <pt x="121" y="664" on="1"/>
        <pt x="126" y="664" on="0"/>
        <pt x="141" y="660" on="0"/>
        <pt x="154" y="648" on="1"/>
        <pt x="254" y="556" on="1"/>
        <pt x="226" y="687" on="1"/>
        <pt x="225" y="689" on="0"/>
        <pt x="222" y="705" on="0"/>
        <pt x="222" y="706" on="1"/>
        <pt x="222" y="723" on="0"/>
        <pt x="252" y="750" on="0"/>
        <pt x="275" y="750" on="1"/>
        <pt x="295" y="750" on="0"/>
        <pt x="327" y="725" on="0"/>
        <pt x="327" y="706" on="1"/>
        <pt x="327" y="705" on="0"/>
        <pt x="324" y="689" on="0"/>
        <pt x="323" y="687" on="1"/>
        <pt x="295" y="556" on="1"/>
        <pt x="396" y="648" on="1"/>
        <pt x="404" y="656" on="0"/>
        <pt x="417" y="664" on="0"/>
        <pt x="428" y="664" on="1"/>
        <pt x="448" y="664" on="0"/>
        <pt x="481" y="630" on="0"/>
        <pt x="481" y="606" on="1"/>
        <pt x="481" y="594" on="0"/>
        <pt x="473" y="578" on="0"/>
        <pt x="463" y="569" on="0"/>
        <pt x="451" y="564" on="0"/>
        <pt x="448" y="563" on="1"/>
        <pt x="315" y="521" on="1"/>
        <pt x="449" y="479" on="1"/>
        <pt x="469" y="473" on="0"/>
        <pt x="481" y="448" on="0"/>
        <pt x="481" y="436" on="1"/>
        <pt x="481" y="412" on="0"/>
        <pt x="448" y="378" on="0"/>
        <pt x="428" y="378" on="1"/>
        <pt x="423" y="378" on="0"/>
        <pt x="408" y="382" on="0"/>
        <pt x="395" y="394" on="1"/>
        <pt x="295" y="486" on="1"/>
      </contour>
    </TTGlyph>
    <TTGlyph name="at" xMin="61" yMin="-11" xMax="671" yMax="705">
      <contour>
        <pt x="644" y="101" on="1"/>
        <pt x="656" y="101" on="0"/>
        <pt x="671" y="98" on="0"/>
        <pt x="671" y="88" on="1"/>
        <pt x="671" y="83" on="0"/>
        <pt x="650" y="64" on="0"/>
        <pt x="620" y="44" on="0"/>
        <pt x="586" y="25" on="0"/>
        <pt x="573" y="19" on="1"/>
        <pt x="519" y="-4" on="0"/>
        <pt x="440" y="-11" on="0"/>
        <pt x="423" y="-11" on="1"/>
        <pt x="250" y="-11" on="0"/>
        <pt x="61" y="164" on="0"/>
        <pt x="61" y="347" on="1"/>
        <pt x="61" y="528" on="0"/>
        <pt x="246" y="705" on="0"/>
        <pt x="423" y="705" on="1"/>
        <pt x="503" y="705" on="0"/>
        <pt x="601" y="655" on="0"/>
        <pt x="654" y="565" on="0"/>
        <pt x="671" y="441" on="0"/>
        <pt x="671" y="367" on="1"/>
        <pt x="671" y="349" on="0"/>
        <pt x="669" y="297" on="0"/>
        <pt x="657" y="242" on="0"/>
        <pt x="632" y="188" on="0"/>
        <pt x="584" y="145" on="0"/>
        <pt x="511" y="118" on="0"/>
        <pt x="458" y="118" on="1"/>
        <pt x="348" y="118" on="0"/>
        <pt x="246" y="239" on="0"/>
        <pt x="246" y="347" on="1"/>
        <pt x="246" y="398" on="0"/>
        <pt x="269" y="482" on="0"/>
        <pt x="320" y="543" on="0"/>
        <pt x="401" y="576" on="0"/>
        <pt x="458" y="576" on="1"/>
        <pt x="467" y="576" on="0"/>
        <pt x="501" y="574" on="0"/>
        <pt x="524" y="569" on="1"/>
        <pt x="511" y="602" on="0"/>
        <pt x="457" y="633" on="0"/>
        <pt x="422" y="633" on="1"/>
        <pt x="354" y="633" on="0"/>
        <pt x="261" y="589" on="0"/>
        <pt x="205" y="512" on="0"/>
        <pt x="181" y="408" on="0"/>
        <pt x="181" y="347" on="1"/>
        <pt x="181" y="284" on="0"/>
        <pt x="206" y="179" on="0"/>
        <pt x="263" y="103" on="0"/>
        <pt x="357" y="61" on="0"/>
        <pt x="426" y="61" on="1"/>
        <pt x="480" y="61" on="0"/>
        <pt x="555" y="85" on="0"/>
        <pt x="581" y="97" on="1"/>
        <pt x="586" y="100" on="0"/>
        <pt x="594" y="101" on="0"/>
        <pt x="606" y="101" on="1"/>
      </contour>
      <contour>
        <pt x="459" y="190" on="1"/>
        <pt x="494" y="190" on="0"/>
        <pt x="531" y="228" on="0"/>
        <pt x="548" y="280" on="0"/>
        <pt x="551" y="333" on="0"/>
        <pt x="551" y="347" on="1"/>
        <pt x="551" y="362" on="0"/>
        <pt x="548" y="414" on="0"/>
        <pt x="531" y="466" on="0"/>
        <pt x="493" y="504" on="0"/>
        <pt x="458" y="504" on="1"/>
        <pt x="424" y="504" on="0"/>
        <pt x="386" y="466" on="0"/>
        <pt x="369" y="414" on="0"/>
        <pt x="366" y="361" on="0"/>
        <pt x="366" y="347" on="1"/>
        <pt x="366" y="332" on="0"/>
        <pt x="369" y="280" on="0"/>
        <pt x="386" y="228" on="0"/>
        <pt x="424" y="190" on="0"/>
      </contour>
    </TTGlyph>
    <TTGlyph name="b" xMin="61" yMin="-11" xMax="523" yMax="694">
      <contour>
        <pt x="194" y="413" on="1"/>
        <pt x="197" y="417" on="0"/>
        <pt x="219" y="435" on="0"/>
        <pt x="255" y="454" on="0"/>
        <pt x="304" y="469" on="0"/>
        <pt x="335" y="469" on="1"/>
        <pt x="382" y="469" on="0"/>
        <pt x="446" y="440" on="0"/>
        <pt x="488" y="396" on="0"/>
        <pt x="511" y="340" on="0"/>
        <pt x="521" y="288" on="0"/>
        <pt x="523" y="243" on="0"/>
        <pt x="523" y="231" on="1"/>
        <pt x="523" y="219" on="0"/>
        <pt x="521" y="173" on="0"/>
        <pt x="509" y="119" on="0"/>
        <pt x="484" y="63" on="0"/>
        <pt x="436" y="18" on="0"/>
        <pt x="363" y="-11" on="0"/>
        <pt x="310" y="-11" on="1"/>
        <pt x="304" y="-11" on="0"/>
        <pt x="280" y="-9" on="0"/>
        <pt x="249" y="0" on="0"/>
        <pt x="214" y="20" on="0"/>
        <pt x="197" y="39" on="1"/>
        <pt x="197" y="24" on="0"/>
        <pt x="186" y="9" on="0"/>
        <pt x="172" y="1" on="0"/>
        <pt x="155" y="0" on="0"/>
        <pt x="149" y="0" on="1"/>
        <pt x="109" y="0" on="1"/>
        <pt x="81" y="0" on="0"/>
        <pt x="61" y="21" on="0"/>
        <pt x="61" y="48" on="1"/>
        <pt x="61" y="646" on="1"/>
        <pt x="61" y="674" on="0"/>
        <pt x="82" y="694" on="0"/>
        <pt x="109" y="694" on="1"/>
        <pt x="146" y="694" on="1"/>
        <pt x="177" y="694" on="0"/>
        <pt x="194" y="670" on="0"/>
        <pt x="194" y="646" on="1"/>
      </contour>
      <contour>
        <pt x="197" y="100" on="1"/>
        <pt x="205" y="89" on="0"/>
        <pt x="243" y="61" on="0"/>
        <pt x="275" y="61" on="1"/>
        <pt x="317" y="61" on="0"/>
        <pt x="363" y="93" on="0"/>
        <pt x="384" y="143" on="0"/>
        <pt x="387" y="202" on="0"/>
        <pt x="387" y="230" on="1"/>
        <pt x="387" y="258" on="0"/>
        <pt x="384" y="317" on="0"/>
        <pt x="365" y="366" on="0"/>
        <pt x="324" y="397" on="0"/>
        <pt x="286" y="397" on="1"/>
        <pt x="251" y="397" on="0"/>
        <pt x="207" y="371" on="0"/>
        <pt x="197" y="362" on="1"/>
      </contour>
    </TTGlyph>
    <TTGlyph name="bracketleft" xMin="87" yMin="-250" xMax="318" yMax="750">
      <contour>
        <pt x="217" y="-178" on="1"/>
        <pt x="270" y="-178" on="1"/>
        <pt x="275" y="-178" on="0"/>
        <pt x="291" y="-179" on="0"/>
        <pt x="306" y="-186" on="0"/>
        <pt x="318" y="-201" on="0"/>
        <pt x="318" y="-214" on="1"/>
        <pt x="318" y="-228" on="0"/>
        <pt x="306" y="-242" on="0"/>
        <pt x="291" y="-249" on="0"/>
        <pt x="275" y="-250" on="0"/>
        <pt x="270" y="-250" on="1"/>
        <pt x="135" y="-250" on="1"/>
        <pt x="104" y="-250" on="0"/>
        <pt x="87" y="-226" on="0"/>
        <pt x="87" y="-202" on="1"/>
        <pt x="87" y="702" on="1"/>
        <pt x="87" y="728" on="0"/>
        <pt x="106" y="750" on="0"/>
        <pt x="135" y="750" on="1"/>
        <pt x="270" y="750" on="1"/>
        <pt x="275" y="750" on="0"/>
        <pt x="291" y="749" on="0"/>
        <pt x="306" y="742" on="0"/>
        <pt x="318" y="728" on="0"/>
        <pt x="318" y="714" on="1"/>
        <pt x="318" y="701" on="0"/>
        <pt x="306" y="686" on="0"/>
        <pt x="291" y="679" on="0"/>
        <pt x="275" y="678" on="0"/>
        <pt x="270" y="678" on="1"/>
        <pt x="217" y="678" on="1"/>
      </contour>
    </TTGlyph>
    <TTGlyph name="bracketright" xMin="24" yMin="-250" xMax="255" yMax="750">
      <contour>
        <pt x="255" y="-202" on="1"/>
        <pt x="255" y="-228" on="0"/>
        <pt x="236" y="-250" on="0"/>
        <pt x="207" y="-250" on="1"/>
        <pt x="72" y="-250" on="1"/>
        <pt x="68" y="-250" on="0"/>
        <pt x="51" y="-249" on="0"/>
        <pt x="36" y="-242" on="0"/>
        <pt x="24" y="-228" on="0"/>
        <pt x="24" y="-214" on="1"/>
        <pt x="24" y="-201" on="0"/>
        <pt x="36" y="-186" on="0"/>
        <pt x="51" y="-179" on="0"/>
        <pt x="68" y="-178" on="0"/>
        <pt x="72" y="-178" on="1"/>
        <pt x="125" y="-178" on="1"/>
        <pt x="125" y="678" on="1"/>
        <pt x="72" y="678" on="1"/>
        <pt x="68" y="678" on="0"/>
        <pt x="51" y="679" on="0"/>
        <pt x="36" y="686" on="0"/>
        <pt x="24" y="701" on="0"/>
        <pt x="24" y="714" on="1"/>
        <pt x="24" y="728" on="0"/>
        <pt x="36" y="742" on="0"/>
        <pt x="51" y="749" on="0"/>
        <pt x="68" y="750" on="0"/>
        <pt x="72" y="750" on="1"/>
        <pt x="207" y="750" on="1"/>
        <pt x="238" y="750" on="0"/>
        <pt x="255" y="726" on="0"/>
        <pt x="255" y="702" on="1"/>
      </contour>
    </TTGlyph>
    <TTGlyph name="breve" xMin="86" yMin="552" xMax="463" yMax="694">
      <contour>
        <pt x="391" y="658" on="1"/>
        <pt x="392" y="671" on="0"/>
        <pt x="402" y="685" on="0"/>
        <pt x="414" y="692" on="0"/>
        <pt x="425" y="694" on="0"/>
        <pt x="427" y="694" on="1"/>
        <pt x="438" y="694" on="0"/>
        <pt x="463" y="676" on="0"/>
        <pt x="463" y="656" on="1"/>
        <pt x="463" y="617" on="0"/>
        <pt x="417" y="575" on="0"/>
        <pt x="355" y="555" on="0"/>
        <pt x="292" y="552" on="0"/>
        <pt x="274" y="552" on="1"/>
        <pt x="257" y="552" on="0"/>
        <pt x="194" y="555" on="0"/>
        <pt x="132" y="575" on="0"/>
        <pt x="86" y="617" on="0"/>
        <pt x="86" y="656" on="1"/>
        <pt x="86" y="676" on="0"/>
        <pt x="110" y="694" on="0"/>
        <pt x="122" y="694" on="1"/>
        <pt x="124" y="694" on="0"/>
        <pt x="135" y="692" on="0"/>
        <pt x="147" y="685" on="0"/>
        <pt x="157" y="671" on="0"/>
        <pt x="158" y="658" on="1"/>
        <pt x="178" y="648" on="0"/>
        <pt x="237" y="645" on="0"/>
        <pt x="275" y="645" on="1"/>
        <pt x="312" y="645" on="0"/>
        <pt x="371" y="648" on="0"/>
      </contour>
    </TTGlyph>
    <TTGlyph name="c" xMin="37" yMin="-11" xMax="457" yMax="475">
      <contour>
        <pt x="457" y="50" on="1"/>
        <pt x="457" y="42" on="0"/>
        <pt x="449" y="35" on="0"/>
        <pt x="428" y="24" on="1"/>
        <pt x="403" y="11" on="0"/>
        <pt x="356" y="-3" on="0"/>
        <pt x="316" y="-10" on="0"/>
        <pt x="284" y="-11" on="0"/>
        <pt x="274" y="-11" on="1"/>
        <pt x="160" y="-11" on="0"/>
        <pt x="37" y="105" on="0"/>
        <pt x="37" y="230" on="1"/>
        <pt x="37" y="296" on="0"/>
        <pt x="71" y="389" on="0"/>
        <pt x="134" y="448" on="0"/>
        <pt x="223" y="475" on="0"/>
        <pt x="279" y="475" on="1"/>
        <pt x="305" y="475" on="0"/>
        <pt x="345" y="471" on="0"/>
        <pt x="378" y="463" on="0"/>
        <pt x="409" y="451" on="0"/>
        <pt x="427" y="443" on="1"/>
        <pt x="440" y="437" on="0"/>
        <pt x="451" y="429" on="0"/>
        <pt x="451" y="422" on="1"/>
        <pt x="451" y="420" on="0"/>
        <pt x="448" y="400" on="0"/>
        <pt x="444" y="377" on="0"/>
        <pt x="440" y="356" on="0"/>
        <pt x="439" y="353" on="1"/>
        <pt x="438" y="350" on="0"/>
        <pt x="434" y="340" on="0"/>
        <pt x="426" y="340" on="1"/>
        <pt x="423" y="340" on="0"/>
        <pt x="417" y="343" on="0"/>
        <pt x="408" y="351" on="1"/>
        <pt x="395" y="362" on="0"/>
        <pt x="369" y="379" on="0"/>
        <pt x="340" y="391" on="0"/>
        <pt x="304" y="397" on="0"/>
        <pt x="280" y="397" on="1"/>
        <pt x="242" y="397" on="0"/>
        <pt x="199" y="368" on="0"/>
        <pt x="178" y="322" on="0"/>
        <pt x="173" y="262" on="0"/>
        <pt x="173" y="232" on="1"/>
        <pt x="173" y="208" on="0"/>
        <pt x="176" y="150" on="0"/>
        <pt x="196" y="101" on="0"/>
        <pt x="238" y="67" on="0"/>
        <pt x="277" y="67" on="1"/>
        <pt x="308" y="67" on="0"/>
        <pt x="356" y="80" on="0"/>
        <pt x="392" y="98" on="0"/>
        <pt x="417" y="117" on="0"/>
        <pt x="423" y="123" on="1"/>
        <pt x="431" y="131" on="0"/>
        <pt x="436" y="133" on="0"/>
        <pt x="439" y="133" on="1"/>
        <pt x="447" y="133" on="0"/>
        <pt x="451" y="122" on="0"/>
        <pt x="451" y="120" on="1"/>
        <pt x="452" y="115" on="0"/>
        <pt x="454" y="95" on="0"/>
        <pt x="456" y="73" on="0"/>
        <pt x="457" y="54" on="0"/>
      </contour>
    </TTGlyph>
    <TTGlyph name="caron" xMin="108" yMin="500" xMax="441" yMax="657">
      <contour>
        <pt x="333" y="510" on="1"/>
        <pt x="327" y="502" on="0"/>
        <pt x="319" y="500" on="0"/>
        <pt x="304" y="500" on="1"/>
        <pt x="245" y="500" on="1"/>
        <pt x="231" y="500" on="0"/>
        <pt x="223" y="504" on="0"/>
        <pt x="215" y="512" on="1"/>
        <pt x="116" y="631" on="1"/>
        <pt x="111" y="637" on="0"/>
        <pt x="108" y="641" on="0"/>
        <pt x="108" y="645" on="1"/>
        <pt x="108" y="654" on="0"/>
        <pt x="124" y="657" on="0"/>
        <pt x="135" y="657" on="1"/>
        <pt x="153" y="657" on="1"/>
        <pt x="167" y="657" on="0"/>
        <pt x="175" y="655" on="0"/>
        <pt x="183" y="648" on="1"/>
        <pt x="274" y="574" on="1"/>
        <pt x="377" y="657" on="1"/>
        <pt x="414" y="657" on="1"/>
        <pt x="425" y="657" on="0"/>
        <pt x="441" y="654" on="0"/>
        <pt x="441" y="645" on="1"/>
        <pt x="441" y="643" on="0"/>
        <pt x="439" y="637" on="0"/>
        <pt x="432" y="629" on="1"/>
      </contour>
    </TTGlyph>
    <TTGlyph name="cedilla" xMin="147" yMin="-192" xMax="310" yMax="-24">
      <contour>
        <pt x="254" y="-174" on="1"/>
        <pt x="248" y="-188" on="0"/>
        <pt x="240" y="-192" on="0"/>
        <pt x="223" y="-192" on="1"/>
        <pt x="173" y="-192" on="1"/>
        <pt x="161" y="-192" on="0"/>
        <pt x="147" y="-189" on="0"/>
        <pt x="147" y="-179" on="1"/>
        <pt x="147" y="-177" on="0"/>
        <pt x="170" y="-139" on="0"/>
        <pt x="200" y="-93" on="0"/>
        <pt x="227" y="-51" on="0"/>
        <pt x="231" y="-45" on="1"/>
        <pt x="241" y="-30" on="0"/>
        <pt x="250" y="-24" on="0"/>
        <pt x="266" y="-24" on="1"/>
        <pt x="284" y="-24" on="1"/>
        <pt x="296" y="-24" on="0"/>
        <pt x="310" y="-27" on="0"/>
        <pt x="310" y="-37" on="1"/>
        <pt x="310" y="-38" on="0"/>
        <pt x="309" y="-43" on="0"/>
        <pt x="305" y="-53" on="1"/>
      </contour>
    </TTGlyph>
    <TTGlyph name="circumflex" xMin="108" yMin="537" xMax="441" yMax="694">
      <contour>
        <pt x="433" y="563" on="1"/>
        <pt x="438" y="557" on="0"/>
        <pt x="441" y="553" on="0"/>
        <pt x="441" y="549" on="1"/>
        <pt x="441" y="540" on="0"/>
        <pt x="425" y="537" on="0"/>
        <pt x="414" y="537" on="1"/>
        <pt x="396" y="537" on="1"/>
        <pt x="382" y="537" on="0"/>
        <pt x="374" y="539" on="0"/>
        <pt x="366" y="546" on="1"/>
        <pt x="275" y="620" on="1"/>
        <pt x="172" y="537" on="1"/>
        <pt x="135" y="537" on="1"/>
        <pt x="124" y="537" on="0"/>
        <pt x="108" y="540" on="0"/>
        <pt x="108" y="549" on="1"/>
        <pt x="108" y="551" on="0"/>
        <pt x="110" y="557" on="0"/>
        <pt x="117" y="565" on="1"/>
        <pt x="215" y="683" on="1"/>
        <pt x="222" y="691" on="0"/>
        <pt x="231" y="694" on="0"/>
        <pt x="245" y="694" on="1"/>
        <pt x="304" y="694" on="1"/>
        <pt x="318" y="694" on="0"/>
        <pt x="326" y="691" on="0"/>
        <pt x="333" y="683" on="1"/>
      </contour>
    </TTGlyph>
    <TTGlyph name="colon" xMin="87" yMin="0" xMax="218" yMax="458">
      <contour>
        <pt x="218" y="354" on="1"/>
        <pt x="218" y="334" on="0"/>
        <pt x="211" y="327" on="0"/>
        <pt x="191" y="327" on="1"/>
        <pt x="114" y="327" on="1"/>
        <pt x="94" y="327" on="0"/>
        <pt x="87" y="334" on="0"/>
        <pt x="87" y="354" on="1"/>
        <pt x="87" y="431" on="1"/>
        <pt x="87" y="451" on="0"/>
        <pt x="94" y="458" on="0"/>
        <pt x="114" y="458" on="1"/>
        <pt x="191" y="458" on="1"/>
        <pt x="211" y="458" on="0"/>
        <pt x="218" y="451" on="0"/>
        <pt x="218" y="431" on="1"/>
      </contour>
      <contour>
        <pt x="87" y="104" on="1"/>
        <pt x="87" y="124" on="0"/>
        <pt x="94" y="131" on="0"/>
        <pt x="114" y="131" on="1"/>
        <pt x="191" y="131" on="1"/>
        <pt x="211" y="131" on="0"/>
        <pt x="218" y="124" on="0"/>
        <pt x="218" y="104" on="1"/>
        <pt x="218" y="27" on="1"/>
        <pt x="218" y="7" on="0"/>
        <pt x="211" y="0" on="0"/>
        <pt x="191" y="0" on="1"/>
        <pt x="114" y="0" on="1"/>
        <pt x="94" y="0" on="0"/>
        <pt x="87" y="7" on="0"/>
        <pt x="87" y="27" on="1"/>
      </contour>
    </TTGlyph>
    <TTGlyph name="comma" xMin="87" yMin="-106" xMax="218" yMax="131">
      <contour>
        <pt x="218" y="27" on="1"/>
        <pt x="218" y="14" on="0"/>
        <pt x="216" y="5" on="0"/>
        <pt x="209" y="-6" on="1"/>
        <pt x="196" y="-27" on="0"/>
        <pt x="171" y="-69" on="0"/>
        <pt x="157" y="-89" on="1"/>
        <pt x="149" y="-101" on="0"/>
        <pt x="141" y="-106" on="0"/>
        <pt x="126" y="-106" on="1"/>
        <pt x="114" y="-106" on="1"/>
        <pt x="102" y="-106" on="0"/>
        <pt x="88" y="-103" on="0"/>
        <pt x="88" y="-93" on="1"/>
        <pt x="88" y="-92" on="0"/>
        <pt x="97" y="-66" on="0"/>
        <pt x="109" y="-33" on="0"/>
        <pt x="120" y="-4" on="0"/>
        <pt x="121" y="0" on="1"/>
        <pt x="109" y="0" on="0"/>
        <pt x="95" y="1" on="0"/>
        <pt x="88" y="6" on="0"/>
        <pt x="87" y="17" on="0"/>
        <pt x="87" y="27" on="1"/>
        <pt x="87" y="104" on="1"/>
        <pt x="87" y="124" on="0"/>
        <pt x="94" y="131" on="0"/>
        <pt x="114" y="131" on="1"/>
        <pt x="191" y="131" on="1"/>
        <pt x="211" y="131" on="0"/>
        <pt x="218" y="124" on="0"/>
        <pt x="218" y="104" on="1"/>
      </contour>
    </TTGlyph>
    <TTGlyph name="d" xMin="37" yMin="-11" xMax="499" yMax="694">
      <contour>
        <pt x="499" y="48" on="1"/>
        <pt x="499" y="22" on="0"/>
        <pt x="480" y="0" on="0"/>
        <pt x="451" y="0" on="1"/>
        <pt x="411" y="0" on="1"/>
        <pt x="385" y="0" on="0"/>
        <pt x="363" y="19" on="0"/>
        <pt x="363" y="47" on="1"/>
        <pt x="331" y="12" on="0"/>
        <pt x="267" y="-11" on="0"/>
        <pt x="235" y="-11" on="1"/>
        <pt x="186" y="-11" on="0"/>
        <pt x="118" y="18" on="0"/>
        <pt x="74" y="63" on="0"/>
        <pt x="50" y="119" on="0"/>
        <pt x="39" y="172" on="0"/>
        <pt x="37" y="217" on="0"/>
        <pt x="37" y="228" on="1"/>
        <pt x="37" y="240" on="0"/>
        <pt x="39" y="285" on="0"/>
        <pt x="50" y="339" on="0"/>
        <pt x="75" y="395" on="0"/>
        <pt x="120" y="440" on="0"/>
        <pt x="189" y="469" on="0"/>
        <pt x="240" y="469" on="1"/>
        <pt x="263" y="469" on="0"/>
        <pt x="332" y="451" on="0"/>
        <pt x="366" y="419" on="1"/>
        <pt x="366" y="646" on="1"/>
        <pt x="366" y="672" on="0"/>
        <pt x="385" y="694" on="0"/>
        <pt x="414" y="694" on="1"/>
        <pt x="451" y="694" on="1"/>
        <pt x="482" y="694" on="0"/>
        <pt x="499" y="670" on="0"/>
        <pt x="499" y="646" on="1"/>
      </contour>
      <contour>
        <pt x="363" y="366" on="1"/>
        <pt x="331" y="397" on="0"/>
        <pt x="285" y="397" on="1"/>
        <pt x="243" y="397" on="0"/>
        <pt x="198" y="365" on="0"/>
        <pt x="177" y="316" on="0"/>
        <pt x="173" y="256" on="0"/>
        <pt x="173" y="228" on="1"/>
        <pt x="173" y="200" on="0"/>
        <pt x="176" y="141" on="0"/>
        <pt x="195" y="92" on="0"/>
        <pt x="236" y="61" on="0"/>
        <pt x="274" y="61" on="1"/>
        <pt x="283" y="61" on="0"/>
        <pt x="315" y="67" on="0"/>
        <pt x="334" y="79" on="1"/>
        <pt x="356" y="94" on="0"/>
        <pt x="363" y="112" on="0"/>
        <pt x="363" y="125" on="1"/>
      </contour>
    </TTGlyph>
    <TTGlyph name="dieresis" xMin="98" yMin="580" xMax="451" yMax="695">
      <contour>
        <pt x="191" y="695" on="1"/>
        <pt x="209" y="695" on="0"/>
        <pt x="229" y="686" on="0"/>
        <pt x="238" y="671" on="0"/>
        <pt x="239" y="650" on="0"/>
        <pt x="239" y="637" on="1"/>
        <pt x="239" y="625" on="0"/>
        <pt x="238" y="604" on="0"/>
        <pt x="229" y="589" on="0"/>
        <pt x="209" y="580" on="0"/>
        <pt x="191" y="580" on="1"/>
        <pt x="146" y="580" on="1"/>
        <pt x="120" y="580" on="0"/>
        <pt x="98" y="598" on="0"/>
        <pt x="98" y="626" on="1"/>
        <pt x="98" y="649" on="1"/>
        <pt x="98" y="679" on="0"/>
        <pt x="122" y="695" on="0"/>
        <pt x="146" y="695" on="1"/>
      </contour>
      <contour>
        <pt x="358" y="580" on="1"/>
        <pt x="340" y="580" on="0"/>
        <pt x="321" y="589" on="0"/>
        <pt x="312" y="604" on="0"/>
        <pt x="310" y="625" on="0"/>
        <pt x="310" y="638" on="1"/>
        <pt x="310" y="650" on="0"/>
        <pt x="312" y="671" on="0"/>
        <pt x="321" y="686" on="0"/>
        <pt x="340" y="695" on="0"/>
        <pt x="358" y="695" on="1"/>
        <pt x="403" y="695" on="1"/>
        <pt x="429" y="695" on="0"/>
        <pt x="451" y="677" on="0"/>
        <pt x="451" y="649" on="1"/>
        <pt x="451" y="626" on="1"/>
        <pt x="451" y="596" on="0"/>
        <pt x="427" y="580" on="0"/>
        <pt x="403" y="580" on="1"/>
      </contour>
    </TTGlyph>
    <TTGlyph name="dollar" xMin="49" yMin="-56" xMax="488" yMax="750">
      <contour>
        <pt x="311" y="428" on="1"/>
        <pt x="349" y="421" on="0"/>
        <pt x="414" y="382" on="0"/>
        <pt x="461" y="324" on="0"/>
        <pt x="488" y="250" on="0"/>
        <pt x="488" y="207" on="1"/>
        <pt x="488" y="115" on="0"/>
        <pt x="404" y="2" on="0"/>
        <pt x="311" y="-9" on="1"/>
        <pt x="311" y="-13" on="0"/>
        <pt x="310" y="-29" on="0"/>
        <pt x="303" y="-44" on="0"/>
        <pt x="289" y="-56" on="0"/>
        <pt x="275" y="-56" on="1"/>
        <pt x="262" y="-56" on="0"/>
        <pt x="247" y="-44" on="0"/>
        <pt x="240" y="-28" on="0"/>
        <pt x="239" y="-13" on="0"/>
        <pt x="239" y="-9" on="1"/>
        <pt x="181" y="-4" on="0"/>
        <pt x="98" y="31" on="0"/>
        <pt x="74" y="47" on="1"/>
        <pt x="56" y="59" on="0"/>
        <pt x="49" y="66" on="0"/>
        <pt x="49" y="71" on="1"/>
        <pt x="49" y="75" on="0"/>
        <pt x="53" y="97" on="0"/>
        <pt x="58" y="123" on="0"/>
        <pt x="62" y="147" on="0"/>
        <pt x="63" y="152" on="1"/>
        <pt x="64" y="157" on="0"/>
        <pt x="68" y="167" on="0"/>
        <pt x="76" y="167" on="1"/>
        <pt x="83" y="167" on="0"/>
        <pt x="88" y="162" on="1"/>
        <pt x="118" y="135" on="0"/>
        <pt x="194" y="97" on="0"/>
        <pt x="239" y="91" on="1"/>
        <pt x="239" y="294" on="1"/>
        <pt x="200" y="301" on="0"/>
        <pt x="135" y="337" on="0"/>
        <pt x="88" y="392" on="0"/>
        <pt x="61" y="461" on="0"/>
        <pt x="61" y="501" on="1"/>
        <pt x="61" y="591" on="0"/>
        <pt x="148" y="695" on="0"/>
        <pt x="239" y="703" on="1"/>
        <pt x="239" y="707" on="0"/>
        <pt x="240" y="722" on="0"/>
        <pt x="247" y="738" on="0"/>
        <pt x="262" y="750" on="0"/>
        <pt x="275" y="750" on="1"/>
        <pt x="289" y="750" on="0"/>
        <pt x="303" y="738" on="0"/>
        <pt x="310" y="723" on="0"/>
        <pt x="311" y="707" on="0"/>
        <pt x="311" y="704" on="1"/>
        <pt x="322" y="703" on="0"/>
        <pt x="377" y="693" on="0"/>
        <pt x="405" y="680" on="1"/>
        <pt x="406" y="680" on="0"/>
        <pt x="426" y="671" on="0"/>
        <pt x="450" y="657" on="0"/>
        <pt x="470" y="642" on="0"/>
        <pt x="470" y="636" on="1"/>
        <pt x="470" y="629" on="0"/>
        <pt x="468" y="623" on="1"/>
        <pt x="458" y="566" on="1"/>
        <pt x="456" y="556" on="0"/>
        <pt x="451" y="544" on="0"/>
        <pt x="443" y="544" on="1"/>
        <pt x="441" y="544" on="0"/>
        <pt x="437" y="545" on="0"/>
        <pt x="432" y="549" on="1"/>
        <pt x="413" y="564" on="0"/>
        <pt x="357" y="598" on="0"/>
        <pt x="311" y="603" on="1"/>
      </contour>
      <contour>
        <pt x="239" y="602" on="1"/>
        <pt x="206" y="595" on="0"/>
        <pt x="177" y="553" on="0"/>
        <pt x="177" y="524" on="1"/>
        <pt x="177" y="495" on="0"/>
        <pt x="211" y="455" on="0"/>
        <pt x="239" y="445" on="1"/>
      </contour>
      <contour>
        <pt x="311" y="93" on="1"/>
        <pt x="322" y="96" on="0"/>
        <pt x="344" y="107" on="0"/>
        <pt x="361" y="128" on="0"/>
        <pt x="372" y="160" on="0"/>
        <pt x="372" y="184" on="1"/>
        <pt x="372" y="216" on="0"/>
        <pt x="339" y="265" on="0"/>
        <pt x="311" y="276" on="1"/>
      </contour>
    </TTGlyph>
    <TTGlyph name="dotaccent" xMin="79" yMin="580" xMax="226" yMax="695">
      <contour>
        <pt x="226" y="628" on="1"/>
        <pt x="226" y="605" on="0"/>
        <pt x="210" y="580" on="0"/>
        <pt x="178" y="580" on="1"/>
        <pt x="127" y="580" on="1"/>
        <pt x="95" y="580" on="0"/>
        <pt x="79" y="606" on="0"/>
        <pt x="79" y="628" on="1"/>
        <pt x="79" y="647" on="1"/>
        <pt x="79" y="673" on="0"/>
        <pt x="98" y="695" on="0"/>
        <pt x="127" y="695" on="1"/>
        <pt x="178" y="695" on="1"/>
        <pt x="209" y="695" on="0"/>
        <pt x="226" y="671" on="0"/>
        <pt x="226" y="647" on="1"/>
      </contour>
    </TTGlyph>
    <TTGlyph name="dotlessi" xMin="61" yMin="0" xMax="194" yMax="458">
      <contour>
        <pt x="194" y="48" on="1"/>
        <pt x="194" y="22" on="0"/>
        <pt x="175" y="0" on="0"/>
        <pt x="146" y="0" on="1"/>
        <pt x="109" y="0" on="1"/>
        <pt x="81" y="0" on="0"/>
        <pt x="61" y="21" on="0"/>
        <pt x="61" y="48" on="1"/>
        <pt x="61" y="410" on="1"/>
        <pt x="61" y="438" on="0"/>
        <pt x="82" y="458" on="0"/>
        <pt x="109" y="458" on="1"/>
        <pt x="146" y="458" on="1"/>
        <pt x="177" y="458" on="0"/>
        <pt x="194" y="434" on="0"/>
        <pt x="194" y="410" on="1"/>
      </contour>
    </TTGlyph>
    <TTGlyph name="e" xMin="31" yMin="-11" xMax="479" yMax="475">
      <contour>
        <pt x="159" y="214" on="1"/>
        <pt x="160" y="190" on="0"/>
        <pt x="169" y="136" on="0"/>
        <pt x="195" y="91" on="0"/>
        <pt x="245" y="61" on="0"/>
        <pt x="287" y="61" on="1"/>
        <pt x="299" y="61" on="0"/>
        <pt x="333" y="65" on="0"/>
        <pt x="372" y="77" on="0"/>
        <pt x="416" y="100" on="0"/>
        <pt x="438" y="119" on="1"/>
        <pt x="446" y="127" on="0"/>
        <pt x="452" y="129" on="0"/>
        <pt x="455" y="129" on="1"/>
        <pt x="462" y="129" on="0"/>
        <pt x="466" y="120" on="0"/>
        <pt x="469" y="97" on="1"/>
        <pt x="469" y="94" on="0"/>
        <pt x="471" y="81" on="0"/>
        <pt x="472" y="68" on="0"/>
        <pt x="473" y="56" on="0"/>
        <pt x="473" y="53" on="1"/>
        <pt x="473" y="44" on="0"/>
        <pt x="461" y="35" on="0"/>
        <pt x="444" y="27" on="1"/>
        <pt x="394" y="2" on="0"/>
        <pt x="312" y="-11" on="0"/>
        <pt x="283" y="-11" on="1"/>
        <pt x="165" y="-11" on="0"/>
        <pt x="31" y="109" on="0"/>
        <pt x="31" y="233" on="1"/>
        <pt x="31" y="348" on="0"/>
        <pt x="149" y="475" on="0"/>
        <pt x="270" y="475" on="1"/>
        <pt x="326" y="475" on="0"/>
        <pt x="405" y="444" on="0"/>
        <pt x="456" y="388" on="0"/>
        <pt x="479" y="308" on="0"/>
        <pt x="479" y="260" on="1"/>
        <pt x="479" y="243" on="0"/>
        <pt x="470" y="225" on="0"/>
        <pt x="457" y="216" on="0"/>
        <pt x="440" y="214" on="0"/>
        <pt x="431" y="214" on="1"/>
      </contour>
      <contour>
        <pt x="368" y="267" on="1"/>
        <pt x="367" y="296" on="0"/>
        <pt x="358" y="346" on="0"/>
        <pt x="337" y="382" on="0"/>
        <pt x="300" y="403" on="0"/>
        <pt x="270" y="403" on="1"/>
        <pt x="237" y="403" on="0"/>
        <pt x="196" y="378" on="0"/>
        <pt x="171" y="338" on="0"/>
        <pt x="161" y="290" on="0"/>
        <pt x="160" y="267" on="1"/>
      </contour>
    </TTGlyph>
    <TTGlyph name="eight" xMin="46" yMin="-22" xMax="503" yMax="716">
      <contour>
        <pt x="380" y="374" on="1"/>
        <pt x="440" y="357" on="0"/>
        <pt x="503" y="272" on="0"/>
        <pt x="503" y="203" on="1"/>
        <pt x="503" y="-22" on="0"/>
        <pt x="274" y="-22" on="1"/>
        <pt x="166" y="-22" on="0"/>
        <pt x="46" y="86" on="0"/>
        <pt x="46" y="203" on="1"/>
        <pt x="46" y="227" on="0"/>
        <pt x="55" y="278" on="0"/>
        <pt x="82" y="325" on="0"/>
        <pt x="130" y="363" on="0"/>
        <pt x="169" y="374" on="1"/>
        <pt x="135" y="385" on="0"/>
        <pt x="93" y="419" on="0"/>
        <pt x="69" y="459" on="0"/>
        <pt x="61" y="501" on="0"/>
        <pt x="61" y="521" on="1"/>
        <pt x="61" y="580" on="0"/>
        <pt x="97" y="655" on="0"/>
        <pt x="157" y="699" on="0"/>
        <pt x="234" y="716" on="0"/>
        <pt x="275" y="716" on="1"/>
        <pt x="320" y="716" on="0"/>
        <pt x="397" y="696" on="0"/>
        <pt x="455" y="651" on="0"/>
        <pt x="488" y="576" on="0"/>
        <pt x="488" y="521" on="1"/>
        <pt x="488" y="504" on="0"/>
        <pt x="481" y="463" on="0"/>
        <pt x="459" y="422" on="0"/>
        <pt x="416" y="386" on="0"/>
      </contour>
      <contour>
        <pt x="275" y="411" on="1"/>
        <pt x="307" y="411" on="0"/>
        <pt x="341" y="429" on="0"/>
        <pt x="357" y="459" on="0"/>
        <pt x="360" y="498" on="0"/>
        <pt x="360" y="520" on="1"/>
        <pt x="360" y="547" on="0"/>
        <pt x="355" y="587" on="0"/>
        <pt x="338" y="614" on="0"/>
        <pt x="304" y="627" on="0"/>
        <pt x="274" y="627" on="1"/>
        <pt x="244" y="627" on="0"/>
        <pt x="210" y="613" on="0"/>
        <pt x="193" y="586" on="0"/>
        <pt x="189" y="546" on="0"/>
        <pt x="189" y="520" on="1"/>
        <pt x="189" y="498" on="0"/>
        <pt x="192" y="458" on="0"/>
        <pt x="209" y="428" on="0"/>
        <pt x="244" y="411" on="0"/>
      </contour>
      <contour>
        <pt x="275" y="72" on="1"/>
        <pt x="308" y="72" on="0"/>
        <pt x="344" y="92" on="0"/>
        <pt x="361" y="128" on="0"/>
        <pt x="364" y="177" on="0"/>
        <pt x="364" y="205" on="1"/>
        <pt x="364" y="230" on="0"/>
        <pt x="361" y="278" on="0"/>
        <pt x="344" y="316" on="0"/>
        <pt x="308" y="339" on="0"/>
        <pt x="274" y="339" on="1"/>
        <pt x="241" y="339" on="0"/>
        <pt x="204" y="315" on="0"/>
        <pt x="188" y="277" on="0"/>
        <pt x="185" y="229" on="0"/>
        <pt x="185" y="205" on="1"/>
        <pt x="185" y="176" on="0"/>
        <pt x="188" y="127" on="0"/>
        <pt x="206" y="92" on="0"/>
        <pt x="242" y="72" on="0"/>
      </contour>
    </TTGlyph>
    <TTGlyph name="emdash" xMin="0" yMin="247" xMax="1099" yMax="319">
      <contour>
        <pt x="48" y="247" on="1"/>
        <pt x="44" y="247" on="0"/>
        <pt x="27" y="248" on="0"/>
        <pt x="12" y="255" on="0"/>
        <pt x="0" y="270" on="0"/>
        <pt x="0" y="283" on="1"/>
        <pt x="0" y="297" on="0"/>
        <pt x="12" y="311" on="0"/>
        <pt x="27" y="318" on="0"/>
        <pt x="44" y="319" on="0"/>
        <pt x="48" y="319" on="1"/>
        <pt x="1051" y="319" on="1"/>
        <pt x="1056" y="319" on="0"/>
        <pt x="1072" y="318" on="0"/>
        <pt x="1087" y="311" on="0"/>
        <pt x="1099" y="297" on="0"/>
        <pt x="1099" y="283" on="1"/>
        <pt x="1099" y="270" on="0"/>
        <pt x="1087" y="255" on="0"/>
        <pt x="1072" y="248" on="0"/>
        <pt x="1056" y="247" on="0"/>
        <pt x="1051" y="247" on="1"/>
      </contour>
    </TTGlyph>
    <TTGlyph name="endash" xMin="0" yMin="247" xMax="549" yMax="319">
      <contour>
        <pt x="48" y="247" on="1"/>
        <pt x="44" y="247" on="0"/>
        <pt x="27" y="248" on="0"/>
        <pt x="12" y="255" on="0"/>
        <pt x="0" y="270" on="0"/>
        <pt x="0" y="283" on="1"/>
        <pt x="0" y="297" on="0"/>
        <pt x="12" y="311" on="0"/>
        <pt x="27" y="318" on="0"/>
        <pt x="44" y="319" on="0"/>
        <pt x="48" y="319" on="1"/>
        <pt x="501" y="319" on="1"/>
        <pt x="506" y="319" on="0"/>
        <pt x="522" y="318" on="0"/>
        <pt x="537" y="311" on="0"/>
        <pt x="549" y="297" on="0"/>
        <pt x="549" y="283" on="1"/>
        <pt x="549" y="270" on="0"/>
        <pt x="537" y="255" on="0"/>
        <pt x="522" y="248" on="0"/>
        <pt x="506" y="247" on="0"/>
        <pt x="501" y="247" on="1"/>
      </contour>
    </TTGlyph>
    <TTGlyph name="equal" xMin="61" yMin="93" xMax="794" yMax="407">
      <contour>
        <pt x="115" y="323" on="1"/>
        <pt x="111" y="323" on="0"/>
        <pt x="93" y="324" on="0"/>
        <pt x="75" y="332" on="0"/>
        <pt x="61" y="349" on="0"/>
        <pt x="61" y="365" on="1"/>
        <pt x="61" y="381" on="0"/>
        <pt x="75" y="398" on="0"/>
        <pt x="93" y="406" on="0"/>
        <pt x="110" y="407" on="0"/>
        <pt x="114" y="407" on="1"/>
        <pt x="741" y="407" on="1"/>
        <pt x="745" y="407" on="0"/>
        <pt x="762" y="406" on="0"/>
        <pt x="780" y="398" on="0"/>
        <pt x="794" y="381" on="0"/>
        <pt x="794" y="365" on="1"/>
        <pt x="794" y="349" on="0"/>
        <pt x="781" y="332" on="0"/>
        <pt x="763" y="324" on="0"/>
        <pt x="745" y="323" on="0"/>
        <pt x="740" y="323" on="1"/>
      </contour>
      <contour>
        <pt x="114" y="93" on="1"/>
        <pt x="110" y="93" on="0"/>
        <pt x="93" y="94" on="0"/>
        <pt x="75" y="102" on="0"/>
        <pt x="61" y="119" on="0"/>
        <pt x="61" y="135" on="1"/>
        <pt x="61" y="151" on="0"/>
        <pt x="75" y="168" on="0"/>
        <pt x="93" y="176" on="0"/>
        <pt x="111" y="177" on="0"/>
        <pt x="115" y="177" on="1"/>
        <pt x="740" y="177" on="1"/>
        <pt x="744" y="177" on="0"/>
        <pt x="762" y="176" on="0"/>
        <pt x="780" y="168" on="0"/>
        <pt x="794" y="151" on="0"/>
        <pt x="794" y="135" on="1"/>
        <pt x="794" y="119" on="0"/>
        <pt x="780" y="102" on="0"/>
        <pt x="762" y="94" on="0"/>
        <pt x="745" y="93" on="0"/>
        <pt x="741" y="93" on="1"/>
      </contour>
    </TTGlyph>
    <TTGlyph name="exclam" xMin="118" yMin="0" xMax="249" yMax="694">
      <contour>
        <pt x="222" y="694" on="1"/>
        <pt x="239" y="694" on="0"/>
        <pt x="249" y="689" on="0"/>
        <pt x="249" y="673" on="1"/>
        <pt x="249" y="617" on="0"/>
        <pt x="244" y="504" on="0"/>
        <pt x="243" y="448" on="1"/>
        <pt x="242" y="393" on="0"/>
        <pt x="239" y="279" on="0"/>
        <pt x="236" y="224" on="1"/>
        <pt x="235" y="204" on="0"/>
        <pt x="228" y="196" on="0"/>
        <pt x="208" y="196" on="1"/>
        <pt x="159" y="196" on="1"/>
        <pt x="145" y="196" on="0"/>
        <pt x="134" y="198" on="0"/>
        <pt x="132" y="206" on="1"/>
        <pt x="132" y="207" on="0"/>
        <pt x="129" y="272" on="0"/>
        <pt x="126" y="371" on="0"/>
        <pt x="123" y="487" on="0"/>
        <pt x="120" y="590" on="0"/>
        <pt x="118" y="665" on="0"/>
        <pt x="118" y="673" on="1"/>
        <pt x="118" y="689" on="0"/>
        <pt x="128" y="694" on="0"/>
        <pt x="145" y="694" on="1"/>
      </contour>
      <contour>
        <pt x="249" y="48" on="1"/>
        <pt x="249" y="22" on="0"/>
        <pt x="230" y="0" on="0"/>
        <pt x="201" y="0" on="1"/>
        <pt x="166" y="0" on="1"/>
        <pt x="138" y="0" on="0"/>
        <pt x="118" y="21" on="0"/>
        <pt x="118" y="48" on="1"/>
        <pt x="118" y="83" on="1"/>
        <pt x="118" y="109" on="0"/>
        <pt x="137" y="131" on="0"/>
        <pt x="166" y="131" on="1"/>
        <pt x="201" y="131" on="1"/>
        <pt x="232" y="131" on="0"/>
        <pt x="249" y="107" on="0"/>
        <pt x="249" y="83" on="1"/>
      </contour>
    </TTGlyph>
    <TTGlyph name="exclamdown" xMin="118" yMin="-194" xMax="249" yMax="500">
      <contour>
        <pt x="249" y="417" on="1"/>
        <pt x="249" y="391" on="0"/>
        <pt x="230" y="369" on="0"/>
        <pt x="201" y="369" on="1"/>
        <pt x="166" y="369" on="1"/>
        <pt x="135" y="369" on="0"/>
        <pt x="118" y="393" on="0"/>
        <pt x="118" y="417" on="1"/>
        <pt x="118" y="452" on="1"/>
        <pt x="118" y="480" on="0"/>
        <pt x="139" y="500" on="0"/>
        <pt x="166" y="500" on="1"/>
        <pt x="201" y="500" on="1"/>
        <pt x="232" y="500" on="0"/>
        <pt x="249" y="476" on="0"/>
        <pt x="249" y="452" on="1"/>
      </contour>
      <contour>
        <pt x="208" y="304" on="1"/>
        <pt x="222" y="304" on="0"/>
        <pt x="233" y="302" on="0"/>
        <pt x="235" y="294" on="1"/>
        <pt x="236" y="293" on="0"/>
        <pt x="238" y="228" on="0"/>
        <pt x="241" y="129" on="0"/>
        <pt x="244" y="13" on="0"/>
        <pt x="247" y="-90" on="0"/>
        <pt x="249" y="-165" on="0"/>
        <pt x="249" y="-173" on="1"/>
        <pt x="249" y="-189" on="0"/>
        <pt x="239" y="-194" on="0"/>
        <pt x="222" y="-194" on="1"/>
        <pt x="145" y="-194" on="1"/>
        <pt x="128" y="-194" on="0"/>
        <pt x="118" y="-189" on="0"/>
        <pt x="118" y="-173" on="1"/>
        <pt x="118" y="-117" on="0"/>
        <pt x="123" y="-4" on="0"/>
        <pt x="124" y="52" on="1"/>
        <pt x="125" y="107" on="0"/>
        <pt x="128" y="221" on="0"/>
        <pt x="131" y="276" on="1"/>
        <pt x="132" y="296" on="0"/>
        <pt x="139" y="304" on="0"/>
        <pt x="159" y="304" on="1"/>
      </contour>
    </TTGlyph>
    <TTGlyph name="f" xMin="30" yMin="0" xMax="381" yMax="705">
      <contour>
        <pt x="219" y="48" on="1"/>
        <pt x="219" y="22" on="0"/>
        <pt x="200" y="0" on="0"/>
        <pt x="171" y="0" on="1"/>
        <pt x="134" y="0" on="1"/>
        <pt x="106" y="0" on="0"/>
        <pt x="86" y="21" on="0"/>
        <pt x="86" y="48" on="1"/>
        <pt x="86" y="386" on="1"/>
        <pt x="78" y="386" on="0"/>
        <pt x="58" y="387" on="0"/>
        <pt x="41" y="394" on="0"/>
        <pt x="30" y="409" on="0"/>
        <pt x="30" y="422" on="1"/>
        <pt x="30" y="436" on="0"/>
        <pt x="42" y="450" on="0"/>
        <pt x="59" y="457" on="0"/>
        <pt x="78" y="458" on="0"/>
        <pt x="86" y="458" on="1"/>
        <pt x="86" y="538" on="1"/>
        <pt x="86" y="594" on="0"/>
        <pt x="126" y="661" on="0"/>
        <pt x="185" y="695" on="0"/>
        <pt x="253" y="705" on="0"/>
        <pt x="281" y="705" on="1"/>
        <pt x="292" y="705" on="0"/>
        <pt x="324" y="704" on="0"/>
        <pt x="346" y="699" on="1"/>
        <pt x="359" y="696" on="0"/>
        <pt x="373" y="692" on="0"/>
        <pt x="380" y="686" on="0"/>
        <pt x="381" y="676" on="0"/>
        <pt x="381" y="667" on="1"/>
        <pt x="381" y="621" on="1"/>
        <pt x="381" y="609" on="0"/>
        <pt x="378" y="595" on="0"/>
        <pt x="368" y="595" on="1"/>
        <pt x="362" y="595" on="0"/>
        <pt x="353" y="605" on="1"/>
        <pt x="338" y="619" on="0"/>
        <pt x="305" y="633" on="0"/>
        <pt x="281" y="633" on="1"/>
        <pt x="257" y="633" on="0"/>
        <pt x="230" y="620" on="0"/>
        <pt x="218" y="600" on="0"/>
        <pt x="216" y="577" on="0"/>
        <pt x="216" y="567" on="1"/>
        <pt x="216" y="458" on="1"/>
        <pt x="267" y="458" on="1"/>
        <pt x="272" y="458" on="0"/>
        <pt x="288" y="457" on="0"/>
        <pt x="303" y="450" on="0"/>
        <pt x="315" y="436" on="0"/>
        <pt x="315" y="422" on="1"/>
        <pt x="315" y="409" on="0"/>
        <pt x="303" y="394" on="0"/>
        <pt x="288" y="387" on="0"/>
        <pt x="272" y="386" on="0"/>
        <pt x="267" y="386" on="1"/>
        <pt x="219" y="386" on="1"/>
      </contour>
    </TTGlyph>
    <TTGlyph name="f_f" xMin="30" yMin="0" xMax="687" yMax="705">
      <contour>
        <pt x="219" y="48" on="1"/>
        <pt x="219" y="22" on="0"/>
        <pt x="200" y="0" on="0"/>
        <pt x="171" y="0" on="1"/>
        <pt x="134" y="0" on="1"/>
        <pt x="106" y="0" on="0"/>
        <pt x="86" y="21" on="0"/>
        <pt x="86" y="48" on="1"/>
        <pt x="86" y="386" on="1"/>
        <pt x="78" y="386" on="0"/>
        <pt x="58" y="387" on="0"/>
        <pt x="41" y="394" on="0"/>
        <pt x="30" y="409" on="0"/>
        <pt x="30" y="422" on="1"/>
        <pt x="30" y="436" on="0"/>
        <pt x="42" y="450" on="0"/>
        <pt x="59" y="457" on="0"/>
        <pt x="78" y="458" on="0"/>
        <pt x="86" y="458" on="1"/>
        <pt x="86" y="538" on="1"/>
        <pt x="86" y="592" on="0"/>
        <pt x="123" y="658" on="0"/>
        <pt x="181" y="693" on="0"/>
        <pt x="250" y="705" on="0"/>
        <pt x="282" y="705" on="1"/>
        <pt x="293" y="705" on="0"/>
        <pt x="325" y="704" on="0"/>
        <pt x="347" y="699" on="1"/>
        <pt x="360" y="696" on="0"/>
        <pt x="374" y="692" on="0"/>
        <pt x="381" y="686" on="0"/>
        <pt x="382" y="676" on="0"/>
        <pt x="382" y="667" on="1"/>
        <pt x="382" y="621" on="1"/>
        <pt x="382" y="609" on="0"/>
        <pt x="379" y="595" on="0"/>
        <pt x="369" y="595" on="1"/>
        <pt x="363" y="595" on="0"/>
        <pt x="354" y="605" on="1"/>
        <pt x="339" y="619" on="0"/>
        <pt x="306" y="633" on="0"/>
        <pt x="282" y="633" on="1"/>
        <pt x="257" y="633" on="0"/>
        <pt x="230" y="620" on="0"/>
        <pt x="218" y="600" on="0"/>
        <pt x="216" y="577" on="0"/>
        <pt x="216" y="567" on="1"/>
        <pt x="216" y="458" on="1"/>
        <pt x="268" y="458" on="1"/>
        <pt x="273" y="458" on="0"/>
        <pt x="289" y="457" on="0"/>
        <pt x="304" y="450" on="0"/>
        <pt x="316" y="436" on="0"/>
        <pt x="316" y="422" on="1"/>
        <pt x="316" y="409" on="0"/>
        <pt x="304" y="394" on="0"/>
        <pt x="289" y="387" on="0"/>
        <pt x="273" y="386" on="0"/>
        <pt x="268" y="386" on="1"/>
        <pt x="219" y="386" on="1"/>
      </contour>
      <contour>
        <pt x="524" y="48" on="1"/>
        <pt x="524" y="22" on="0"/>
        <pt x="505" y="0" on="0"/>
        <pt x="476" y="0" on="1"/>
        <pt x="439" y="0" on="1"/>
        <pt x="408" y="0" on="0"/>
        <pt x="391" y="24" on="0"/>
        <pt x="391" y="48" on="1"/>
        <pt x="391" y="538" on="1"/>
        <pt x="391" y="592" on="0"/>
        <pt x="428" y="658" on="0"/>
        <pt x="486" y="693" on="0"/>
        <pt x="555" y="705" on="0"/>
        <pt x="587" y="705" on="1"/>
        <pt x="598" y="705" on="0"/>
        <pt x="630" y="704" on="0"/>
        <pt x="652" y="699" on="1"/>
        <pt x="665" y="696" on="0"/>
        <pt x="679" y="692" on="0"/>
        <pt x="686" y="686" on="0"/>
        <pt x="687" y="676" on="0"/>
        <pt x="687" y="667" on="1"/>
        <pt x="687" y="621" on="1"/>
        <pt x="687" y="609" on="0"/>
        <pt x="684" y="595" on="0"/>
        <pt x="674" y="595" on="1"/>
        <pt x="668" y="595" on="0"/>
        <pt x="659" y="605" on="1"/>
        <pt x="644" y="619" on="0"/>
        <pt x="611" y="633" on="0"/>
        <pt x="587" y="633" on="1"/>
        <pt x="562" y="633" on="0"/>
        <pt x="535" y="620" on="0"/>
        <pt x="523" y="600" on="0"/>
        <pt x="521" y="577" on="0"/>
        <pt x="521" y="567" on="1"/>
        <pt x="521" y="458" on="1"/>
        <pt x="573" y="458" on="1"/>
        <pt x="578" y="458" on="0"/>
        <pt x="594" y="457" on="0"/>
        <pt x="609" y="450" on="0"/>
        <pt x="621" y="436" on="0"/>
        <pt x="621" y="422" on="1"/>
        <pt x="621" y="409" on="0"/>
        <pt x="609" y="394" on="0"/>
        <pt x="594" y="387" on="0"/>
        <pt x="578" y="386" on="0"/>
        <pt x="573" y="386" on="1"/>
        <pt x="524" y="386" on="1"/>
      </contour>
    </TTGlyph>
    <TTGlyph name="f_f_i" xMin="30" yMin="0" xMax="831" yMax="705">
      <contour>
        <pt x="831" y="607" on="1"/>
        <pt x="831" y="581" on="0"/>
        <pt x="812" y="559" on="0"/>
        <pt x="783" y="559" on="1"/>
        <pt x="743" y="559" on="1"/>
        <pt x="712" y="559" on="0"/>
        <pt x="695" y="583" on="0"/>
        <pt x="695" y="607" on="1"/>
        <pt x="695" y="647" on="1"/>
        <pt x="695" y="673" on="0"/>
        <pt x="714" y="695" on="0"/>
        <pt x="743" y="695" on="1"/>
        <pt x="783" y="695" on="1"/>
        <pt x="814" y="695" on="0"/>
        <pt x="831" y="671" on="0"/>
        <pt x="831" y="647" on="1"/>
      </contour>
      <contour>
        <pt x="697" y="410" on="1"/>
        <pt x="697" y="436" on="0"/>
        <pt x="716" y="458" on="0"/>
        <pt x="745" y="458" on="1"/>
        <pt x="782" y="458" on="1"/>
        <pt x="813" y="458" on="0"/>
        <pt x="830" y="434" on="0"/>
        <pt x="830" y="410" on="1"/>
        <pt x="830" y="48" on="1"/>
        <pt x="830" y="22" on="0"/>
        <pt x="811" y="0" on="0"/>
        <pt x="782" y="0" on="1"/>
        <pt x="745" y="0" on="1"/>
        <pt x="714" y="0" on="0"/>
        <pt x="697" y="24" on="0"/>
        <pt x="697" y="48" on="1"/>
      </contour>
      <contour>
        <pt x="522" y="458" on="1"/>
        <pt x="581" y="458" on="1"/>
        <pt x="586" y="458" on="0"/>
        <pt x="602" y="457" on="0"/>
        <pt x="617" y="450" on="0"/>
        <pt x="629" y="436" on="0"/>
        <pt x="629" y="422" on="1"/>
        <pt x="629" y="409" on="0"/>
        <pt x="617" y="394" on="0"/>
        <pt x="602" y="387" on="0"/>
        <pt x="586" y="386" on="0"/>
        <pt x="581" y="386" on="1"/>
        <pt x="525" y="386" on="1"/>
        <pt x="525" y="48" on="1"/>
        <pt x="525" y="22" on="0"/>
        <pt x="506" y="0" on="0"/>
        <pt x="477" y="0" on="1"/>
        <pt x="440" y="0" on="1"/>
        <pt x="412" y="0" on="0"/>
        <pt x="392" y="21" on="0"/>
        <pt x="392" y="48" on="1"/>
        <pt x="392" y="540" on="1"/>
        <pt x="392" y="705" on="0"/>
        <pt x="554" y="705" on="1"/>
        <pt x="562" y="705" on="0"/>
        <pt x="586" y="704" on="0"/>
        <pt x="603" y="700" on="1"/>
        <pt x="613" y="698" on="0"/>
        <pt x="623" y="695" on="0"/>
        <pt x="628" y="689" on="0"/>
        <pt x="629" y="679" on="0"/>
        <pt x="629" y="670" on="1"/>
        <pt x="629" y="618" on="1"/>
        <pt x="629" y="606" on="0"/>
        <pt x="626" y="592" on="0"/>
        <pt x="616" y="592" on="1"/>
        <pt x="611" y="592" on="0"/>
        <pt x="606" y="599" on="0"/>
        <pt x="604" y="602" on="1"/>
        <pt x="600" y="609" on="0"/>
        <pt x="579" y="633" on="0"/>
        <pt x="555" y="633" on="1"/>
        <pt x="535" y="633" on="0"/>
        <pt x="522" y="600" on="0"/>
        <pt x="522" y="572" on="1"/>
      </contour>
      <contour>
        <pt x="216" y="458" on="1"/>
        <pt x="275" y="458" on="1"/>
        <pt x="280" y="458" on="0"/>
        <pt x="296" y="457" on="0"/>
        <pt x="311" y="450" on="0"/>
        <pt x="323" y="436" on="0"/>
        <pt x="323" y="422" on="1"/>
        <pt x="323" y="409" on="0"/>
        <pt x="311" y="394" on="0"/>
        <pt x="296" y="387" on="0"/>
        <pt x="280" y="386" on="0"/>
        <pt x="275" y="386" on="1"/>
        <pt x="219" y="386" on="1"/>
        <pt x="219" y="48" on="1"/>
        <pt x="219" y="22" on="0"/>
        <pt x="200" y="0" on="0"/>
        <pt x="171" y="0" on="1"/>
        <pt x="134" y="0" on="1"/>
        <pt x="106" y="0" on="0"/>
        <pt x="86" y="21" on="0"/>
        <pt x="86" y="48" on="1"/>
        <pt x="86" y="386" on="1"/>
        <pt x="78" y="386" on="0"/>
        <pt x="58" y="387" on="0"/>
        <pt x="41" y="394" on="0"/>
        <pt x="30" y="409" on="0"/>
        <pt x="30" y="422" on="1"/>
        <pt x="30" y="436" on="0"/>
        <pt x="42" y="450" on="0"/>
        <pt x="59" y="457" on="0"/>
        <pt x="78" y="458" on="0"/>
        <pt x="86" y="458" on="1"/>
        <pt x="86" y="539" on="1"/>
        <pt x="86" y="584" on="0"/>
        <pt x="112" y="647" on="0"/>
        <pt x="158" y="687" on="0"/>
        <pt x="223" y="705" on="0"/>
        <pt x="263" y="705" on="1"/>
        <pt x="273" y="705" on="0"/>
        <pt x="301" y="704" on="0"/>
        <pt x="321" y="699" on="1"/>
        <pt x="343" y="694" on="0"/>
        <pt x="351" y="685" on="0"/>
        <pt x="351" y="667" on="1"/>
        <pt x="351" y="621" on="1"/>
        <pt x="351" y="609" on="0"/>
        <pt x="348" y="595" on="0"/>
        <pt x="338" y="595" on="1"/>
        <pt x="333" y="595" on="0"/>
        <pt x="328" y="600" on="0"/>
        <pt x="326" y="602" on="1"/>
        <pt x="318" y="613" on="0"/>
        <pt x="291" y="633" on="0"/>
        <pt x="265" y="633" on="1"/>
        <pt x="248" y="633" on="0"/>
        <pt x="228" y="622" on="0"/>
        <pt x="218" y="604" on="0"/>
        <pt x="216" y="581" on="0"/>
        <pt x="216" y="569" on="1"/>
      </contour>
    </TTGlyph>
    <TTGlyph name="f_f_l" xMin="30" yMin="0" xMax="830" yMax="705">
      <contour>
        <pt x="219" y="48" on="1"/>
        <pt x="219" y="22" on="0"/>
        <pt x="200" y="0" on="0"/>
        <pt x="171" y="0" on="1"/>
        <pt x="134" y="0" on="1"/>
        <pt x="106" y="0" on="0"/>
        <pt x="86" y="21" on="0"/>
        <pt x="86" y="48" on="1"/>
        <pt x="86" y="386" on="1"/>
        <pt x="78" y="386" on="0"/>
        <pt x="58" y="387" on="0"/>
        <pt x="41" y="394" on="0"/>
        <pt x="30" y="409" on="0"/>
        <pt x="30" y="422" on="1"/>
        <pt x="30" y="436" on="0"/>
        <pt x="42" y="450" on="0"/>
        <pt x="59" y="457" on="0"/>
        <pt x="78" y="458" on="0"/>
        <pt x="86" y="458" on="1"/>
        <pt x="86" y="539" on="1"/>
        <pt x="86" y="584" on="0"/>
        <pt x="112" y="647" on="0"/>
        <pt x="158" y="687" on="0"/>
        <pt x="223" y="705" on="0"/>
        <pt x="263" y="705" on="1"/>
        <pt x="273" y="705" on="0"/>
        <pt x="301" y="704" on="0"/>
        <pt x="321" y="699" on="1"/>
        <pt x="343" y="694" on="0"/>
        <pt x="351" y="685" on="0"/>
        <pt x="351" y="667" on="1"/>
        <pt x="351" y="621" on="1"/>
        <pt x="351" y="609" on="0"/>
        <pt x="348" y="595" on="0"/>
        <pt x="338" y="595" on="1"/>
        <pt x="333" y="595" on="0"/>
        <pt x="328" y="600" on="0"/>
        <pt x="326" y="602" on="1"/>
        <pt x="318" y="613" on="0"/>
        <pt x="291" y="633" on="0"/>
        <pt x="265" y="633" on="1"/>
        <pt x="248" y="633" on="0"/>
        <pt x="228" y="622" on="0"/>
        <pt x="218" y="604" on="0"/>
        <pt x="216" y="581" on="0"/>
        <pt x="216" y="569" on="1"/>
        <pt x="216" y="458" on="1"/>
        <pt x="275" y="458" on="1"/>
        <pt x="280" y="458" on="0"/>
        <pt x="296" y="457" on="0"/>
        <pt x="311" y="450" on="0"/>
        <pt x="323" y="436" on="0"/>
        <pt x="323" y="422" on="1"/>
        <pt x="323" y="409" on="0"/>
        <pt x="311" y="394" on="0"/>
        <pt x="296" y="387" on="0"/>
        <pt x="280" y="386" on="0"/>
        <pt x="275" y="386" on="1"/>
        <pt x="219" y="386" on="1"/>
      </contour>
      <contour>
        <pt x="830" y="48" on="1"/>
        <pt x="830" y="22" on="0"/>
        <pt x="811" y="0" on="0"/>
        <pt x="782" y="0" on="1"/>
        <pt x="745" y="0" on="1"/>
        <pt x="714" y="0" on="0"/>
        <pt x="697" y="24" on="0"/>
        <pt x="697" y="48" on="1"/>
        <pt x="697" y="646" on="1"/>
        <pt x="697" y="672" on="0"/>
        <pt x="716" y="694" on="0"/>
        <pt x="745" y="694" on="1"/>
        <pt x="782" y="694" on="1"/>
        <pt x="813" y="694" on="0"/>
        <pt x="830" y="670" on="0"/>
        <pt x="830" y="646" on="1"/>
      </contour>
      <contour>
        <pt x="525" y="48" on="1"/>
        <pt x="525" y="22" on="0"/>
        <pt x="506" y="0" on="0"/>
        <pt x="477" y="0" on="1"/>
        <pt x="440" y="0" on="1"/>
        <pt x="412" y="0" on="0"/>
        <pt x="392" y="21" on="0"/>
        <pt x="392" y="48" on="1"/>
        <pt x="392" y="540" on="1"/>
        <pt x="392" y="588" on="0"/>
        <pt x="419" y="652" on="0"/>
        <pt x="463" y="690" on="0"/>
        <pt x="521" y="705" on="0"/>
        <pt x="552" y="705" on="1"/>
        <pt x="561" y="705" on="0"/>
        <pt x="586" y="703" on="0"/>
        <pt x="604" y="698" on="1"/>
        <pt x="623" y="694" on="0"/>
        <pt x="629" y="685" on="0"/>
        <pt x="629" y="667" on="1"/>
        <pt x="629" y="621" on="1"/>
        <pt x="629" y="609" on="0"/>
        <pt x="626" y="595" on="0"/>
        <pt x="616" y="595" on="1"/>
        <pt x="611" y="595" on="0"/>
        <pt x="605" y="601" on="0"/>
        <pt x="603" y="605" on="1"/>
        <pt x="599" y="611" on="0"/>
        <pt x="578" y="633" on="0"/>
        <pt x="555" y="633" on="1"/>
        <pt x="535" y="633" on="0"/>
        <pt x="522" y="600" on="0"/>
        <pt x="522" y="572" on="1"/>
        <pt x="522" y="458" on="1"/>
        <pt x="581" y="458" on="1"/>
        <pt x="586" y="458" on="0"/>
        <pt x="602" y="457" on="0"/>
        <pt x="617" y="450" on="0"/>
        <pt x="629" y="436" on="0"/>
        <pt x="629" y="422" on="1"/>
        <pt x="629" y="409" on="0"/>
        <pt x="617" y="394" on="0"/>
        <pt x="602" y="387" on="0"/>
        <pt x="586" y="386" on="0"/>
        <pt x="581" y="386" on="1"/>
        <pt x="525" y="386" on="1"/>
      </contour>
    </TTGlyph>
    <TTGlyph name="fi" xMin="30" yMin="0" xMax="525" yMax="705">
      <contour>
        <pt x="525" y="607" on="1"/>
        <pt x="525" y="581" on="0"/>
        <pt x="506" y="559" on="0"/>
        <pt x="477" y="559" on="1"/>
        <pt x="437" y="559" on="1"/>
        <pt x="406" y="559" on="0"/>
        <pt x="389" y="583" on="0"/>
        <pt x="389" y="607" on="1"/>
        <pt x="389" y="647" on="1"/>
        <pt x="389" y="673" on="0"/>
        <pt x="408" y="695" on="0"/>
        <pt x="437" y="695" on="1"/>
        <pt x="477" y="695" on="1"/>
        <pt x="508" y="695" on="0"/>
        <pt x="525" y="671" on="0"/>
        <pt x="525" y="647" on="1"/>
      </contour>
      <contour>
        <pt x="391" y="410" on="1"/>
        <pt x="391" y="436" on="0"/>
        <pt x="410" y="458" on="0"/>
        <pt x="439" y="458" on="1"/>
        <pt x="476" y="458" on="1"/>
        <pt x="507" y="458" on="0"/>
        <pt x="524" y="434" on="0"/>
        <pt x="524" y="410" on="1"/>
        <pt x="524" y="48" on="1"/>
        <pt x="524" y="22" on="0"/>
        <pt x="505" y="0" on="0"/>
        <pt x="476" y="0" on="1"/>
        <pt x="439" y="0" on="1"/>
        <pt x="408" y="0" on="0"/>
        <pt x="391" y="24" on="0"/>
        <pt x="391" y="48" on="1"/>
      </contour>
      <contour>
        <pt x="216" y="458" on="1"/>
        <pt x="276" y="458" on="1"/>
        <pt x="281" y="458" on="0"/>
        <pt x="297" y="457" on="0"/>
        <pt x="312" y="450" on="0"/>
        <pt x="324" y="436" on="0"/>
        <pt x="324" y="422" on="1"/>
        <pt x="324" y="409" on="0"/>
        <pt x="312" y="394" on="0"/>
        <pt x="297" y="387" on="0"/>
        <pt x="281" y="386" on="0"/>
        <pt x="276" y="386" on="1"/>
        <pt x="219" y="386" on="1"/>
        <pt x="219" y="48" on="1"/>
        <pt x="219" y="22" on="0"/>
        <pt x="200" y="0" on="0"/>
        <pt x="171" y="0" on="1"/>
        <pt x="134" y="0" on="1"/>
        <pt x="106" y="0" on="0"/>
        <pt x="86" y="21" on="0"/>
        <pt x="86" y="48" on="1"/>
        <pt x="86" y="386" on="1"/>
        <pt x="78" y="386" on="0"/>
        <pt x="58" y="387" on="0"/>
        <pt x="41" y="394" on="0"/>
        <pt x="30" y="409" on="0"/>
        <pt x="30" y="422" on="1"/>
        <pt x="30" y="436" on="0"/>
        <pt x="42" y="450" on="0"/>
        <pt x="59" y="457" on="0"/>
        <pt x="78" y="458" on="0"/>
        <pt x="86" y="458" on="1"/>
        <pt x="86" y="540" on="1"/>
        <pt x="86" y="623" on="0"/>
        <pt x="169" y="705" on="0"/>
        <pt x="247" y="705" on="1"/>
        <pt x="258" y="705" on="0"/>
        <pt x="280" y="703" on="0"/>
        <pt x="299" y="698" on="1"/>
        <pt x="318" y="694" on="0"/>
        <pt x="324" y="684" on="0"/>
        <pt x="324" y="667" on="1"/>
        <pt x="324" y="616" on="1"/>
        <pt x="324" y="604" on="0"/>
        <pt x="321" y="589" on="0"/>
        <pt x="311" y="589" on="1"/>
        <pt x="306" y="589" on="0"/>
        <pt x="301" y="596" on="0"/>
        <pt x="299" y="599" on="1"/>
        <pt x="294" y="608" on="0"/>
        <pt x="275" y="633" on="0"/>
        <pt x="249" y="633" on="1"/>
        <pt x="237" y="633" on="0"/>
        <pt x="224" y="622" on="0"/>
        <pt x="218" y="604" on="0"/>
        <pt x="216" y="583" on="0"/>
        <pt x="216" y="572" on="1"/>
      </contour>
    </TTGlyph>
    <TTGlyph name="five" xMin="37" yMin="-22" xMax="494" yMax="694">
      <contour>
        <pt x="213" y="438" on="1"/>
        <pt x="248" y="451" on="0"/>
        <pt x="286" y="451" on="1"/>
        <pt x="343" y="451" on="0"/>
        <pt x="423" y="416" on="0"/>
        <pt x="472" y="355" on="0"/>
        <pt x="494" y="271" on="0"/>
        <pt x="494" y="221" on="1"/>
        <pt x="494" y="99" on="0"/>
        <pt x="366" y="-22" on="0"/>
        <pt x="245" y="-22" on="1"/>
        <pt x="191" y="-22" on="0"/>
        <pt x="113" y="12" on="0"/>
        <pt x="62" y="54" on="0"/>
        <pt x="37" y="91" on="0"/>
        <pt x="37" y="94" on="1"/>
        <pt x="37" y="97" on="0"/>
        <pt x="45" y="111" on="0"/>
        <pt x="56" y="130" on="0"/>
        <pt x="69" y="150" on="0"/>
        <pt x="74" y="159" on="1"/>
        <pt x="79" y="165" on="0"/>
        <pt x="84" y="172" on="0"/>
        <pt x="90" y="172" on="1"/>
        <pt x="95" y="172" on="0"/>
        <pt x="101" y="165" on="0"/>
        <pt x="103" y="160" on="1"/>
        <pt x="118" y="130" on="0"/>
        <pt x="156" y="95" on="0"/>
        <pt x="195" y="77" on="0"/>
        <pt x="230" y="72" on="0"/>
        <pt x="242" y="72" on="1"/>
        <pt x="281" y="72" on="0"/>
        <pt x="324" y="98" on="0"/>
        <pt x="344" y="141" on="0"/>
        <pt x="347" y="196" on="0"/>
        <pt x="347" y="225" on="1"/>
        <pt x="347" y="254" on="0"/>
        <pt x="345" y="310" on="0"/>
        <pt x="333" y="353" on="0"/>
        <pt x="306" y="379" on="0"/>
        <pt x="282" y="379" on="1"/>
        <pt x="218" y="379" on="0"/>
        <pt x="182" y="320" on="1"/>
        <pt x="171" y="302" on="0"/>
        <pt x="153" y="296" on="0"/>
        <pt x="133" y="296" on="1"/>
        <pt x="123" y="296" on="0"/>
        <pt x="105" y="298" on="0"/>
        <pt x="91" y="307" on="0"/>
        <pt x="83" y="325" on="0"/>
        <pt x="83" y="342" on="1"/>
        <pt x="83" y="648" on="1"/>
        <pt x="83" y="678" on="0"/>
        <pt x="107" y="694" on="0"/>
        <pt x="131" y="694" on="1"/>
        <pt x="409" y="694" on="1"/>
        <pt x="427" y="694" on="0"/>
        <pt x="447" y="686" on="0"/>
        <pt x="456" y="672" on="0"/>
        <pt x="457" y="654" on="0"/>
        <pt x="457" y="644" on="1"/>
        <pt x="457" y="634" on="0"/>
        <pt x="455" y="616" on="0"/>
        <pt x="446" y="602" on="0"/>
        <pt x="427" y="594" on="0"/>
        <pt x="409" y="594" on="1"/>
        <pt x="213" y="594" on="1"/>
      </contour>
    </TTGlyph>
    <TTGlyph name="fl" xMin="30" yMin="0" xMax="524" yMax="705">
      <contour>
        <pt x="219" y="48" on="1"/>
        <pt x="219" y="22" on="0"/>
        <pt x="200" y="0" on="0"/>
        <pt x="171" y="0" on="1"/>
        <pt x="134" y="0" on="1"/>
        <pt x="106" y="0" on="0"/>
        <pt x="86" y="21" on="0"/>
        <pt x="86" y="48" on="1"/>
        <pt x="86" y="386" on="1"/>
        <pt x="78" y="386" on="0"/>
        <pt x="58" y="387" on="0"/>
        <pt x="41" y="394" on="0"/>
        <pt x="30" y="409" on="0"/>
        <pt x="30" y="422" on="1"/>
        <pt x="30" y="436" on="0"/>
        <pt x="42" y="450" on="0"/>
        <pt x="59" y="457" on="0"/>
        <pt x="78" y="458" on="0"/>
        <pt x="86" y="458" on="1"/>
        <pt x="86" y="540" on="1"/>
        <pt x="86" y="623" on="0"/>
        <pt x="169" y="705" on="0"/>
        <pt x="247" y="705" on="1"/>
        <pt x="258" y="705" on="0"/>
        <pt x="280" y="703" on="0"/>
        <pt x="299" y="698" on="1"/>
        <pt x="318" y="694" on="0"/>
        <pt x="324" y="684" on="0"/>
        <pt x="324" y="667" on="1"/>
        <pt x="324" y="621" on="1"/>
        <pt x="324" y="609" on="0"/>
        <pt x="321" y="595" on="0"/>
        <pt x="311" y="595" on="1"/>
        <pt x="304" y="595" on="0"/>
        <pt x="298" y="606" on="1"/>
        <pt x="294" y="611" on="0"/>
        <pt x="273" y="633" on="0"/>
        <pt x="249" y="633" on="1"/>
        <pt x="237" y="633" on="0"/>
        <pt x="224" y="622" on="0"/>
        <pt x="218" y="604" on="0"/>
        <pt x="216" y="583" on="0"/>
        <pt x="216" y="572" on="1"/>
        <pt x="216" y="458" on="1"/>
        <pt x="276" y="458" on="1"/>
        <pt x="281" y="458" on="0"/>
        <pt x="297" y="457" on="0"/>
        <pt x="312" y="450" on="0"/>
        <pt x="324" y="436" on="0"/>
        <pt x="324" y="422" on="1"/>
        <pt x="324" y="409" on="0"/>
        <pt x="312" y="394" on="0"/>
        <pt x="297" y="387" on="0"/>
        <pt x="281" y="386" on="0"/>
        <pt x="276" y="386" on="1"/>
        <pt x="219" y="386" on="1"/>
      </contour>
      <contour>
        <pt x="524" y="48" on="1"/>
        <pt x="524" y="22" on="0"/>
        <pt x="505" y="0" on="0"/>
        <pt x="476" y="0" on="1"/>
        <pt x="439" y="0" on="1"/>
        <pt x="408" y="0" on="0"/>
        <pt x="391" y="24" on="0"/>
        <pt x="391" y="48" on="1"/>
        <pt x="391" y="646" on="1"/>
        <pt x="391" y="672" on="0"/>
        <pt x="410" y="694" on="0"/>
        <pt x="439" y="694" on="1"/>
        <pt x="476" y="694" on="1"/>
        <pt x="507" y="694" on="0"/>
        <pt x="524" y="670" on="0"/>
        <pt x="524" y="646" on="1"/>
      </contour>
    </TTGlyph>
    <TTGlyph name="four" xMin="31" yMin="0" xMax="518" yMax="694">
      <contour>
        <pt x="261" y="671" on="1"/>
        <pt x="270" y="688" on="0"/>
        <pt x="293" y="694" on="0"/>
        <pt x="307" y="694" on="1"/>
        <pt x="380" y="694" on="1"/>
        <pt x="408" y="694" on="0"/>
        <pt x="428" y="673" on="0"/>
        <pt x="428" y="646" on="1"/>
        <pt x="428" y="247" on="1"/>
        <pt x="470" y="247" on="1"/>
        <pt x="496" y="247" on="0"/>
        <pt x="518" y="228" on="0"/>
        <pt x="518" y="200" on="1"/>
        <pt x="518" y="170" on="0"/>
        <pt x="493" y="153" on="0"/>
        <pt x="470" y="153" on="1"/>
        <pt x="428" y="153" on="1"/>
        <pt x="428" y="48" on="1"/>
        <pt x="428" y="22" on="0"/>
        <pt x="409" y="0" on="0"/>
        <pt x="380" y="0" on="1"/>
        <pt x="352" y="0" on="1"/>
        <pt x="321" y="0" on="0"/>
        <pt x="304" y="24" on="0"/>
        <pt x="304" y="48" on="1"/>
        <pt x="304" y="153" on="1"/>
        <pt x="79" y="153" on="1"/>
        <pt x="48" y="153" on="0"/>
        <pt x="31" y="177" on="0"/>
        <pt x="31" y="201" on="1"/>
        <pt x="31" y="226" on="1"/>
        <pt x="31" y="240" on="0"/>
        <pt x="33" y="251" on="0"/>
        <pt x="39" y="262" on="1"/>
      </contour>
      <contour>
        <pt x="310" y="247" on="1"/>
        <pt x="310" y="589" on="1"/>
        <pt x="309" y="589" on="1"/>
        <pt x="307" y="583" on="0"/>
        <pt x="297" y="557" on="0"/>
        <pt x="263" y="487" on="0"/>
        <pt x="195" y="357" on="0"/>
        <pt x="135" y="247" on="1"/>
      </contour>
    </TTGlyph>
    <TTGlyph name="g" xMin="25" yMin="-206" xMax="534" yMax="469">
      <contour>
        <pt x="248" y="92" on="1"/>
        <pt x="299" y="92" on="0"/>
        <pt x="398" y="87" on="0"/>
        <pt x="476" y="58" on="0"/>
        <pt x="524" y="-6" on="0"/>
        <pt x="524" y="-64" on="1"/>
        <pt x="524" y="-100" on="0"/>
        <pt x="495" y="-148" on="0"/>
        <pt x="449" y="-180" on="0"/>
        <pt x="393" y="-197" on="0"/>
        <pt x="337" y="-205" on="0"/>
        <pt x="289" y="-206" on="0"/>
        <pt x="274" y="-206" on="1"/>
        <pt x="239" y="-206" on="0"/>
        <pt x="146" y="-199" on="0"/>
        <pt x="103" y="-179" on="1"/>
        <pt x="79" y="-168" on="0"/>
        <pt x="49" y="-139" on="0"/>
        <pt x="32" y="-108" on="0"/>
        <pt x="25" y="-79" on="0"/>
        <pt x="25" y="-67" on="1"/>
        <pt x="25" y="-43" on="0"/>
        <pt x="42" y="-11" on="0"/>
        <pt x="64" y="9" on="0"/>
        <pt x="86" y="19" on="0"/>
        <pt x="92" y="21" on="1"/>
        <pt x="76" y="41" on="0"/>
        <pt x="65" y="86" on="0"/>
        <pt x="65" y="100" on="1"/>
        <pt x="65" y="104" on="0"/>
        <pt x="72" y="153" on="0"/>
        <pt x="92" y="181" on="1"/>
        <pt x="63" y="206" on="0"/>
        <pt x="43" y="274" on="0"/>
        <pt x="43" y="304" on="1"/>
        <pt x="43" y="366" on="0"/>
        <pt x="94" y="433" on="0"/>
        <pt x="162" y="464" on="0"/>
        <pt x="228" y="469" on="0"/>
        <pt x="244" y="469" on="1"/>
        <pt x="276" y="469" on="0"/>
        <pt x="351" y="457" on="0"/>
        <pt x="386" y="434" on="1"/>
        <pt x="415" y="451" on="0"/>
        <pt x="482" y="469" on="0"/>
        <pt x="505" y="469" on="1"/>
        <pt x="519" y="469" on="0"/>
        <pt x="524" y="461" on="0"/>
        <pt x="527" y="443" on="1"/>
        <pt x="529" y="435" on="0"/>
        <pt x="534" y="408" on="0"/>
        <pt x="534" y="405" on="1"/>
        <pt x="534" y="392" on="0"/>
        <pt x="521" y="392" on="1"/>
        <pt x="515" y="392" on="0"/>
        <pt x="507" y="396" on="1"/>
        <pt x="476" y="404" on="0"/>
        <pt x="427" y="407" on="0"/>
        <pt x="414" y="407" on="1"/>
        <pt x="421" y="399" on="0"/>
        <pt x="445" y="347" on="0"/>
        <pt x="445" y="303" on="1"/>
        <pt x="445" y="262" on="0"/>
        <pt x="421" y="205" on="0"/>
        <pt x="383" y="169" on="0"/>
        <pt x="337" y="149" on="0"/>
        <pt x="292" y="140" on="0"/>
        <pt x="254" y="138" on="0"/>
        <pt x="244" y="138" on="1"/>
        <pt x="236" y="138" on="0"/>
        <pt x="208" y="139" on="0"/>
        <pt x="173" y="144" on="0"/>
        <pt x="135" y="154" on="0"/>
        <pt x="117" y="164" on="1"/>
        <pt x="116" y="159" on="0"/>
        <pt x="115" y="154" on="0"/>
        <pt x="115" y="149" on="1"/>
        <pt x="115" y="129" on="0"/>
        <pt x="133" y="107" on="0"/>
        <pt x="136" y="104" on="1"/>
        <pt x="147" y="95" on="0"/>
        <pt x="173" y="92" on="0"/>
        <pt x="200" y="92" on="1"/>
      </contour>
      <contour>
        <pt x="244" y="210" on="1"/>
        <pt x="270" y="210" on="0"/>
        <pt x="300" y="224" on="0"/>
        <pt x="314" y="249" on="0"/>
        <pt x="317" y="283" on="0"/>
        <pt x="317" y="304" on="1"/>
        <pt x="317" y="325" on="0"/>
        <pt x="314" y="359" on="0"/>
        <pt x="300" y="383" on="0"/>
        <pt x="270" y="397" on="0"/>
        <pt x="244" y="397" on="1"/>
        <pt x="218" y="397" on="0"/>
        <pt x="188" y="383" on="0"/>
        <pt x="174" y="358" on="0"/>
        <pt x="171" y="324" on="0"/>
        <pt x="171" y="303" on="1"/>
        <pt x="171" y="282" on="0"/>
        <pt x="174" y="248" on="0"/>
        <pt x="188" y="224" on="0"/>
        <pt x="218" y="210" on="0"/>
      </contour>
      <contour>
        <pt x="182" y="-17" on="1"/>
        <pt x="173" y="-17" on="0"/>
        <pt x="154" y="-18" on="0"/>
        <pt x="138" y="-27" on="0"/>
        <pt x="128" y="-46" on="0"/>
        <pt x="128" y="-64" on="1"/>
        <pt x="128" y="-90" on="0"/>
        <pt x="163" y="-119" on="0"/>
        <pt x="210" y="-132" on="0"/>
        <pt x="260" y="-134" on="0"/>
        <pt x="275" y="-134" on="1"/>
        <pt x="287" y="-134" on="0"/>
        <pt x="336" y="-132" on="0"/>
        <pt x="384" y="-119" on="0"/>
        <pt x="421" y="-92" on="0"/>
        <pt x="421" y="-67" on="1"/>
        <pt x="421" y="-40" on="0"/>
        <pt x="359" y="-17" on="0"/>
        <pt x="298" y="-17" on="1"/>
      </contour>
    </TTGlyph>
    <TTGlyph name="germandbls" xMin="61" yMin="-11" xMax="533" yMax="705">
      <contour>
        <pt x="428" y="420" on="1"/>
        <pt x="461" y="399" on="0"/>
        <pt x="502" y="343" on="0"/>
        <pt x="525" y="281" on="0"/>
        <pt x="533" y="216" on="0"/>
        <pt x="533" y="186" on="1"/>
        <pt x="533" y="84" on="0"/>
        <pt x="424" y="-11" on="0"/>
        <pt x="326" y="-11" on="1"/>
        <pt x="311" y="-11" on="0"/>
        <pt x="276" y="-7" on="0"/>
        <pt x="246" y="1" on="0"/>
        <pt x="226" y="13" on="0"/>
        <pt x="226" y="20" on="1"/>
        <pt x="226" y="23" on="0"/>
        <pt x="234" y="44" on="0"/>
        <pt x="237" y="53" on="1"/>
        <pt x="242" y="68" on="0"/>
        <pt x="248" y="77" on="0"/>
        <pt x="255" y="77" on="1"/>
        <pt x="257" y="77" on="0"/>
        <pt x="263" y="75" on="0"/>
        <pt x="265" y="74" on="1"/>
        <pt x="285" y="64" on="0"/>
        <pt x="317" y="61" on="0"/>
        <pt x="321" y="61" on="1"/>
        <pt x="350" y="61" on="0"/>
        <pt x="381" y="85" on="0"/>
        <pt x="396" y="123" on="0"/>
        <pt x="398" y="167" on="0"/>
        <pt x="398" y="186" on="1"/>
        <pt x="398" y="227" on="0"/>
        <pt x="389" y="298" on="0"/>
        <pt x="362" y="351" on="0"/>
        <pt x="313" y="383" on="0"/>
        <pt x="272" y="386" on="1"/>
        <pt x="259" y="387" on="0"/>
        <pt x="255" y="397" on="0"/>
        <pt x="255" y="413" on="1"/>
        <pt x="255" y="431" on="1"/>
        <pt x="255" y="443" on="0"/>
        <pt x="258" y="457" on="0"/>
        <pt x="268" y="458" on="1"/>
        <pt x="287" y="459" on="0"/>
        <pt x="323" y="465" on="0"/>
        <pt x="351" y="485" on="0"/>
        <pt x="368" y="525" on="0"/>
        <pt x="368" y="560" on="1"/>
        <pt x="368" y="598" on="0"/>
        <pt x="335" y="633" on="0"/>
        <pt x="281" y="633" on="1"/>
        <pt x="252" y="633" on="0"/>
        <pt x="217" y="622" on="0"/>
        <pt x="199" y="603" on="0"/>
        <pt x="194" y="575" on="0"/>
        <pt x="194" y="557" on="1"/>
        <pt x="194" y="48" on="1"/>
        <pt x="194" y="22" on="0"/>
        <pt x="175" y="0" on="0"/>
        <pt x="146" y="0" on="1"/>
        <pt x="109" y="0" on="1"/>
        <pt x="81" y="0" on="0"/>
        <pt x="61" y="21" on="0"/>
        <pt x="61" y="48" on="1"/>
        <pt x="61" y="558" on="1"/>
        <pt x="61" y="613" on="0"/>
        <pt x="114" y="673" on="0"/>
        <pt x="187" y="700" on="0"/>
        <pt x="261" y="705" on="0"/>
        <pt x="282" y="705" on="1"/>
        <pt x="294" y="705" on="0"/>
        <pt x="337" y="704" on="0"/>
        <pt x="386" y="696" on="0"/>
        <pt x="436" y="679" on="0"/>
        <pt x="477" y="647" on="0"/>
        <pt x="503" y="598" on="0"/>
        <pt x="503" y="562" on="1"/>
        <pt x="503" y="550" on="0"/>
        <pt x="498" y="513" on="0"/>
        <pt x="482" y="474" on="0"/>
        <pt x="453" y="435" on="0"/>
      </contour>
    </TTGlyph>
    <TTGlyph name="grave" xMin="92" yMin="537" xMax="326" yMax="694">
      <contour>
        <pt x="103" y="666" on="1"/>
        <pt x="100" y="668" on="0"/>
        <pt x="92" y="676" on="0"/>
        <pt x="92" y="681" on="1"/>
        <pt x="92" y="691" on="0"/>
        <pt x="107" y="694" on="0"/>
        <pt x="119" y="694" on="1"/>
        <pt x="201" y="694" on="1"/>
        <pt x="216" y="694" on="0"/>
        <pt x="224" y="690" on="0"/>
        <pt x="231" y="682" on="1"/>
        <pt x="319" y="564" on="1"/>
        <pt x="324" y="557" on="0"/>
        <pt x="326" y="551" on="0"/>
        <pt x="326" y="550" on="1"/>
        <pt x="326" y="540" on="0"/>
        <pt x="311" y="537" on="0"/>
        <pt x="299" y="537" on="1"/>
        <pt x="281" y="537" on="1"/>
        <pt x="267" y="537" on="0"/>
        <pt x="259" y="539" on="0"/>
        <pt x="251" y="546" on="1"/>
      </contour>
    </TTGlyph>
    <TTGlyph name="h" xMin="60" yMin="0" xMax="500" yMax="694">
      <contour>
        <pt x="500" y="48" on="1"/>
        <pt x="500" y="22" on="0"/>
        <pt x="481" y="0" on="0"/>
        <pt x="452" y="0" on="1"/>
        <pt x="412" y="0" on="1"/>
        <pt x="381" y="0" on="0"/>
        <pt x="364" y="24" on="0"/>
        <pt x="364" y="48" on="1"/>
        <pt x="364" y="323" on="1"/>
        <pt x="364" y="361" on="0"/>
        <pt x="342" y="397" on="0"/>
        <pt x="306" y="397" on="1"/>
        <pt x="287" y="397" on="0"/>
        <pt x="247" y="381" on="0"/>
        <pt x="216" y="350" on="0"/>
        <pt x="196" y="302" on="0"/>
        <pt x="196" y="269" on="1"/>
        <pt x="196" y="48" on="1"/>
        <pt x="196" y="22" on="0"/>
        <pt x="177" y="0" on="0"/>
        <pt x="148" y="0" on="1"/>
        <pt x="108" y="0" on="1"/>
        <pt x="80" y="0" on="0"/>
        <pt x="60" y="21" on="0"/>
        <pt x="60" y="48" on="1"/>
        <pt x="60" y="646" on="1"/>
        <pt x="60" y="674" on="0"/>
        <pt x="81" y="694" on="0"/>
        <pt x="108" y="694" on="1"/>
        <pt x="145" y="694" on="1"/>
        <pt x="176" y="694" on="0"/>
        <pt x="193" y="670" on="0"/>
        <pt x="193" y="646" on="1"/>
        <pt x="193" y="372" on="1"/>
        <pt x="194" y="372" on="1"/>
        <pt x="199" y="383" on="0"/>
        <pt x="222" y="415" on="0"/>
        <pt x="261" y="447" on="0"/>
        <pt x="317" y="469" on="0"/>
        <pt x="354" y="469" on="1"/>
        <pt x="431" y="469" on="0"/>
        <pt x="500" y="403" on="0"/>
        <pt x="500" y="325" on="1"/>
      </contour>
    </TTGlyph>
    <TTGlyph name="hungarumlaut" xMin="117" yMin="537" xMax="457" yMax="694">
      <contour>
        <pt x="192" y="551" on="1"/>
        <pt x="185" y="541" on="0"/>
        <pt x="177" y="537" on="0"/>
        <pt x="162" y="537" on="1"/>
        <pt x="144" y="537" on="1"/>
        <pt x="132" y="537" on="0"/>
        <pt x="117" y="540" on="0"/>
        <pt x="117" y="551" on="1"/>
        <pt x="136" y="673" on="1"/>
        <pt x="138" y="689" on="0"/>
        <pt x="148" y="694" on="0"/>
        <pt x="165" y="694" on="1"/>
        <pt x="247" y="694" on="1"/>
        <pt x="259" y="694" on="0"/>
        <pt x="274" y="691" on="0"/>
        <pt x="274" y="681" on="1"/>
        <pt x="274" y="679" on="0"/>
        <pt x="272" y="674" on="0"/>
        <pt x="266" y="665" on="1"/>
      </contour>
      <contour>
        <pt x="375" y="551" on="1"/>
        <pt x="368" y="541" on="0"/>
        <pt x="360" y="537" on="0"/>
        <pt x="345" y="537" on="1"/>
        <pt x="327" y="537" on="1"/>
        <pt x="315" y="537" on="0"/>
        <pt x="300" y="540" on="0"/>
        <pt x="300" y="551" on="1"/>
        <pt x="319" y="673" on="1"/>
        <pt x="321" y="689" on="0"/>
        <pt x="331" y="694" on="0"/>
        <pt x="348" y="694" on="1"/>
        <pt x="430" y="694" on="1"/>
        <pt x="442" y="694" on="0"/>
        <pt x="457" y="691" on="0"/>
        <pt x="457" y="681" on="1"/>
        <pt x="457" y="679" on="0"/>
        <pt x="455" y="674" on="0"/>
        <pt x="449" y="665" on="1"/>
      </contour>
    </TTGlyph>
    <TTGlyph name="hyphen" xMin="12" yMin="193" xMax="305" yMax="265">
      <contour>
        <pt x="60" y="193" on="1"/>
        <pt x="56" y="193" on="0"/>
        <pt x="39" y="194" on="0"/>
        <pt x="24" y="201" on="0"/>
        <pt x="12" y="216" on="0"/>
        <pt x="12" y="229" on="1"/>
        <pt x="12" y="243" on="0"/>
        <pt x="24" y="257" on="0"/>
        <pt x="39" y="264" on="0"/>
        <pt x="56" y="265" on="0"/>
        <pt x="60" y="265" on="1"/>
        <pt x="257" y="265" on="1"/>
        <pt x="262" y="265" on="0"/>
        <pt x="278" y="264" on="0"/>
        <pt x="293" y="257" on="0"/>
        <pt x="305" y="243" on="0"/>
        <pt x="305" y="229" on="1"/>
        <pt x="305" y="216" on="0"/>
        <pt x="293" y="201" on="0"/>
        <pt x="278" y="194" on="0"/>
        <pt x="262" y="193" on="0"/>
        <pt x="257" y="193" on="1"/>
      </contour>
    </TTGlyph>
    <TTGlyph name="i" xMin="54" yMin="0" xMax="201" yMax="695">
      <contour>
        <pt x="153" y="695" on="1"/>
        <pt x="171" y="695" on="0"/>
        <pt x="191" y="687" on="0"/>
        <pt x="200" y="670" on="0"/>
        <pt x="201" y="644" on="0"/>
        <pt x="201" y="626" on="1"/>
        <pt x="201" y="608" on="0"/>
        <pt x="200" y="583" on="0"/>
        <pt x="191" y="566" on="0"/>
        <pt x="171" y="558" on="0"/>
        <pt x="153" y="558" on="1"/>
        <pt x="101" y="558" on="1"/>
        <pt x="73" y="558" on="0"/>
        <pt x="54" y="579" on="0"/>
        <pt x="54" y="603" on="1"/>
        <pt x="54" y="649" on="1"/>
        <pt x="54" y="679" on="0"/>
        <pt x="78" y="695" on="0"/>
        <pt x="102" y="695" on="1"/>
      </contour>
      <contour>
        <pt x="194" y="48" on="1"/>
        <pt x="194" y="22" on="0"/>
        <pt x="175" y="0" on="0"/>
        <pt x="146" y="0" on="1"/>
        <pt x="109" y="0" on="1"/>
        <pt x="81" y="0" on="0"/>
        <pt x="61" y="21" on="0"/>
        <pt x="61" y="48" on="1"/>
        <pt x="61" y="410" on="1"/>
        <pt x="61" y="438" on="0"/>
        <pt x="82" y="458" on="0"/>
        <pt x="109" y="458" on="1"/>
        <pt x="146" y="458" on="1"/>
        <pt x="177" y="458" on="0"/>
        <pt x="194" y="434" on="0"/>
        <pt x="194" y="410" on="1"/>
      </contour>
    </TTGlyph>
    <TTGlyph name="j" xMin="-71" yMin="-205" xMax="224" yMax="695">
      <contour>
        <pt x="224" y="606" on="1"/>
        <pt x="224" y="580" on="0"/>
        <pt x="205" y="558" on="0"/>
        <pt x="176" y="558" on="1"/>
        <pt x="125" y="558" on="1"/>
        <pt x="94" y="558" on="0"/>
        <pt x="77" y="582" on="0"/>
        <pt x="77" y="606" on="1"/>
        <pt x="77" y="647" on="1"/>
        <pt x="77" y="673" on="0"/>
        <pt x="96" y="695" on="0"/>
        <pt x="125" y="695" on="1"/>
        <pt x="176" y="695" on="1"/>
        <pt x="207" y="695" on="0"/>
        <pt x="224" y="671" on="0"/>
        <pt x="224" y="647" on="1"/>
      </contour>
      <contour>
        <pt x="91" y="410" on="1"/>
        <pt x="91" y="436" on="0"/>
        <pt x="110" y="458" on="0"/>
        <pt x="139" y="458" on="1"/>
        <pt x="176" y="458" on="1"/>
        <pt x="207" y="458" on="0"/>
        <pt x="224" y="434" on="0"/>
        <pt x="224" y="410" on="1"/>
        <pt x="224" y="-32" on="1"/>
        <pt x="224" y="-69" on="0"/>
        <pt x="208" y="-132" on="0"/>
        <pt x="173" y="-179" on="0"/>
        <pt x="116" y="-205" on="0"/>
        <pt x="75" y="-205" on="1"/>
        <pt x="51" y="-205" on="0"/>
        <pt x="0" y="-196" on="0"/>
        <pt x="-43" y="-182" on="0"/>
        <pt x="-71" y="-165" on="0"/>
        <pt x="-71" y="-158" on="1"/>
        <pt x="-71" y="-156" on="0"/>
        <pt x="-67" y="-142" on="0"/>
        <pt x="-62" y="-125" on="1"/>
        <pt x="-58" y="-111" on="0"/>
        <pt x="-54" y="-99" on="0"/>
        <pt x="-46" y="-99" on="1"/>
        <pt x="-44" y="-99" on="0"/>
        <pt x="-39" y="-101" on="0"/>
        <pt x="-31" y="-106" on="1"/>
        <pt x="-15" y="-115" on="0"/>
        <pt x="20" y="-121" on="0"/>
        <pt x="29" y="-121" on="1"/>
        <pt x="52" y="-121" on="0"/>
        <pt x="77" y="-108" on="0"/>
        <pt x="89" y="-88" on="0"/>
        <pt x="91" y="-65" on="0"/>
        <pt x="91" y="-55" on="1"/>
      </contour>
    </TTGlyph>
    <TTGlyph name="k" xMin="69" yMin="0" xMax="497" yMax="694">
      <contour>
        <pt x="487" y="44" on="1"/>
        <pt x="495" y="34" on="0"/>
        <pt x="497" y="24" on="0"/>
        <pt x="497" y="22" on="1"/>
        <pt x="497" y="6" on="0"/>
        <pt x="472" y="0" on="0"/>
        <pt x="461" y="0" on="1"/>
        <pt x="413" y="0" on="1"/>
        <pt x="391" y="0" on="0"/>
        <pt x="373" y="9" on="0"/>
        <pt x="360" y="25" on="1"/>
        <pt x="230" y="195" on="1"/>
        <pt x="183" y="152" on="1"/>
        <pt x="183" y="48" on="1"/>
        <pt x="183" y="22" on="0"/>
        <pt x="164" y="0" on="0"/>
        <pt x="135" y="0" on="1"/>
        <pt x="117" y="0" on="1"/>
        <pt x="89" y="0" on="0"/>
        <pt x="69" y="21" on="0"/>
        <pt x="69" y="48" on="1"/>
        <pt x="69" y="646" on="1"/>
        <pt x="69" y="674" on="0"/>
        <pt x="90" y="694" on="0"/>
        <pt x="117" y="694" on="1"/>
        <pt x="138" y="694" on="1"/>
        <pt x="169" y="694" on="0"/>
        <pt x="186" y="670" on="0"/>
        <pt x="186" y="646" on="1"/>
        <pt x="186" y="303" on="1"/>
        <pt x="330" y="437" on="1"/>
        <pt x="347" y="453" on="0"/>
        <pt x="376" y="458" on="0"/>
        <pt x="390" y="458" on="1"/>
        <pt x="448" y="458" on="1"/>
        <pt x="459" y="458" on="0"/>
        <pt x="482" y="453" on="0"/>
        <pt x="482" y="437" on="1"/>
        <pt x="482" y="431" on="0"/>
        <pt x="476" y="423" on="0"/>
        <pt x="467" y="415" on="1"/>
        <pt x="313" y="272" on="1"/>
      </contour>
    </TTGlyph>
    <TTGlyph name="l" xMin="61" yMin="0" xMax="194" yMax="694">
      <contour>
        <pt x="194" y="48" on="1"/>
        <pt x="194" y="22" on="0"/>
        <pt x="175" y="0" on="0"/>
        <pt x="146" y="0" on="1"/>
        <pt x="109" y="0" on="1"/>
        <pt x="81" y="0" on="0"/>
        <pt x="61" y="21" on="0"/>
        <pt x="61" y="48" on="1"/>
        <pt x="61" y="646" on="1"/>
        <pt x="61" y="674" on="0"/>
        <pt x="82" y="694" on="0"/>
        <pt x="109" y="694" on="1"/>
        <pt x="146" y="694" on="1"/>
        <pt x="177" y="694" on="0"/>
        <pt x="194" y="670" on="0"/>
        <pt x="194" y="646" on="1"/>
      </contour>
    </TTGlyph>
    <TTGlyph name="m" xMin="60" yMin="0" xMax="806" yMax="469">
      <contour>
        <pt x="806" y="48" on="1"/>
        <pt x="806" y="22" on="0"/>
        <pt x="787" y="0" on="0"/>
        <pt x="758" y="0" on="1"/>
        <pt x="718" y="0" on="1"/>
        <pt x="690" y="0" on="0"/>
        <pt x="670" y="21" on="0"/>
        <pt x="670" y="48" on="1"/>
        <pt x="670" y="323" on="1"/>
        <pt x="670" y="363" on="0"/>
        <pt x="647" y="397" on="0"/>
        <pt x="611" y="397" on="1"/>
        <pt x="593" y="397" on="0"/>
        <pt x="554" y="382" on="0"/>
        <pt x="522" y="351" on="0"/>
        <pt x="501" y="303" on="0"/>
        <pt x="501" y="269" on="1"/>
        <pt x="501" y="48" on="1"/>
        <pt x="501" y="22" on="0"/>
        <pt x="482" y="0" on="0"/>
        <pt x="453" y="0" on="1"/>
        <pt x="413" y="0" on="1"/>
        <pt x="385" y="0" on="0"/>
        <pt x="365" y="21" on="0"/>
        <pt x="365" y="48" on="1"/>
        <pt x="365" y="323" on="1"/>
        <pt x="365" y="363" on="0"/>
        <pt x="342" y="397" on="0"/>
        <pt x="306" y="397" on="1"/>
        <pt x="288" y="397" on="0"/>
        <pt x="249" y="382" on="0"/>
        <pt x="217" y="351" on="0"/>
        <pt x="196" y="303" on="0"/>
        <pt x="196" y="269" on="1"/>
        <pt x="196" y="48" on="1"/>
        <pt x="196" y="22" on="0"/>
        <pt x="177" y="0" on="0"/>
        <pt x="148" y="0" on="1"/>
        <pt x="108" y="0" on="1"/>
        <pt x="80" y="0" on="0"/>
        <pt x="60" y="21" on="0"/>
        <pt x="60" y="48" on="1"/>
        <pt x="60" y="416" on="1"/>
        <pt x="60" y="444" on="0"/>
        <pt x="81" y="464" on="0"/>
        <pt x="108" y="464" on="1"/>
        <pt x="142" y="464" on="1"/>
        <pt x="173" y="464" on="0"/>
        <pt x="190" y="440" on="0"/>
        <pt x="190" y="416" on="1"/>
        <pt x="190" y="366" on="1"/>
        <pt x="191" y="366" on="1"/>
        <pt x="214" y="415" on="0"/>
        <pt x="301" y="469" on="0"/>
        <pt x="355" y="469" on="1"/>
        <pt x="371" y="469" on="0"/>
        <pt x="415" y="465" on="0"/>
        <pt x="458" y="446" on="0"/>
        <pt x="492" y="406" on="0"/>
        <pt x="498" y="370" on="1"/>
        <pt x="552" y="469" on="0"/>
        <pt x="660" y="469" on="1"/>
        <pt x="737" y="469" on="0"/>
        <pt x="806" y="403" on="0"/>
        <pt x="806" y="325" on="1"/>
      </contour>
    </TTGlyph>
    <TTGlyph name="macron" xMin="76" yMin="575" xMax="473" yMax="660">
      <contour>
        <pt x="103" y="575" on="1"/>
        <pt x="83" y="575" on="0"/>
        <pt x="76" y="582" on="0"/>
        <pt x="76" y="602" on="1"/>
        <pt x="76" y="633" on="1"/>
        <pt x="76" y="653" on="0"/>
        <pt x="83" y="660" on="0"/>
        <pt x="103" y="660" on="1"/>
        <pt x="446" y="660" on="1"/>
        <pt x="466" y="660" on="0"/>
        <pt x="473" y="653" on="0"/>
        <pt x="473" y="633" on="1"/>
        <pt x="473" y="602" on="1"/>
        <pt x="473" y="582" on="0"/>
        <pt x="466" y="575" on="0"/>
        <pt x="446" y="575" on="1"/>
      </contour>
    </TTGlyph>
    <TTGlyph name="n" xMin="60" yMin="0" xMax="500" yMax="469">
      <contour>
        <pt x="500" y="48" on="1"/>
        <pt x="500" y="22" on="0"/>
        <pt x="481" y="0" on="0"/>
        <pt x="452" y="0" on="1"/>
        <pt x="412" y="0" on="1"/>
        <pt x="381" y="0" on="0"/>
        <pt x="364" y="24" on="0"/>
        <pt x="364" y="48" on="1"/>
        <pt x="364" y="323" on="1"/>
        <pt x="364" y="361" on="0"/>
        <pt x="342" y="397" on="0"/>
        <pt x="306" y="397" on="1"/>
        <pt x="287" y="397" on="0"/>
        <pt x="247" y="381" on="0"/>
        <pt x="216" y="350" on="0"/>
        <pt x="196" y="302" on="0"/>
        <pt x="196" y="269" on="1"/>
        <pt x="196" y="48" on="1"/>
        <pt x="196" y="22" on="0"/>
        <pt x="177" y="0" on="0"/>
        <pt x="148" y="0" on="1"/>
        <pt x="108" y="0" on="1"/>
        <pt x="80" y="0" on="0"/>
        <pt x="60" y="21" on="0"/>
        <pt x="60" y="48" on="1"/>
        <pt x="60" y="416" on="1"/>
        <pt x="60" y="444" on="0"/>
        <pt x="81" y="464" on="0"/>
        <pt x="108" y="464" on="1"/>
        <pt x="142" y="464" on="1"/>
        <pt x="173" y="464" on="0"/>
        <pt x="190" y="440" on="0"/>
        <pt x="190" y="416" on="1"/>
        <pt x="190" y="366" on="1"/>
        <pt x="191" y="366" on="1"/>
        <pt x="196" y="376" on="0"/>
        <pt x="219" y="411" on="0"/>
        <pt x="258" y="444" on="0"/>
        <pt x="315" y="469" on="0"/>
        <pt x="354" y="469" on="1"/>
        <pt x="431" y="469" on="0"/>
        <pt x="500" y="403" on="0"/>
        <pt x="500" y="325" on="1"/>
      </contour>
    </TTGlyph>
    <TTGlyph name="nine" xMin="46" yMin="-22" xMax="503" yMax="716">
      <contour>
        <pt x="363" y="305" on="1"/>
        <pt x="358" y="293" on="0"/>
        <pt x="340" y="262" on="0"/>
        <pt x="310" y="234" on="0"/>
        <pt x="269" y="215" on="0"/>
        <pt x="241" y="215" on="1"/>
        <pt x="193" y="215" on="0"/>
        <pt x="121" y="243" on="0"/>
        <pt x="91" y="282" on="1"/>
        <pt x="59" y="325" on="0"/>
        <pt x="46" y="412" on="0"/>
        <pt x="46" y="459" on="1"/>
        <pt x="46" y="488" on="0"/>
        <pt x="50" y="537" on="0"/>
        <pt x="60" y="580" on="0"/>
        <pt x="79" y="620" on="0"/>
        <pt x="95" y="641" on="1"/>
        <pt x="115" y="665" on="0"/>
        <pt x="158" y="694" on="0"/>
        <pt x="204" y="711" on="0"/>
        <pt x="252" y="716" on="0"/>
        <pt x="275" y="716" on="1"/>
        <pt x="332" y="716" on="0"/>
        <pt x="410" y="678" on="0"/>
        <pt x="460" y="615" on="0"/>
        <pt x="488" y="537" on="0"/>
        <pt x="501" y="457" on="0"/>
        <pt x="503" y="383" on="0"/>
        <pt x="503" y="356" on="1"/>
        <pt x="503" y="334" on="0"/>
        <pt x="500" y="260" on="0"/>
        <pt x="485" y="176" on="0"/>
        <pt x="452" y="91" on="0"/>
        <pt x="391" y="22" on="0"/>
        <pt x="297" y="-22" on="0"/>
        <pt x="229" y="-22" on="1"/>
        <pt x="192" y="-22" on="0"/>
        <pt x="136" y="-5" on="0"/>
        <pt x="98" y="16" on="0"/>
        <pt x="79" y="36" on="0"/>
        <pt x="79" y="39" on="1"/>
        <pt x="79" y="44" on="0"/>
        <pt x="98" y="76" on="0"/>
        <pt x="112" y="100" on="1"/>
        <pt x="116" y="106" on="0"/>
        <pt x="121" y="113" on="0"/>
        <pt x="127" y="113" on="1"/>
        <pt x="133" y="113" on="0"/>
        <pt x="140" y="105" on="1"/>
        <pt x="160" y="86" on="0"/>
        <pt x="204" y="72" on="0"/>
        <pt x="227" y="72" on="1"/>
        <pt x="268" y="72" on="0"/>
        <pt x="319" y="105" on="0"/>
        <pt x="347" y="155" on="0"/>
        <pt x="358" y="211" on="0"/>
        <pt x="360" y="234" on="1"/>
        <pt x="362" y="266" on="0"/>
        <pt x="362" y="298" on="0"/>
      </contour>
      <contour>
        <pt x="266" y="287" on="1"/>
        <pt x="302" y="287" on="0"/>
        <pt x="341" y="332" on="0"/>
        <pt x="359" y="389" on="0"/>
        <pt x="362" y="440" on="0"/>
        <pt x="362" y="445" on="1"/>
        <pt x="362" y="484" on="0"/>
        <pt x="355" y="551" on="0"/>
        <pt x="336" y="600" on="0"/>
        <pt x="303" y="627" on="0"/>
        <pt x="277" y="627" on="1"/>
        <pt x="243" y="627" on="0"/>
        <pt x="206" y="601" on="0"/>
        <pt x="189" y="556" on="0"/>
        <pt x="186" y="494" on="0"/>
        <pt x="186" y="458" on="1"/>
        <pt x="186" y="421" on="0"/>
        <pt x="189" y="358" on="0"/>
        <pt x="204" y="313" on="0"/>
        <pt x="236" y="287" on="0"/>
      </contour>
    </TTGlyph>
    <TTGlyph name="numbersign" xMin="61" yMin="-194" xMax="855" yMax="694">
      <contour>
        <pt x="598" y="177" on="1"/>
        <pt x="801" y="177" on="1"/>
        <pt x="805" y="177" on="0"/>
        <pt x="823" y="176" on="0"/>
        <pt x="841" y="168" on="0"/>
        <pt x="855" y="151" on="0"/>
        <pt x="855" y="135" on="1"/>
        <pt x="855" y="119" on="0"/>
        <pt x="841" y="102" on="0"/>
        <pt x="823" y="94" on="0"/>
        <pt x="806" y="93" on="0"/>
        <pt x="802" y="93" on="1"/>
        <pt x="573" y="93" on="1"/>
        <pt x="500" y="-157" on="1"/>
        <pt x="499" y="-161" on="0"/>
        <pt x="494" y="-174" on="0"/>
        <pt x="485" y="-186" on="0"/>
        <pt x="470" y="-194" on="0"/>
        <pt x="458" y="-194" on="1"/>
        <pt x="440" y="-194" on="0"/>
        <pt x="416" y="-169" on="0"/>
        <pt x="416" y="-152" on="1"/>
        <pt x="416" y="-149" on="0"/>
        <pt x="425" y="-114" on="0"/>
        <pt x="439" y="-65" on="0"/>
        <pt x="455" y="-8" on="0"/>
        <pt x="471" y="45" on="0"/>
        <pt x="483" y="85" on="0"/>
        <pt x="485" y="93" on="1"/>
        <pt x="340" y="93" on="1"/>
        <pt x="267" y="-157" on="1"/>
        <pt x="266" y="-161" on="0"/>
        <pt x="261" y="-174" on="0"/>
        <pt x="252" y="-186" on="0"/>
        <pt x="237" y="-194" on="0"/>
        <pt x="225" y="-194" on="1"/>
        <pt x="207" y="-194" on="0"/>
        <pt x="183" y="-169" on="0"/>
        <pt x="183" y="-152" on="1"/>
        <pt x="183" y="-149" on="0"/>
        <pt x="192" y="-114" on="0"/>
        <pt x="206" y="-65" on="0"/>
        <pt x="222" y="-8" on="0"/>
        <pt x="238" y="45" on="0"/>
        <pt x="250" y="85" on="0"/>
        <pt x="252" y="93" on="1"/>
        <pt x="114" y="93" on="1"/>
        <pt x="110" y="93" on="0"/>
        <pt x="93" y="94" on="0"/>
        <pt x="75" y="102" on="0"/>
        <pt x="61" y="119" on="0"/>
        <pt x="61" y="135" on="1"/>
        <pt x="61" y="151" on="0"/>
        <pt x="75" y="168" on="0"/>
        <pt x="93" y="176" on="0"/>
        <pt x="111" y="177" on="0"/>
        <pt x="115" y="177" on="1"/>
        <pt x="277" y="177" on="1"/>
        <pt x="318" y="323" on="1"/>
        <pt x="115" y="323" on="1"/>
        <pt x="111" y="323" on="0"/>
        <pt x="93" y="324" on="0"/>
        <pt x="75" y="332" on="0"/>
        <pt x="61" y="349" on="0"/>
        <pt x="61" y="365" on="1"/>
        <pt x="61" y="381" on="0"/>
        <pt x="75" y="398" on="0"/>
        <pt x="93" y="406" on="0"/>
        <pt x="110" y="407" on="0"/>
        <pt x="114" y="407" on="1"/>
        <pt x="343" y="407" on="1"/>
        <pt x="416" y="657" on="1"/>
        <pt x="417" y="661" on="0"/>
        <pt x="422" y="674" on="0"/>
        <pt x="431" y="686" on="0"/>
        <pt x="446" y="694" on="0"/>
        <pt x="458" y="694" on="1"/>
        <pt x="476" y="694" on="0"/>
        <pt x="500" y="669" on="0"/>
        <pt x="500" y="652" on="1"/>
        <pt x="500" y="649" on="0"/>
        <pt x="491" y="614" on="0"/>
        <pt x="477" y="565" on="0"/>
        <pt x="461" y="508" on="0"/>
        <pt x="445" y="455" on="0"/>
        <pt x="433" y="415" on="0"/>
        <pt x="431" y="407" on="1"/>
        <pt x="576" y="407" on="1"/>
        <pt x="649" y="657" on="1"/>
        <pt x="650" y="661" on="0"/>
        <pt x="655" y="674" on="0"/>
        <pt x="664" y="686" on="0"/>
        <pt x="679" y="694" on="0"/>
        <pt x="691" y="694" on="1"/>
        <pt x="709" y="694" on="0"/>
        <pt x="733" y="669" on="0"/>
        <pt x="733" y="652" on="1"/>
        <pt x="733" y="649" on="0"/>
        <pt x="724" y="614" on="0"/>
        <pt x="710" y="565" on="0"/>
        <pt x="694" y="508" on="0"/>
        <pt x="678" y="455" on="0"/>
        <pt x="666" y="415" on="0"/>
        <pt x="664" y="407" on="1"/>
        <pt x="802" y="407" on="1"/>
        <pt x="806" y="407" on="0"/>
        <pt x="823" y="406" on="0"/>
        <pt x="841" y="398" on="0"/>
        <pt x="855" y="381" on="0"/>
        <pt x="855" y="365" on="1"/>
        <pt x="855" y="349" on="0"/>
        <pt x="842" y="332" on="0"/>
        <pt x="824" y="324" on="0"/>
        <pt x="806" y="323" on="0"/>
        <pt x="801" y="323" on="1"/>
        <pt x="639" y="323" on="1"/>
      </contour>
      <contour>
        <pt x="365" y="177" on="1"/>
        <pt x="510" y="177" on="1"/>
        <pt x="551" y="323" on="1"/>
        <pt x="406" y="323" on="1"/>
      </contour>
    </TTGlyph>
    <TTGlyph name="o" xMin="31" yMin="-11" xMax="518" yMax="475">
      <contour>
        <pt x="518" y="225" on="1"/>
        <pt x="518" y="102" on="0"/>
        <pt x="392" y="-11" on="0"/>
        <pt x="274" y="-11" on="1"/>
        <pt x="156" y="-11" on="0"/>
        <pt x="31" y="102" on="0"/>
        <pt x="31" y="225" on="1"/>
        <pt x="31" y="346" on="0"/>
        <pt x="149" y="475" on="0"/>
        <pt x="275" y="475" on="1"/>
        <pt x="398" y="475" on="0"/>
        <pt x="518" y="349" on="0"/>
      </contour>
      <contour>
        <pt x="275" y="67" on="1"/>
        <pt x="315" y="67" on="0"/>
        <pt x="359" y="98" on="0"/>
        <pt x="379" y="147" on="0"/>
        <pt x="382" y="207" on="0"/>
        <pt x="382" y="237" on="1"/>
        <pt x="382" y="266" on="0"/>
        <pt x="379" y="325" on="0"/>
        <pt x="358" y="373" on="0"/>
        <pt x="315" y="403" on="0"/>
        <pt x="274" y="403" on="1"/>
        <pt x="234" y="403" on="0"/>
        <pt x="190" y="373" on="0"/>
        <pt x="170" y="325" on="0"/>
        <pt x="167" y="266" on="0"/>
        <pt x="167" y="237" on="1"/>
        <pt x="167" y="207" on="0"/>
        <pt x="170" y="146" on="0"/>
        <pt x="191" y="98" on="0"/>
        <pt x="235" y="67" on="0"/>
      </contour>
    </TTGlyph>
    <TTGlyph name="oe" xMin="31" yMin="-11" xMax="824" yMax="475">
      <contour>
        <pt x="526" y="214" on="1"/>
        <pt x="527" y="184" on="0"/>
        <pt x="538" y="129" on="0"/>
        <pt x="564" y="87" on="0"/>
        <pt x="609" y="61" on="0"/>
        <pt x="645" y="61" on="1"/>
        <pt x="679" y="61" on="0"/>
        <pt x="753" y="88" on="0"/>
        <pt x="784" y="119" on="1"/>
        <pt x="790" y="125" on="0"/>
        <pt x="795" y="129" on="0"/>
        <pt x="800" y="129" on="1"/>
        <pt x="807" y="129" on="0"/>
        <pt x="811" y="120" on="0"/>
        <pt x="814" y="97" on="1"/>
        <pt x="814" y="94" on="0"/>
        <pt x="816" y="81" on="0"/>
        <pt x="817" y="68" on="0"/>
        <pt x="818" y="56" on="0"/>
        <pt x="818" y="53" on="1"/>
        <pt x="818" y="47" on="0"/>
        <pt x="811" y="38" on="0"/>
        <pt x="790" y="27" on="1"/>
        <pt x="752" y="6" on="0"/>
        <pt x="678" y="-11" on="0"/>
        <pt x="640" y="-11" on="1"/>
        <pt x="574" y="-11" on="0"/>
        <pt x="488" y="22" on="0"/>
        <pt x="459" y="47" on="1"/>
        <pt x="439" y="28" on="0"/>
        <pt x="392" y="5" on="0"/>
        <pt x="344" y="-7" on="0"/>
        <pt x="298" y="-11" on="0"/>
        <pt x="278" y="-11" on="1"/>
        <pt x="159" y="-11" on="0"/>
        <pt x="31" y="108" on="0"/>
        <pt x="31" y="232" on="1"/>
        <pt x="31" y="353" on="0"/>
        <pt x="153" y="475" on="0"/>
        <pt x="278" y="475" on="1"/>
        <pt x="299" y="475" on="0"/>
        <pt x="346" y="470" on="0"/>
        <pt x="393" y="458" on="0"/>
        <pt x="438" y="436" on="0"/>
        <pt x="458" y="419" on="1"/>
        <pt x="478" y="437" on="0"/>
        <pt x="522" y="459" on="0"/>
        <pt x="567" y="471" on="0"/>
        <pt x="609" y="475" on="0"/>
        <pt x="627" y="475" on="1"/>
        <pt x="729" y="475" on="0"/>
        <pt x="824" y="360" on="0"/>
        <pt x="824" y="261" on="1"/>
        <pt x="824" y="231" on="0"/>
        <pt x="799" y="214" on="0"/>
        <pt x="776" y="214" on="1"/>
      </contour>
      <contour>
        <pt x="710" y="267" on="1"/>
        <pt x="709" y="289" on="0"/>
        <pt x="705" y="337" on="0"/>
        <pt x="688" y="377" on="0"/>
        <pt x="656" y="403" on="0"/>
        <pt x="627" y="403" on="1"/>
        <pt x="594" y="403" on="0"/>
        <pt x="556" y="373" on="0"/>
        <pt x="535" y="330" on="0"/>
        <pt x="528" y="283" on="0"/>
        <pt x="527" y="267" on="1"/>
      </contour>
      <contour>
        <pt x="277" y="61" on="1"/>
        <pt x="319" y="61" on="0"/>
        <pt x="365" y="95" on="0"/>
        <pt x="386" y="147" on="0"/>
        <pt x="390" y="209" on="0"/>
        <pt x="390" y="237" on="1"/>
        <pt x="390" y="264" on="0"/>
        <pt x="386" y="323" on="0"/>
        <pt x="365" y="371" on="0"/>
        <pt x="319" y="403" on="0"/>
        <pt x="277" y="403" on="1"/>
        <pt x="234" y="403" on="0"/>
        <pt x="186" y="371" on="0"/>
        <pt x="165" y="322" on="0"/>
        <pt x="161" y="263" on="0"/>
        <pt x="161" y="236" on="1"/>
        <pt x="161" y="209" on="0"/>
        <pt x="165" y="148" on="0"/>
        <pt x="186" y="95" on="0"/>
        <pt x="234" y="61" on="0"/>
      </contour>
    </TTGlyph>
    <TTGlyph name="one" xMin="76" yMin="0" xMax="473" yMax="716">
      <contour>
        <pt x="355" y="72" on="1"/>
        <pt x="425" y="72" on="1"/>
        <pt x="429" y="72" on="0"/>
        <pt x="445" y="71" on="0"/>
        <pt x="461" y="64" on="0"/>
        <pt x="473" y="50" on="0"/>
        <pt x="473" y="36" on="1"/>
        <pt x="473" y="23" on="0"/>
        <pt x="461" y="8" on="0"/>
        <pt x="445" y="1" on="0"/>
        <pt x="429" y="0" on="0"/>
        <pt x="425" y="0" on="1"/>
        <pt x="140" y="0" on="1"/>
        <pt x="135" y="0" on="0"/>
        <pt x="119" y="1" on="0"/>
        <pt x="103" y="8" on="0"/>
        <pt x="92" y="23" on="0"/>
        <pt x="92" y="36" on="1"/>
        <pt x="92" y="50" on="0"/>
        <pt x="103" y="64" on="0"/>
        <pt x="119" y="71" on="0"/>
        <pt x="135" y="72" on="0"/>
        <pt x="140" y="72" on="1"/>
        <pt x="218" y="72" on="1"/>
        <pt x="218" y="588" on="1"/>
        <pt x="196" y="582" on="0"/>
        <pt x="147" y="575" on="0"/>
        <pt x="124" y="575" on="1"/>
        <pt x="119" y="575" on="0"/>
        <pt x="103" y="576" on="0"/>
        <pt x="87" y="583" on="0"/>
        <pt x="76" y="598" on="0"/>
        <pt x="76" y="611" on="1"/>
        <pt x="76" y="633" on="0"/>
        <pt x="106" y="647" on="0"/>
        <pt x="120" y="647" on="1"/>
        <pt x="157" y="648" on="0"/>
        <pt x="210" y="661" on="0"/>
        <pt x="246" y="678" on="0"/>
        <pt x="268" y="696" on="0"/>
        <pt x="275" y="702" on="1"/>
        <pt x="284" y="711" on="0"/>
        <pt x="296" y="716" on="0"/>
        <pt x="311" y="716" on="1"/>
        <pt x="328" y="716" on="0"/>
        <pt x="345" y="706" on="0"/>
        <pt x="354" y="692" on="0"/>
        <pt x="355" y="675" on="0"/>
        <pt x="355" y="668" on="1"/>
      </contour>
    </TTGlyph>
    <TTGlyph name="oslash" xMin="31" yMin="-133" xMax="518" yMax="592">
      <contour>
        <pt x="431" y="434" on="1"/>
        <pt x="481" y="399" on="0"/>
        <pt x="518" y="288" on="0"/>
        <pt x="518" y="225" on="1"/>
        <pt x="518" y="102" on="0"/>
        <pt x="392" y="-11" on="0"/>
        <pt x="274" y="-11" on="1"/>
        <pt x="272" y="-11" on="0"/>
        <pt x="255" y="-11" on="0"/>
        <pt x="230" y="-9" on="0"/>
        <pt x="201" y="-5" on="0"/>
        <pt x="186" y="-2" on="1"/>
        <pt x="172" y="-27" on="0"/>
        <pt x="142" y="-80" on="0"/>
        <pt x="130" y="-100" on="1"/>
        <pt x="121" y="-116" on="0"/>
        <pt x="107" y="-133" on="0"/>
        <pt x="91" y="-133" on="1"/>
        <pt x="77" y="-133" on="0"/>
        <pt x="55" y="-113" on="0"/>
        <pt x="55" y="-97" on="1"/>
        <pt x="55" y="-89" on="0"/>
        <pt x="61" y="-77" on="0"/>
        <pt x="69" y="-63" on="1"/>
        <pt x="119" y="27" on="1"/>
        <pt x="90" y="45" on="0"/>
        <pt x="55" y="96" on="0"/>
        <pt x="37" y="150" on="0"/>
        <pt x="31" y="203" on="0"/>
        <pt x="31" y="225" on="1"/>
        <pt x="31" y="343" on="0"/>
        <pt x="147" y="475" on="0"/>
        <pt x="274" y="475" on="1"/>
        <pt x="277" y="475" on="0"/>
        <pt x="296" y="475" on="0"/>
        <pt x="321" y="473" on="0"/>
        <pt x="350" y="468" on="0"/>
        <pt x="365" y="464" on="1"/>
        <pt x="423" y="568" on="1"/>
        <pt x="428" y="576" on="0"/>
        <pt x="444" y="592" on="0"/>
        <pt x="458" y="592" on="1"/>
        <pt x="472" y="592" on="0"/>
        <pt x="494" y="572" on="0"/>
        <pt x="494" y="556" on="1"/>
        <pt x="494" y="554" on="0"/>
        <pt x="492" y="541" on="0"/>
        <pt x="485" y="529" on="1"/>
      </contour>
      <contour>
        <pt x="326" y="395" on="1"/>
        <pt x="321" y="397" on="0"/>
        <pt x="294" y="403" on="0"/>
        <pt x="275" y="403" on="1"/>
        <pt x="229" y="403" on="0"/>
        <pt x="178" y="369" on="0"/>
        <pt x="155" y="316" on="0"/>
        <pt x="151" y="254" on="0"/>
        <pt x="151" y="226" on="1"/>
        <pt x="151" y="194" on="0"/>
        <pt x="155" y="137" on="0"/>
        <pt x="168" y="114" on="1"/>
      </contour>
      <contour>
        <pt x="225" y="67" on="1"/>
        <pt x="242" y="62" on="0"/>
        <pt x="270" y="61" on="0"/>
        <pt x="274" y="61" on="1"/>
        <pt x="321" y="61" on="0"/>
        <pt x="371" y="91" on="0"/>
        <pt x="394" y="139" on="0"/>
        <pt x="398" y="198" on="0"/>
        <pt x="398" y="226" on="1"/>
        <pt x="398" y="256" on="0"/>
        <pt x="394" y="318" on="0"/>
        <pt x="381" y="345" on="1"/>
      </contour>
    </TTGlyph>
</ttFont>
